<?xml version="1.0" encoding="UTF-8"?>
<!DOCTYPE svg PUBLIC "-//W3C//DTD SVG 1.1//EN" "http://www.w3.org/Graphics/SVG/1.1/DTD/svg11.dtd">
<svg xmlns="http://www.w3.org/2000/svg" version="1.1" width="587px" height="186px" style="shape-rendering:geometricPrecision; text-rendering:geometricPrecision; image-rendering:optimizeQuality; fill-rule:evenodd; clip-rule:evenodd" xmlns:xlink="http://www.w3.org/1999/xlink">
<g><path style="opacity:1" fill="#f3c6c9" d="M 127.5,17.5 C 124.167,18.1667 120.833,18.8333 117.5,19.5C 115.833,19.5 114.167,19.5 112.5,19.5C 113.263,18.7321 114.263,18.2321 115.5,18C 119.486,17.5012 123.486,17.3345 127.5,17.5 Z"/></g>
<g><path style="opacity:1" fill="#e0373a" d="M 127.5,17.5 C 134.167,17.5 140.833,17.5 147.5,17.5C 148.167,18.1667 148.833,18.8333 149.5,19.5C 138.833,19.5 128.167,19.5 117.5,19.5C 120.833,18.8333 124.167,18.1667 127.5,17.5 Z"/></g>
<g><path style="opacity:0.035" fill="#f5d9d7" d="M 157.5,21.5 C 155.18,19.7739 152.513,19.1072 149.5,19.5C 148.833,18.8333 148.167,18.1667 147.5,17.5C 148.822,17.67 149.989,17.3366 151,16.5C 153.007,17.6687 155.173,18.3354 157.5,18.5C 157.5,19.5 157.5,20.5 157.5,21.5 Z"/></g>
<g><path style="opacity:1" fill="#fa1719" d="M 109.5,19.5 C 110.5,19.5 111.5,19.5 112.5,19.5C 114.167,19.5 115.833,19.5 117.5,19.5C 128.167,19.5 138.833,19.5 149.5,19.5C 152.513,19.1072 155.18,19.7739 157.5,21.5C 158.833,24.1667 158.833,26.8333 157.5,29.5C 153.066,31.2373 148.399,31.9039 143.5,31.5C 138.604,29.5539 133.271,28.8872 127.5,29.5C 127.5,28.1667 127.5,26.8333 127.5,25.5C 119.256,27.4898 110.922,27.8231 102.5,26.5C 100.668,25.9432 99.3351,24.9432 98.5,23.5C 99.5,22.8333 100.5,22.1667 101.5,21.5C 102.167,21.5 102.833,21.5 103.5,21.5C 106.082,21.9746 108.082,21.3079 109.5,19.5 Z"/></g>
<g><path style="opacity:1" fill="#dc847f" d="M 109.5,19.5 C 108.082,21.3079 106.082,21.9746 103.5,21.5C 104.99,19.7202 106.99,19.0535 109.5,19.5 Z"/></g>
<g><path style="opacity:0.455" fill="#f1bdbf" d="M 101.5,21.5 C 100.5,22.1667 99.5,22.8333 98.5,23.5C 97.1667,23.5 95.8333,23.5 94.5,23.5C 94.6107,22.8826 94.944,22.3826 95.5,22C 97.4727,21.5045 99.4727,21.3379 101.5,21.5 Z"/></g>
<g><path style="opacity:0.122" fill="#f9d7e2" d="M 92.5,23.5 C 91.2196,24.9313 89.5529,25.5979 87.5,25.5C 88.6354,23.7868 90.302,23.1201 92.5,23.5 Z"/></g>
<g><path style="opacity:0.016" fill="#f5fbf3" d="M 77.5,24.5 C 78.8333,25.1667 78.8333,25.1667 77.5,24.5 Z"/></g>
<g><path style="opacity:0.176" fill="#f5d5da" d="M 86.5,25.5 C 85.7095,26.4013 84.7095,27.0679 83.5,27.5C 83.1667,27.5 82.8333,27.5 82.5,27.5C 82.1667,27.5 81.8333,27.5 81.5,27.5C 82.7804,26.0687 84.4471,25.4021 86.5,25.5 Z"/></g>
<g><path style="opacity:1" fill="#e27975" d="M 81.5,27.5 C 81.8333,27.5 82.1667,27.5 82.5,27.5C 81.3646,29.2132 79.698,29.8799 77.5,29.5C 78.287,27.8958 79.6203,27.2291 81.5,27.5 Z"/></g>
<g><path style="opacity:0.141" fill="#f9d3d0" d="M 76.5,29.5 C 75.4863,30.6737 74.153,31.3404 72.5,31.5C 73.1834,29.8235 74.5168,29.1568 76.5,29.5 Z"/></g>
<g><path style="opacity:1" fill="#f8131a" d="M 82.5,27.5 C 82.8333,27.5 83.1667,27.5 83.5,27.5C 84.3351,28.9432 85.6684,29.9432 87.5,30.5C 86.8333,31.1667 86.1667,31.8333 85.5,32.5C 87.396,33.4656 89.396,33.7989 91.5,33.5C 91.1568,35.4832 91.8235,36.8166 93.5,37.5C 93.1667,38.1667 92.8333,38.8333 92.5,39.5C 92.1667,39.5 91.8333,39.5 91.5,39.5C 89.6203,39.2291 88.287,39.8958 87.5,41.5C 86.8333,41.5 86.1667,41.5 85.5,41.5C 83.9731,41.427 82.9731,42.0937 82.5,43.5C 81.8333,43.5 81.1667,43.5 80.5,43.5C 78.9731,43.427 77.9731,44.0937 77.5,45.5C 75.9731,45.427 74.9731,46.0937 74.5,47.5C 72.6203,47.2291 71.287,47.8958 70.5,49.5C 70.1667,49.5 69.8333,49.5 69.5,49.5C 58.7329,51.296 55.7329,47.296 60.5,37.5C 62.0269,37.573 63.0269,36.9063 63.5,35.5C 65.3797,35.7709 66.713,35.1042 67.5,33.5C 69.3797,33.7709 70.713,33.1042 71.5,31.5C 71.8333,31.5 72.1667,31.5 72.5,31.5C 74.153,31.3404 75.4863,30.6737 76.5,29.5C 76.8333,29.5 77.1667,29.5 77.5,29.5C 79.698,29.8799 81.3646,29.2132 82.5,27.5 Z"/></g>
<g><path style="opacity:1" fill="#f9151a" d="M 92.5,23.5 C 93.1667,23.5 93.8333,23.5 94.5,23.5C 95.8333,23.5 97.1667,23.5 98.5,23.5C 99.3351,24.9432 100.668,25.9432 102.5,26.5C 110.922,27.8231 119.256,27.4898 127.5,25.5C 127.5,26.8333 127.5,28.1667 127.5,29.5C 133.271,28.8872 138.604,29.5539 143.5,31.5C 135.16,31.3336 126.827,31.5003 118.5,32C 116.942,32.21 115.609,32.71 114.5,33.5C 113.5,33.5 112.5,33.5 111.5,33.5C 111.623,39.6003 110.957,45.6003 109.5,51.5C 109.768,53.099 109.434,54.4324 108.5,55.5C 106.833,55.5 105.167,55.5 103.5,55.5C 103.674,60.0214 103.007,60.3548 101.5,56.5C 99.604,55.5344 97.604,55.2011 95.5,55.5C 95.5,54.5 95.5,53.5 95.5,52.5C 95.5,52.1667 95.5,51.8333 95.5,51.5C 96.2216,51.0825 96.7216,50.4158 97,49.5C 97.4988,45.5138 97.6655,41.5138 97.5,37.5C 96.1667,37.5 94.8333,37.5 93.5,37.5C 91.8235,36.8166 91.1568,35.4832 91.5,33.5C 89.396,33.7989 87.396,33.4656 85.5,32.5C 86.1667,31.8333 86.8333,31.1667 87.5,30.5C 85.6684,29.9432 84.3351,28.9432 83.5,27.5C 84.7095,27.0679 85.7095,26.4013 86.5,25.5C 86.8333,25.5 87.1667,25.5 87.5,25.5C 89.5529,25.5979 91.2196,24.9313 92.5,23.5 Z"/></g>
<g><path style="opacity:0.141" fill="#f3d2d1" d="M 71.5,31.5 C 70.713,33.1042 69.3797,33.7709 67.5,33.5C 68.287,31.8958 69.6203,31.2291 71.5,31.5 Z"/></g>
<g><path style="opacity:0.032" fill="#f4dedf" d="M 157.5,29.5 C 156.742,32.8968 154.575,34.2301 151,33.5C 138.638,32.351 126.472,32.351 114.5,33.5C 115.609,32.71 116.942,32.21 118.5,32C 126.827,31.5003 135.16,31.3336 143.5,31.5C 148.399,31.9039 153.066,31.2373 157.5,29.5 Z"/></g>
<g><path style="opacity:0.016" fill="#f0f4f7" d="M 240.5,32.5 C 240.068,33.7095 239.401,34.7095 238.5,35.5C 238.586,34.5041 238.252,33.6708 237.5,33C 238.448,32.5172 239.448,32.3505 240.5,32.5 Z"/></g>
<g><path style="opacity:1" fill="#dff0f0" d="M 246.5,31.5 C 250.491,30.872 251.824,32.2053 250.5,35.5C 249.778,34.4489 248.778,33.7822 247.5,33.5C 247.167,32.8333 246.833,32.1667 246.5,31.5 Z"/></g>
<g><path style="opacity:1" fill="#0c43f9" d="M 247.5,33.5 C 248.778,33.7822 249.778,34.4489 250.5,35.5C 250.693,39.5662 250.36,43.5662 249.5,47.5C 247.663,50.3722 244.997,51.7055 241.5,51.5C 240.712,48.5656 240.046,45.5656 239.5,42.5C 239.762,39.0964 240.762,36.0964 242.5,33.5C 244.167,33.5 245.833,33.5 247.5,33.5 Z"/></g>
<g><path style="opacity:0.016" fill="#f2f8fb" d="M 58.5,34.5 C 59.8333,35.1667 59.8333,35.1667 58.5,34.5 Z"/></g>
<g><path style="opacity:0.212" fill="#eed1d2" d="M 67.5,33.5 C 66.713,35.1042 65.3797,35.7709 63.5,35.5C 64.5137,34.3263 65.847,33.6596 67.5,33.5 Z"/></g>
<g><path style="opacity:0.122" fill="#f3dad3" d="M 63.5,35.5 C 63.0269,36.9063 62.0269,37.573 60.5,37.5C 60.8212,35.9519 61.8212,35.2852 63.5,35.5 Z"/></g>
<g><path style="opacity:0.016" fill="#f3fffb" d="M 253.5,36.5 C 254.833,37.1667 254.833,37.1667 253.5,36.5 Z"/></g>
<g><path style="opacity:0.016" fill="#f3fffc" d="M 51.5,37.5 C 53.337,37.6395 53.6704,38.3061 52.5,39.5C 51.7025,39.0431 51.3691,38.3764 51.5,37.5 Z"/></g>
<g><path style="opacity:1" fill="#9ba7f7" d="M 250.5,35.5 C 251.734,37.2014 252.401,39.2014 252.5,41.5C 251.531,46.3929 250.198,51.0595 248.5,55.5C 248.833,52.8333 249.167,50.1667 249.5,47.5C 250.36,43.5662 250.693,39.5662 250.5,35.5 Z"/></g>
<g><path style="opacity:0.122" fill="#f6d7da" d="M 91.5,39.5 C 90.713,41.1042 89.3797,41.7709 87.5,41.5C 88.287,39.8958 89.6203,39.2291 91.5,39.5 Z"/></g>
<g><path style="opacity:0.157" fill="#f3c0bd" d="M 93.5,37.5 C 94.8333,37.5 96.1667,37.5 97.5,37.5C 97.6655,41.5138 97.4988,45.5138 97,49.5C 96.7216,50.4158 96.2216,51.0825 95.5,51.5C 95.8333,47.5 96.1667,43.5 96.5,39.5C 95.1667,39.5 93.8333,39.5 92.5,39.5C 92.8333,38.8333 93.1667,38.1667 93.5,37.5 Z"/></g>
<g><path style="opacity:0.318" fill="#f7c8cd" d="M 114.5,33.5 C 112.884,35.4158 113.218,36.9158 115.5,38C 114.975,38.6924 114.308,39.1924 113.5,39.5C 112.532,43.7484 111.199,47.7484 109.5,51.5C 110.957,45.6003 111.623,39.6003 111.5,33.5C 112.5,33.5 113.5,33.5 114.5,33.5 Z"/></g>
<g><path style="opacity:0.021" fill="#f2fffe" d="M 53.5,41.5 C 55.337,41.6395 55.6704,42.3061 54.5,43.5C 53.7025,43.0431 53.3691,42.3764 53.5,41.5 Z"/></g>
<g><path style="opacity:0.247" fill="#f5d2d6" d="M 85.5,41.5 C 85.6495,42.552 85.4828,43.552 85,44.5C 84.3292,43.7476 83.4959,43.4142 82.5,43.5C 82.9731,42.0937 83.9731,41.427 85.5,41.5 Z"/></g>
<g><path style="opacity:0.404" fill="#f2b3b7" d="M 80.5,43.5 C 80.1788,45.0481 79.1788,45.7148 77.5,45.5C 77.9731,44.0937 78.9731,43.427 80.5,43.5 Z"/></g>
<g><path style="opacity:0.016" fill="#f2fffd" d="M 91.5,45.5 C 91.8966,44.475 92.5632,44.3083 93.5,45C 92.9056,45.4643 92.2389,45.631 91.5,45.5 Z"/></g>
<g><path style="opacity:0.455" fill="#cfe0fb" d="M 238.5,36.5 C 238.813,40.0419 238.479,43.3752 237.5,46.5C 237.214,44.7231 236.547,43.0564 235.5,41.5C 236.396,39.664 237.396,37.9974 238.5,36.5 Z"/></g>
<g><path style="opacity:0.122" fill="#fbeee2" d="M 77.5,45.5 C 77.1788,47.0481 76.1788,47.7148 74.5,47.5C 74.9731,46.0937 75.9731,45.427 77.5,45.5 Z"/></g>
<g><path style="opacity:0.016" fill="#f9fdf3" d="M 80.5,46.5 C 81.8333,47.1667 81.8333,47.1667 80.5,46.5 Z"/></g>
<g><path style="opacity:0.016" fill="#f8fff3" d="M 433.5,47.5 C 435.337,47.6395 435.67,48.3061 434.5,49.5C 433.702,49.0431 433.369,48.3764 433.5,47.5 Z"/></g>
<g><path style="opacity:0.016" fill="#fefff3" d="M 447.5,49.5 C 447.639,47.663 448.306,47.3296 449.5,48.5C 449.043,49.2975 448.376,49.6309 447.5,49.5 Z"/></g>
<g><path style="opacity:0.122" fill="#fce3e1" d="M 74.5,47.5 C 73.713,49.1042 72.3797,49.7709 70.5,49.5C 71.287,47.8958 72.6203,47.2291 74.5,47.5 Z"/></g>
<g><path style="opacity:0.016" fill="#f6fff3" d="M 234.5,48.5 C 235.833,49.1667 235.833,49.1667 234.5,48.5 Z"/></g>
<g><path style="opacity:1" fill="#3953f1" d="M 246.5,31.5 C 246.833,32.1667 247.167,32.8333 247.5,33.5C 245.833,33.5 244.167,33.5 242.5,33.5C 240.762,36.0964 239.762,39.0964 239.5,42.5C 240.046,45.5656 240.712,48.5656 241.5,51.5C 244.997,51.7055 247.663,50.3722 249.5,47.5C 249.167,50.1667 248.833,52.8333 248.5,55.5C 248.567,56.9587 248.234,58.2921 247.5,59.5C 246.566,60.5676 246.232,61.901 246.5,63.5C 247.5,63.5 248.5,63.5 249.5,63.5C 249.5,64.8333 248.833,65.5 247.5,65.5C 245.692,64.0821 245.025,62.0821 245.5,59.5C 244.022,59.762 242.689,59.4287 241.5,58.5C 243.005,57.1585 243.672,55.4918 243.5,53.5C 241.071,53.1156 238.737,52.449 236.5,51.5C 236.366,49.7085 236.699,48.0418 237.5,46.5C 238.479,43.3752 238.813,40.0419 238.5,36.5C 238.5,36.1667 238.5,35.8333 238.5,35.5C 239.401,34.7095 240.068,33.7095 240.5,32.5C 242.265,31.5386 244.265,31.2053 246.5,31.5 Z"/></g>
<g><path style="opacity:0.016" fill="#fefff3" d="M 411.5,49.5 C 413.337,49.6395 413.67,50.3061 412.5,51.5C 411.702,51.0431 411.369,50.3764 411.5,49.5 Z"/></g>
<g><path style="opacity:0.016" fill="#fefff3" d="M 447.5,49.5 C 448.376,49.6309 449.043,49.2975 449.5,48.5C 448.306,47.3296 447.639,47.663 447.5,49.5 Z"/></g>
<g><path style="opacity:0.545" fill="#f6b1b2" d="M 60.5,37.5 C 55.7329,47.296 58.7329,51.296 69.5,49.5C 64.8424,52.2408 60.1757,51.9075 55.5,48.5C 57.7697,47.4066 58.103,45.9066 56.5,44C 57,42.5 57.5,41 58,39.5C 58.4169,38.244 59.2502,37.5774 60.5,37.5 Z"/></g>
<g><path style="opacity:0.016" fill="#fbfff3" d="M 279.5,51.5 C 281.337,51.6395 281.67,52.3061 280.5,53.5C 279.702,53.0431 279.369,52.3764 279.5,51.5 Z"/></g>
<g><path style="opacity:0.025" fill="#fdfff2" d="M 539.5,51.5 C 540.376,51.3691 541.043,51.7025 541.5,52.5C 539.192,53.8734 538.525,53.5401 539.5,51.5 Z"/></g>
<g><path style="opacity:0.016" fill="#fdfff3" d="M 555.5,51.5 C 557.337,51.6395 557.67,52.3061 556.5,53.5C 555.702,53.0431 555.369,52.3764 555.5,51.5 Z"/></g>
<g><path style="opacity:0.016" fill="#f9fff3" d="M 310.5,52.5 C 311.833,53.1667 311.833,53.1667 310.5,52.5 Z"/></g>
<g><path style="opacity:0.016" fill="#fbfff3" d="M 487.5,53.5 C 487.897,52.475 488.563,52.3083 489.5,53C 488.906,53.4643 488.239,53.631 487.5,53.5 Z"/></g>
<g><path style="opacity:0.016" fill="#f9fdf3" d="M 250.5,53.5 C 251.833,54.1667 251.833,54.1667 250.5,53.5 Z"/></g>
<g><path style="opacity:0.016" fill="#fefff2" d="M 325.5,53.5 C 327.337,53.6395 327.67,54.3061 326.5,55.5C 325.702,55.0431 325.369,54.3764 325.5,53.5 Z"/></g>
<g><path style="opacity:0.039" fill="#c7d8ed" d="M 455.5,56.5 C 451.5,55.1667 447.5,55.1667 443.5,56.5C 443.5,55.5 443.5,54.5 443.5,53.5C 447.5,53.5 451.5,53.5 455.5,53.5C 455.5,54.5 455.5,55.5 455.5,56.5 Z"/></g>
<g><path style="opacity:0.043" fill="#fafff0" d="M 493.5,55.5 C 491.663,55.3605 491.33,54.6939 492.5,53.5C 493.298,53.9569 493.631,54.6236 493.5,55.5 Z"/></g>
<g><path style="opacity:0.091" fill="#dbebf5" d="M 311.5,57.5 C 309.167,57.5 306.833,57.5 304.5,57.5C 305.312,56.0069 306.645,55.3402 308.5,55.5C 310.03,55.6399 311.03,56.3065 311.5,57.5 Z"/></g>
<g><path style="opacity:0.016" fill="#fafff2" d="M 403.5,55.5 C 405.983,55.73 406.483,56.3966 405,57.5C 403.97,57.1639 403.47,56.4972 403.5,55.5 Z"/></g>
<g><path style="opacity:0.016" fill="#fdfff3" d="M 493.5,55.5 C 495.337,55.6395 495.67,56.3061 494.5,57.5C 493.702,57.0431 493.369,56.3764 493.5,55.5 Z"/></g>
<g><path style="opacity:0.475" fill="#d1e6f9" d="M 553.5,57.5 C 547.492,56.2258 541.492,56.2258 535.5,57.5C 535.918,56.7784 536.584,56.2784 537.5,56C 542.5,55.3333 547.5,55.3333 552.5,56C 553.056,56.3826 553.389,56.8826 553.5,57.5 Z"/></g>
<g><path style="opacity:0.016" fill="#f2fff7" d="M 558.5,55.5 C 559.833,56.1667 559.833,56.1667 558.5,55.5 Z"/></g>
<g><path style="opacity:0.016" fill="#f3f9fb" d="M 324.5,56.5 C 325.833,57.1667 325.833,57.1667 324.5,56.5 Z"/></g>
<g><path style="opacity:0.42" fill="#b8c2df" d="M 484.5,55.5 C 486.027,55.427 487.027,56.0937 487.5,57.5C 485.973,57.573 484.973,56.9063 484.5,55.5 Z"/></g>
<g><path style="opacity:0.016" fill="#f3fff8" d="M 558.5,56.5 C 557.833,57.1667 557.833,57.1667 558.5,56.5 Z"/></g>
<g><path style="opacity:0.016" fill="#fbfcf3" d="M 253.5,57.5 C 254.833,58.1667 254.833,58.1667 253.5,57.5 Z"/></g>
<g><path style="opacity:0.016" fill="#f3fff4" d="M 316.5,58.5 C 315.833,57.1667 315.833,57.1667 316.5,58.5 Z"/></g>
<g><path style="opacity:0.106" fill="#becee7" d="M 339.5,59.5 C 335.833,59.5 332.167,59.5 328.5,59.5C 328.611,58.8826 328.944,58.3826 329.5,58C 332.5,57.3333 335.5,57.3333 338.5,58C 339.056,58.3826 339.389,58.8826 339.5,59.5 Z"/></g>
<g><path style="opacity:0.086" fill="#ddf1f9" d="M 488.5,57.5 C 490.993,57.1307 491.66,57.7973 490.5,59.5C 489.5,59.1667 488.833,58.5 488.5,57.5 Z"/></g>
<g><path style="opacity:0.034" fill="#fdfef2" d="M 525.5,57.5 C 527.337,57.6395 527.67,58.3061 526.5,59.5C 525.702,59.0431 525.369,58.3764 525.5,57.5 Z"/></g>
<g><path style="opacity:0.808" fill="#f9b6b4" d="M 95.5,52.5 C 95.5,53.5 95.5,54.5 95.5,55.5C 94.4878,58.2572 93.4878,60.9239 92.5,63.5C 92.5165,59.4661 93.5165,55.7994 95.5,52.5 Z"/></g>
<g><path style="opacity:0.016" fill="#f6fff3" d="M 256.5,58.5 C 257.833,59.1667 257.833,59.1667 256.5,58.5 Z"/></g>
<g><path style="opacity:1" fill="#b5c3dd" d="M 278.5,59.5 C 275.167,59.5 271.833,59.5 268.5,59.5C 271.833,56.8333 275.167,56.8333 278.5,59.5 Z"/></g>
<g><path style="opacity:0.016" fill="#f3fff4" d="M 316.5,58.5 C 317.833,59.1667 317.833,59.1667 316.5,58.5 Z"/></g>
<g><path style="opacity:0.016" fill="#f2f3f4" d="M 346.5,58.5 C 347.833,59.1667 347.833,59.1667 346.5,58.5 Z"/></g>
<g><path style="opacity:0.016" fill="#f3fff6" d="M 414.5,59.5 C 413.833,58.1667 413.833,58.1667 414.5,59.5 Z"/></g>
<g><path style="opacity:1" fill="#b0b9e8" d="M 535.5,57.5 C 534.486,58.6737 533.153,59.3404 531.5,59.5C 531.91,56.5693 533.244,55.9026 535.5,57.5 Z"/></g>
<g><path style="opacity:0.071" fill="#e0edf4" d="M 553.5,57.5 C 555.179,57.2852 556.179,57.9519 556.5,59.5C 554.973,59.573 553.973,58.9063 553.5,57.5 Z"/></g>
<g><path style="opacity:0.316" fill="#bccef9" d="M 236.5,51.5 C 236.145,56.5505 234.812,61.2171 232.5,65.5C 233.261,60.5634 234.595,55.8967 236.5,51.5 Z"/></g>
<g><path style="opacity:0.016" fill="#f3fff8" d="M 254.5,59.5 C 255.833,60.1667 255.833,60.1667 254.5,59.5 Z"/></g>
<g><path style="opacity:0.298" fill="#cbdaf9" d="M 304.5,57.5 C 304.34,59.153 303.674,60.4863 302.5,61.5C 301.571,59.6783 302.238,58.3449 304.5,57.5 Z"/></g>
<g><path style="opacity:0.122" fill="#d4e7fc" d="M 387.5,59.5 C 385.972,60.3092 384.306,60.9759 382.5,61.5C 383.552,59.744 385.219,59.0773 387.5,59.5 Z"/></g>
<g><path style="opacity:1" fill="#2148f6" d="M 553.5,57.5 C 553.973,58.9063 554.973,59.573 556.5,59.5C 557.404,60.209 557.737,61.209 557.5,62.5C 557.5,64.1667 557.5,65.8333 557.5,67.5C 557.672,68.4916 557.338,69.1583 556.5,69.5C 555.662,69.8417 555.328,70.5084 555.5,71.5C 553.833,71.5 552.167,71.5 550.5,71.5C 550.027,70.0937 549.027,69.427 547.5,69.5C 544.91,66.9405 542.243,66.9405 539.5,69.5C 537.447,69.4021 535.78,70.0687 534.5,71.5C 531.964,72.037 529.964,73.3703 528.5,75.5C 527.5,75.5 526.5,75.5 525.5,75.5C 525.38,77.1986 525.046,78.8653 524.5,80.5C 524.453,82.0377 525.12,83.0377 526.5,83.5C 526.833,83.5 527.167,83.5 527.5,83.5C 528.287,85.1042 529.62,85.7709 531.5,85.5C 532.167,86.1667 532.833,86.8333 533.5,87.5C 531.508,87.3285 529.842,87.9951 528.5,89.5C 527.833,88.8333 527.167,88.1667 526.5,87.5C 525.833,88.8333 525.167,90.1667 524.5,91.5C 522.227,90.7209 520.394,89.3875 519,87.5C 518.5,87.8333 518,88.1667 517.5,88.5C 519.893,92.6986 523.56,94.3653 528.5,93.5C 528.567,94.9587 528.234,96.2921 527.5,97.5C 527.167,97.5 526.833,97.5 526.5,97.5C 526.167,97.5 525.833,97.5 525.5,97.5C 522.965,95.983 520.298,94.6497 517.5,93.5C 517.5,92.1667 516.833,91.5 515.5,91.5C 514.878,89.8784 513.878,88.5451 512.5,87.5C 510.537,84.0331 510.203,80.3665 511.5,76.5C 512.906,76.0269 513.573,75.0269 513.5,73.5C 516.145,72.1882 518.145,70.1882 519.5,67.5C 522.473,65.8532 525.14,63.8532 527.5,61.5C 529.027,61.573 530.027,60.9063 530.5,59.5C 530.833,59.5 531.167,59.5 531.5,59.5C 533.153,59.3404 534.486,58.6737 535.5,57.5C 541.492,56.2258 547.492,56.2258 553.5,57.5 Z"/></g>
<g><path style="opacity:0.914" fill="#b1bae4" d="M 266.5,59.5 C 264.562,61.1628 262.228,61.8294 259.5,61.5C 261.515,60.0762 263.848,59.4095 266.5,59.5 Z"/></g>
<g><path style="opacity:0.016" fill="#f7f9f2" d="M 319.5,60.5 C 320.833,61.1667 320.833,61.1667 319.5,60.5 Z"/></g>
<g><path style="opacity:0.788" fill="#bbc8e0" d="M 327.5,59.5 C 327.027,60.9063 326.027,61.573 324.5,61.5C 324.973,60.0937 325.973,59.427 327.5,59.5 Z"/></g>
<g><path style="opacity:0.016" fill="#dfedf2" d="M 342.5,59.5 C 344.937,60.2172 347.27,61.2172 349.5,62.5C 349.291,63.086 348.957,63.586 348.5,64C 349.823,64.8159 350.489,65.9826 350.5,67.5C 348.167,64.5 345.5,61.8333 342.5,59.5 Z"/></g>
<g><path style="opacity:0.035" fill="#fff9f2" d="M 414.5,59.5 C 415.833,60.1667 415.833,60.8333 414.5,61.5C 414.5,60.8333 414.5,60.1667 414.5,59.5 Z"/></g>
<g><path style="opacity:0.651" fill="#c5d4e7" d="M 530.5,59.5 C 530.027,60.9063 529.027,61.573 527.5,61.5C 527.973,60.0937 528.973,59.427 530.5,59.5 Z"/></g>
<g><path style="opacity:0.047" fill="#fefff0" d="M 297.5,61.5 C 299.337,61.6395 299.67,62.3061 298.5,63.5C 297.702,63.0431 297.369,62.3764 297.5,61.5 Z"/></g>
<g><path style="opacity:0.157" fill="#d2e9fd" d="M 324.5,61.5 C 323.71,62.4013 322.71,63.0679 321.5,63.5C 321.821,61.9519 322.821,61.2852 324.5,61.5 Z"/></g>
<g><path style="opacity:1" fill="#1645f9" d="M 387.5,59.5 C 394.833,59.5 402.167,59.5 409.5,59.5C 410.688,60.3636 411.855,61.3636 413,62.5C 413.498,65.4816 413.665,68.4816 413.5,71.5C 411.777,73.78 411.111,76.4467 411.5,79.5C 411.768,81.099 411.434,82.4324 410.5,83.5C 408.59,86.4525 407.59,89.7858 407.5,93.5C 407.5,93.8333 407.5,94.1667 407.5,94.5C 405.96,96.8383 405.294,99.5049 405.5,102.5C 405.5,102.833 405.5,103.167 405.5,103.5C 404.326,104.514 403.66,105.847 403.5,107.5C 401.75,110.355 400.917,113.689 401,117.5C 400.1,118.77 398.934,119.77 397.5,120.5C 397.833,121.167 398.167,121.833 398.5,122.5C 396.204,124.552 393.537,125.552 390.5,125.5C 389.539,123.735 389.205,121.735 389.5,119.5C 390.8,120.108 392.133,120.775 393.5,121.5C 394.167,121.167 394.833,120.833 395.5,120.5C 394.675,119.614 393.675,119.281 392.5,119.5C 392.797,116.276 392.13,113.276 390.5,110.5C 390.709,109.914 391.043,109.414 391.5,109C 389.564,108.187 387.564,107.687 385.5,107.5C 385.5,105.5 385.5,103.5 385.5,101.5C 394.198,93.4147 398.865,83.4147 399.5,71.5C 398.848,70.2749 397.681,69.6083 396,69.5C 394.615,69.5143 393.449,69.8476 392.5,70.5C 390.883,71.038 389.216,71.3713 387.5,71.5C 384.956,71.8957 382.789,71.229 381,69.5C 380.667,69.8333 380.333,70.1667 380,70.5C 379.634,68.5483 378.801,66.8816 377.5,65.5C 379.264,64.674 380.598,63.3407 381.5,61.5C 381.833,61.5 382.167,61.5 382.5,61.5C 384.306,60.9759 385.972,60.3092 387.5,59.5 Z"/></g>
<g><path style="opacity:0.035" fill="#dbe6f4" d="M 527.5,61.5 C 525.14,63.8532 522.473,65.8532 519.5,67.5C 520.783,65.3936 521.616,63.0602 522,60.5C 523.488,62.8305 525.321,63.1638 527.5,61.5 Z"/></g>
<g><path style="opacity:0.016" fill="#fad7d6" d="M 107.5,59.5 C 107.741,61.8984 107.074,63.8984 105.5,65.5C 105.259,63.1016 105.926,61.1016 107.5,59.5 Z"/></g>
<g><path style="opacity:1" fill="#eec0c1" d="M 191.5,63.5 C 191.167,63.5 190.833,63.5 190.5,63.5C 184.842,62.2317 179.175,62.2317 173.5,63.5C 173.918,62.7784 174.584,62.2784 175.5,62C 178.167,61.8333 180.833,61.6667 183.5,61.5C 186.59,61.5217 189.257,62.1883 191.5,63.5 Z"/></g>
<g><path style="opacity:0.141" fill="#cdd7f1" d="M 247.5,59.5 C 247.5,60.5 247.5,61.5 247.5,62.5C 250.482,62.0371 253.482,61.7038 256.5,61.5C 254.562,63.1628 252.228,63.8294 249.5,63.5C 248.5,63.5 247.5,63.5 246.5,63.5C 246.232,61.901 246.566,60.5676 247.5,59.5 Z"/></g>
<g><path style="opacity:1" fill="#2347f8" d="M 484.5,55.5 C 484.973,56.9063 485.973,57.573 487.5,57.5C 487.833,57.5 488.167,57.5 488.5,57.5C 488.833,58.5 489.5,59.1667 490.5,59.5C 491.123,61.7105 492.123,63.7105 493.5,65.5C 494.766,69.4677 494.766,73.4677 493.5,77.5C 491.926,79.1016 491.259,81.1016 491.5,83.5C 491.768,85.099 491.434,86.4324 490.5,87.5C 488.926,89.1016 488.259,91.1016 488.5,93.5C 488.672,94.4916 488.338,95.1583 487.5,95.5C 485.926,97.1016 485.259,99.1016 485.5,101.5C 485.672,102.492 485.338,103.158 484.5,103.5C 484.167,103.5 483.833,103.5 483.5,103.5C 485.291,96.3968 482.625,92.3968 475.5,91.5C 475.5,91.1667 475.5,90.8333 475.5,90.5C 475.5,90.1667 475.5,89.8333 475.5,89.5C 476.931,88.2196 477.598,86.5529 477.5,84.5C 477.5,84.1667 477.5,83.8333 477.5,83.5C 479.074,81.8984 479.741,79.8984 479.5,77.5C 479.5,75.1667 479.5,72.8333 479.5,70.5C 479.586,69.5041 479.252,68.6708 478.5,68C 477,67.8333 475.5,67.6667 474,67.5C 470.514,68.1716 467.348,69.505 464.5,71.5C 461.858,71.4877 460.525,72.821 460.5,75.5C 458.821,75.2852 457.821,75.9519 457.5,77.5C 456.167,77.5 455.5,78.1667 455.5,79.5C 453.973,79.427 452.973,80.0937 452.5,81.5C 451.5,81.8333 450.833,82.5 450.5,83.5C 449.29,83.9321 448.29,84.5987 447.5,85.5C 444.917,86.985 443.584,89.3183 443.5,92.5C 442.262,94.2143 441.595,96.2143 441.5,98.5C 440.883,98.6107 440.383,98.944 440,99.5C 438.637,104.084 437.803,108.751 437.5,113.5C 437.5,113.833 437.5,114.167 437.5,114.5C 435.96,116.838 435.294,119.505 435.5,122.5C 435.5,122.833 435.5,123.167 435.5,123.5C 434.5,123.833 433.833,124.5 433.5,125.5C 430.833,125.5 428.167,125.5 425.5,125.5C 425.5,124.167 424.833,123.5 423.5,123.5C 423.5,122.167 423.5,120.833 423.5,119.5C 423.5,118.833 423.5,118.167 423.5,117.5C 423.5,117.167 423.5,116.833 423.5,116.5C 425.04,114.162 425.706,111.495 425.5,108.5C 427.04,106.162 427.706,103.495 427.5,100.5C 428.924,98.4855 429.59,96.1522 429.5,93.5C 431.074,91.8984 431.741,89.8984 431.5,87.5C 431.328,86.5084 431.662,85.8417 432.5,85.5C 434.917,81.5386 436.583,77.2053 437.5,72.5C 437.5,72.1667 437.5,71.8333 437.5,71.5C 438.674,70.4863 439.34,69.153 439.5,67.5C 441.074,65.8984 441.741,63.8984 441.5,61.5C 441.796,59.597 442.463,57.9303 443.5,56.5C 447.5,55.1667 451.5,55.1667 455.5,56.5C 456.833,58.5 456.833,60.5 455.5,62.5C 453.439,63.7514 453.106,65.4181 454.5,67.5C 455.909,66.1515 457.243,64.8181 458.5,63.5C 460.882,62.6493 462.882,61.316 464.5,59.5C 464.833,59.5 465.167,59.5 465.5,59.5C 467.027,59.573 468.027,58.9063 468.5,57.5C 470.553,57.5979 472.22,56.9313 473.5,55.5C 477.167,54.1667 480.833,54.1667 484.5,55.5 Z"/></g>
<g><path style="opacity:0.071" fill="#dfecf2" d="M 464.5,59.5 C 462.882,61.316 460.882,62.6493 458.5,63.5C 458.628,61.9102 459.295,60.5769 460.5,59.5C 461.726,60.3629 463.06,60.3629 464.5,59.5 Z"/></g>
<g><path style="opacity:1" fill="#9aafd5" d="M 468.5,57.5 C 468.027,58.9063 467.027,59.573 465.5,59.5C 465.973,58.0937 466.973,57.427 468.5,57.5 Z"/></g>
<g><path style="opacity:0.016" fill="#f3f9fe" d="M 457.5,57.5 C 458.833,58.1667 458.833,58.1667 457.5,57.5 Z"/></g>
<g><path style="opacity:0.247" fill="#d3deef" d="M 473.5,55.5 C 472.22,56.9313 470.553,57.5979 468.5,57.5C 469.78,56.0687 471.447,55.4021 473.5,55.5 Z"/></g>
<g><path style="opacity:0.016" fill="#fafff3" d="M 83.5,63.5 C 85.337,63.6395 85.6704,64.3061 84.5,65.5C 83.7025,65.0431 83.3691,64.3764 83.5,63.5 Z"/></g>
<g><path style="opacity:0.106" fill="#f5d7d6" d="M 172.5,63.5 C 171.713,65.1042 170.38,65.7709 168.5,65.5C 169.287,63.8958 170.62,63.2291 172.5,63.5 Z"/></g>
<g><path style="opacity:1" fill="#1445f8" d="M 266.5,59.5 C 267.167,59.5 267.833,59.5 268.5,59.5C 271.833,59.5 275.167,59.5 278.5,59.5C 280.195,63.3364 279.528,66.6697 276.5,69.5C 274.62,69.2291 273.287,69.8958 272.5,71.5C 271.833,71.5 271.167,71.5 270.5,71.5C 267.171,71.2153 264.171,71.8819 261.5,73.5C 258.933,73.7215 256.599,74.3882 254.5,75.5C 251.123,75.0679 248.123,75.7345 245.5,77.5C 244.167,77.5 242.833,77.5 241.5,77.5C 241.5,78.8333 241.5,80.1667 241.5,81.5C 240.833,82.1667 240.167,82.8333 239.5,83.5C 238.251,81.3296 237.251,78.9963 236.5,76.5C 240.335,75.0035 240.335,74.0035 236.5,73.5C 236.251,70.4246 237.585,69.7579 240.5,71.5C 242.949,70.7754 245.283,69.7754 247.5,68.5C 246.209,67.4728 246.209,66.4728 247.5,65.5C 248.833,65.5 249.5,64.8333 249.5,63.5C 252.228,63.8294 254.562,63.1628 256.5,61.5C 257.5,61.5 258.5,61.5 259.5,61.5C 262.228,61.8294 264.562,61.1628 266.5,59.5 Z"/></g>
<g><path style="opacity:0.231" fill="#eef6f8" d="M 314.5,61.5 C 316.379,61.3932 316.712,61.8932 315.5,63C 316.942,63.3768 317.942,64.2101 318.5,65.5C 317.5,66.8333 316.5,68.1667 315.5,69.5C 314.527,67.0521 314.194,64.3854 314.5,61.5 Z"/></g>
<g><path style="opacity:0.016" fill="#fefcf2" d="M 436.5,63.5 C 437.833,64.1667 437.833,64.1667 436.5,63.5 Z"/></g>
<g><path style="opacity:0.071" fill="#c0d7f2" d="M 455.5,62.5 C 456.209,63.404 457.209,63.7373 458.5,63.5C 457.243,64.8181 455.909,66.1515 454.5,67.5C 453.106,65.4181 453.439,63.7514 455.5,62.5 Z"/></g>
<g><path style="opacity:0.035" fill="#dceff9" d="M 490.5,59.5 C 492.513,60.4752 493.846,62.1419 494.5,64.5C 494.376,65.1067 494.043,65.44 493.5,65.5C 492.123,63.7105 491.123,61.7105 490.5,59.5 Z"/></g>
<g><path style="opacity:0.016" fill="#f2fef9" d="M 109.5,64.5 C 110.833,65.1667 110.833,65.1667 109.5,64.5 Z"/></g>
<g><path style="opacity:1" fill="#8997e6" d="M 381.5,61.5 C 380.598,63.3407 379.264,64.674 377.5,65.5C 377.167,65.5 376.833,65.5 376.5,65.5C 377.539,63.4689 379.205,62.1355 381.5,61.5 Z"/></g>
<g><path style="opacity:1" fill="#92a1e6" d="M 441.5,61.5 C 441.741,63.8984 441.074,65.8984 439.5,67.5C 439.259,65.1016 439.926,63.1016 441.5,61.5 Z"/></g>
<g><path style="opacity:0.035" fill="#f1fcf2" d="M 159.5,65.5 C 160.833,66.1667 160.833,66.1667 159.5,65.5 Z"/></g>
<g><path style="opacity:0.894" fill="#a8c0f7" d="M 232.5,65.5 C 228.688,66.3238 224.688,66.8238 220.5,67C 219.922,68.417 218.922,69.2504 217.5,69.5C 218.204,65.2945 220.037,63.9611 223,65.5C 223.308,64.6919 223.808,64.0253 224.5,63.5C 226.868,65.223 229.534,65.8897 232.5,65.5 Z"/></g>
<g><path style="opacity:0.051" fill="#f8fff1" d="M 371.5,67.5 C 369.663,67.3605 369.33,66.6939 370.5,65.5C 371.298,65.9569 371.631,66.6236 371.5,67.5 Z"/></g>
<g><path style="opacity:0.051" fill="#e9f5ff" d="M 375.5,65.5 C 375.167,66.5 374.5,67.1667 373.5,67.5C 372.34,65.7973 373.007,65.1307 375.5,65.5 Z"/></g>
<g><path style="opacity:0.022" fill="#f6f8f5" d="M 557.5,62.5 C 558.339,63.6412 559.006,64.9745 559.5,66.5C 559.043,67.2975 558.376,67.6309 557.5,67.5C 557.5,65.8333 557.5,64.1667 557.5,62.5 Z"/></g>
<g><path style="opacity:0.651" fill="#eec6c9" d="M 168.5,65.5 C 168.027,66.9063 167.027,67.573 165.5,67.5C 165.973,66.0937 166.973,65.427 168.5,65.5 Z"/></g>
<g><path style="opacity:0.086" fill="#f0e4d8" d="M 195.5,65.5 C 196.833,65.5 197.5,66.1667 197.5,67.5C 197.5,66.1667 196.833,65.5 195.5,65.5 Z"/></g>
<g><path style="opacity:1" fill="#b1bfed" d="M 409.5,59.5 C 411.514,59.3915 413.18,60.0582 414.5,61.5C 415.768,65.0606 415.434,68.3939 413.5,71.5C 413.665,68.4816 413.498,65.4816 413,62.5C 411.855,61.3636 410.688,60.3636 409.5,59.5 Z"/></g>
<g><path style="opacity:0.016" fill="#f6fff3" d="M 515.5,66.5 C 516.833,67.1667 516.833,67.1667 515.5,66.5 Z"/></g>
<g><path style="opacity:0.051" fill="#cadef3" d="M 278.5,59.5 C 279.748,60.3339 280.415,61.6672 280.5,63.5C 281.099,66.8862 279.766,68.8862 276.5,69.5C 279.528,66.6697 280.195,63.3364 278.5,59.5 Z"/></g>
<g><path style="opacity:0.141" fill="#c7d2ed" d="M 479.5,70.5 C 477.967,69.5691 476.3,68.9024 474.5,68.5C 470.626,69.9411 466.959,71.6077 463.5,73.5C 463.833,72.8333 464.167,72.1667 464.5,71.5C 467.348,69.505 470.514,68.1716 474,67.5C 475.5,67.6667 477,67.8333 478.5,68C 479.252,68.6708 479.586,69.5041 479.5,70.5 Z"/></g>
<g><path style="opacity:0.035" fill="#fac7c3" d="M 105.5,65.5 C 105.741,67.8984 105.074,69.8984 103.5,71.5C 103.259,69.1016 103.926,67.1016 105.5,65.5 Z"/></g>
<g><path style="opacity:1" fill="#4e6ad0" d="M 313.5,60.5 C 314.167,60.5 314.5,60.8333 314.5,61.5C 314.194,64.3854 314.527,67.0521 315.5,69.5C 315.631,70.3764 315.298,71.0431 314.5,71.5C 313.511,67.8927 313.177,64.226 313.5,60.5 Z"/></g>
<g><path style="opacity:0.51" fill="#aec0e4" d="M 371.5,67.5 C 372.167,67.5 372.833,67.5 373.5,67.5C 373.5,68.8333 372.833,69.5 371.5,69.5C 371.5,68.8333 371.5,68.1667 371.5,67.5 Z"/></g>
<g><path style="opacity:1" fill="#9ba9e7" d="M 519.5,67.5 C 518.145,70.1882 516.145,72.1882 513.5,73.5C 514.167,70.1667 516.167,68.1667 519.5,67.5 Z"/></g>
<g><path style="opacity:0.051" fill="#c9d8ef" d="M 547.5,69.5 C 544.661,69.9688 541.995,69.9688 539.5,69.5C 542.243,66.9405 544.91,66.9405 547.5,69.5 Z"/></g>
<g><path style="opacity:1" fill="#a2b1f8" d="M 302.5,61.5 C 302.666,65.5138 302.499,69.5138 302,73.5C 301.902,76.5224 301.068,79.1891 299.5,81.5C 300.395,78.2617 300.395,75.0951 299.5,72C 302.167,71.3333 302.167,70.6667 299.5,70C 301.041,67.3229 302.041,64.4896 302.5,61.5 Z"/></g>
<g><path style="opacity:0.016" fill="#fefff3" d="M 353.5,69.5 C 355.337,69.6395 355.67,70.3061 354.5,71.5C 353.702,71.0431 353.369,70.3764 353.5,69.5 Z"/></g>
<g><path style="opacity:1" fill="#7b8dd1" d="M 392.5,70.5 C 393.449,69.8476 394.615,69.5143 396,69.5C 397.681,69.6083 398.848,70.2749 399.5,71.5C 397.283,70.6314 394.95,70.298 392.5,70.5 Z"/></g>
<g><path style="opacity:0.404" fill="#bed0f6" d="M 439.5,67.5 C 439.34,69.153 438.674,70.4863 437.5,71.5C 437.229,69.6203 437.896,68.287 439.5,67.5 Z"/></g>
<g><path style="opacity:0.227" fill="#d7dcf4" d="M 539.5,69.5 C 538.22,70.9313 536.553,71.5979 534.5,71.5C 535.78,70.0687 537.447,69.4021 539.5,69.5 Z"/></g>
<g><path style="opacity:1" fill="#e7c0bd" d="M 91.5,67.5 C 91.7406,69.8984 91.0739,71.8984 89.5,73.5C 89.2594,71.1016 89.9261,69.1016 91.5,67.5 Z"/></g>
<g><path style="opacity:1" fill="#ef9a97" d="M 165.5,67.5 C 163.72,70.2901 161.387,72.2901 158.5,73.5C 160.234,70.7631 162.568,68.7631 165.5,67.5 Z"/></g>
<g><path style="opacity:0.282" fill="#bddaee" d="M 276.5,69.5 C 276.167,70.1667 275.833,70.8333 275.5,71.5C 274.5,71.5 273.5,71.5 272.5,71.5C 273.287,69.8958 274.62,69.2291 276.5,69.5 Z"/></g>
<g><path style="opacity:1" fill="#2448f8" d="M 327.5,59.5 C 327.833,59.5 328.167,59.5 328.5,59.5C 332.167,59.5 335.833,59.5 339.5,59.5C 340.5,59.5 341.5,59.5 342.5,59.5C 345.5,61.8333 348.167,64.5 350.5,67.5C 351.156,68.6216 351.489,69.9549 351.5,71.5C 351.639,73.8825 350.972,75.8825 349.5,77.5C 345.065,79.2053 341.065,78.5386 337.5,75.5C 336.662,75.1583 336.328,74.4916 336.5,73.5C 335.848,72.2749 334.681,71.6083 333,71.5C 330.992,71.3068 329.492,71.9735 328.5,73.5C 327.5,74.1667 326.5,74.8333 325.5,75.5C 323.973,75.427 322.973,76.0937 322.5,77.5C 321.167,77.5 320.5,78.1667 320.5,79.5C 320.167,80.5 319.5,81.1667 318.5,81.5C 316.738,82.2623 315.738,83.5956 315.5,85.5C 314.167,85.5 313.5,86.1667 313.5,87.5C 313.672,88.4916 313.338,89.1583 312.5,89.5C 311.662,89.8417 311.328,90.5084 311.5,91.5C 311.5,91.8333 311.5,92.1667 311.5,92.5C 310.833,92.8333 310.167,93.1667 309.5,93.5C 309.539,92.4168 309.873,91.4168 310.5,90.5C 307.787,89.0521 305.787,89.7188 304.5,92.5C 305.5,93.1667 306.5,93.8333 307.5,94.5C 305.833,95.8333 304.167,95.8333 302.5,94.5C 303.085,91.4973 303.752,88.4973 304.5,85.5C 305.935,87.4011 307.602,87.7345 309.5,86.5C 310.881,84.3651 311.881,82.0318 312.5,79.5C 313.167,80.1667 313.833,80.8333 314.5,81.5C 315.43,78.6384 317.097,76.305 319.5,74.5C 318.368,72.5106 317.035,70.8439 315.5,69.5C 316.5,68.1667 317.5,66.8333 318.5,65.5C 319.222,64.4489 320.222,63.7822 321.5,63.5C 322.71,63.0679 323.71,62.4013 324.5,61.5C 326.027,61.573 327.027,60.9063 327.5,59.5 Z"/></g>
<g><path style="opacity:0.718" fill="#c1d3f6" d="M 371.5,69.5 C 370.5,71.1667 369.167,72.5 367.5,73.5C 367.833,71.1667 369.167,69.8333 371.5,69.5 Z"/></g>
<g><path style="opacity:0.212" fill="#bed2f2" d="M 547.5,69.5 C 549.027,69.427 550.027,70.0937 550.5,71.5C 548.821,71.7148 547.821,71.0481 547.5,69.5 Z"/></g>
<g><path style="opacity:0.192" fill="#d5ecf1" d="M 556.5,69.5 C 558.031,70.9245 557.698,71.5912 555.5,71.5C 555.328,70.5084 555.662,69.8417 556.5,69.5 Z"/></g>
<g><path style="opacity:0.046" fill="#f2fefa" d="M 154.5,70.5 C 155.713,71.4971 155.546,72.4971 154,73.5C 153.53,72.4232 153.697,71.4232 154.5,70.5 Z"/></g>
<g><path style="opacity:0.016" fill="#fdfff3" d="M 203.5,71.5 C 205.337,71.6395 205.67,72.3061 204.5,73.5C 203.702,73.0431 203.369,72.3764 203.5,71.5 Z"/></g>
<g><path style="opacity:0.086" fill="#dfdbf8" d="M 217.5,70.5 C 217.629,72.2161 217.962,73.8828 218.5,75.5C 218.167,75.5 217.833,75.5 217.5,75.5C 216.28,73.7163 216.28,72.0496 217.5,70.5 Z"/></g>
<g><path style="opacity:1" fill="#0e43fa" d="M 236.5,51.5 C 238.737,52.449 241.071,53.1156 243.5,53.5C 243.672,55.4918 243.005,57.1585 241.5,58.5C 242.689,59.4287 244.022,59.762 245.5,59.5C 245.025,62.0821 245.692,64.0821 247.5,65.5C 246.209,66.4728 246.209,67.4728 247.5,68.5C 245.283,69.7754 242.949,70.7754 240.5,71.5C 237.585,69.7579 236.251,70.4246 236.5,73.5C 240.335,74.0035 240.335,75.0035 236.5,76.5C 237.251,78.9963 238.251,81.3296 239.5,83.5C 237.718,84.7196 235.718,85.3862 233.5,85.5C 234.108,92.8753 235.108,100.209 236.5,107.5C 236.32,108.554 235.987,109.554 235.5,110.5C 240.363,112.675 239.697,113.675 233.5,113.5C 233.386,115.718 232.72,117.718 231.5,119.5C 230.5,119.5 229.5,119.5 228.5,119.5C 228.34,117.847 227.674,116.514 226.5,115.5C 224.234,107.265 223.901,98.9321 225.5,90.5C 225.5,89.8333 225.5,89.1667 225.5,88.5C 226.924,86.4855 227.59,84.1522 227.5,81.5C 227.5,80.1667 226.833,79.5 225.5,79.5C 223.192,78.2072 220.858,76.8739 218.5,75.5C 217.962,73.8828 217.629,72.2161 217.5,70.5C 217.5,70.1667 217.5,69.8333 217.5,69.5C 218.922,69.2504 219.922,68.417 220.5,67C 224.688,66.8238 228.688,66.3238 232.5,65.5C 234.812,61.2171 236.145,56.5505 236.5,51.5 Z"/></g>
<g><path style="opacity:0.631" fill="#c3cfe8" d="M 270.5,71.5 C 268.374,72.7299 266.208,74.0633 264,75.5C 262.989,74.9444 262.156,74.2778 261.5,73.5C 264.171,71.8819 267.171,71.2153 270.5,71.5 Z"/></g>
<g><path style="opacity:0.016" fill="#fefff3" d="M 275.5,71.5 C 277.337,71.6395 277.67,72.3061 276.5,73.5C 275.702,73.0431 275.369,72.3764 275.5,71.5 Z"/></g>
<g><path style="opacity:0.016" fill="#fefff3" d="M 279.5,71.5 C 281.337,71.6395 281.67,72.3061 280.5,73.5C 279.702,73.0431 279.369,72.3764 279.5,71.5 Z"/></g>
<g><path style="opacity:0.58" fill="#b4c6e7" d="M 336.5,73.5 C 334.043,73.2077 331.376,73.2077 328.5,73.5C 329.492,71.9735 330.992,71.3068 333,71.5C 334.681,71.6083 335.848,72.2749 336.5,73.5 Z"/></g>
<g><path style="opacity:0.038" fill="#fcfff0" d="M 435.5,73.5 C 433.663,73.3605 433.33,72.6939 434.5,71.5C 435.298,71.9569 435.631,72.6236 435.5,73.5 Z"/></g>
<g><path style="opacity:0.016" fill="#f9fff3" d="M 475.5,72.5 C 475.897,71.475 476.563,71.3083 477.5,72C 476.906,72.4643 476.239,72.631 475.5,72.5 Z"/></g>
<g><path style="opacity:1" fill="#f6f9fb" d="M 392.5,70.5 C 394.95,70.298 397.283,70.6314 399.5,71.5C 398.865,83.4147 394.198,93.4147 385.5,101.5C 380.584,106.929 374.751,110.929 368,113.5C 366.566,113.138 365.399,112.472 364.5,111.5C 363.775,102.337 366.109,94.0035 371.5,86.5C 376.251,80.7451 381.584,75.7451 387.5,71.5C 389.216,71.3713 390.883,71.038 392.5,70.5 Z"/></g>
<g><path style="opacity:1" fill="#6473e0" d="M 464.5,71.5 C 464.167,72.1667 463.833,72.8333 463.5,73.5C 462.5,74.1667 461.5,74.8333 460.5,75.5C 460.525,72.821 461.858,71.4877 464.5,71.5 Z"/></g>
<g><path style="opacity:0.086" fill="#e1ecf3" d="M 550.5,71.5 C 552.167,71.5 553.833,71.5 555.5,71.5C 553.704,74.0479 552.038,74.0479 550.5,71.5 Z"/></g>
<g><path style="opacity:0.086" fill="#fcffeb" d="M 359.5,73.5 C 361.337,73.6395 361.67,74.3061 360.5,75.5C 359.702,75.0431 359.369,74.3764 359.5,73.5 Z"/></g>
<g><path style="opacity:0.035" fill="#deecfc" d="M 364.5,74.5 C 365.209,73.596 366.209,73.2627 367.5,73.5C 367.167,74.5 366.5,75.1667 365.5,75.5C 365.5,74.8333 365.167,74.5 364.5,74.5 Z"/></g>
<g><path style="opacity:0.025" fill="#fbfdf2" d="M 467.5,73.5 C 470.001,73.5109 470.168,74.1776 468,75.5C 467.536,74.9056 467.369,74.2389 467.5,73.5 Z"/></g>
<g><path style="opacity:0.025" fill="#dfe5f0" d="M 534.5,71.5 C 534.029,72.9008 533.362,74.2342 532.5,75.5C 531.274,74.6371 529.94,74.6371 528.5,75.5C 529.964,73.3703 531.964,72.037 534.5,71.5 Z"/></g>
<g><path style="opacity:0.016" fill="#f3fffd" d="M 545.5,74.5 C 546.077,73.2267 546.743,73.2267 547.5,74.5C 547.03,75.463 546.363,75.463 545.5,74.5 Z"/></g>
<g><path style="opacity:0.043" fill="#dae8fa" d="M 261.5,73.5 C 261.389,74.1174 261.056,74.6174 260.5,75C 258.527,75.4955 256.527,75.6621 254.5,75.5C 256.599,74.3882 258.933,73.7215 261.5,73.5 Z"/></g>
<g><path style="opacity:0.035" fill="#fafbf0" d="M 433.5,74.5 C 434.833,75.1667 434.833,75.1667 433.5,74.5 Z"/></g>
<g><path style="opacity:0.192" fill="#afbdf4" d="M 437.5,72.5 C 436.583,77.2053 434.917,81.5386 432.5,85.5C 432.389,84.8826 432.056,84.3826 431.5,84C 433.712,80.8664 435.046,77.3664 435.5,73.5C 436.167,73.1667 436.833,72.8333 437.5,72.5 Z"/></g>
<g><path style="opacity:0.122" fill="#cbe2f3" d="M 513.5,73.5 C 513.573,75.0269 512.906,76.0269 511.5,76.5C 511.285,74.8212 511.952,73.8212 513.5,73.5 Z"/></g>
<g><path style="opacity:1" fill="#fbf2f1" d="M 183.5,73.5 C 184.893,75.2837 185.393,77.2837 185,79.5C 181.741,84.3042 177.241,86.9709 171.5,87.5C 169.214,87.595 167.214,88.2616 165.5,89.5C 164.167,89.5 162.833,89.5 161.5,89.5C 161.5,88.8333 161.5,88.1667 161.5,87.5C 164.598,83.2328 168.265,79.3995 172.5,76C 175.907,74.0651 179.574,73.2318 183.5,73.5 Z"/></g>
<g><path style="opacity:0.016" fill="#f5fbf3" d="M 217.5,75.5 C 216.833,76.1667 216.833,76.1667 217.5,75.5 Z"/></g>
<g><path style="opacity:0.035" fill="#f0f9fa" d="M 327.5,75.5 C 328.833,76.1667 328.833,76.1667 327.5,75.5 Z"/></g>
<g><path style="opacity:0.035" fill="#f1fffb" d="M 334.5,76.5 C 333.833,75.1667 333.833,75.1667 334.5,76.5 Z"/></g>
<g><path style="opacity:0.071" fill="#cfe1f4" d="M 364.5,74.5 C 365.167,74.5 365.5,74.8333 365.5,75.5C 365.573,77.0269 364.906,78.0269 363.5,78.5C 363.232,76.901 363.566,75.5676 364.5,74.5 Z"/></g>
<g><path style="opacity:0.843" fill="#a9b5e5" d="M 460.5,75.5 C 460.027,76.9063 459.027,77.573 457.5,77.5C 457.821,75.9519 458.821,75.2852 460.5,75.5 Z"/></g>
<g><path style="opacity:1" fill="#fa2621" d="M 95.5,55.5 C 97.604,55.2011 99.604,55.5344 101.5,56.5C 103.007,60.3548 103.674,60.0214 103.5,55.5C 105.167,55.5 106.833,55.5 108.5,55.5C 108.768,57.099 108.434,58.4324 107.5,59.5C 105.926,61.1016 105.259,63.1016 105.5,65.5C 103.926,67.1016 103.259,69.1016 103.5,71.5C 102.789,77.0114 101.455,82.3447 99.5,87.5C 97.6578,91.1586 96.6578,95.1586 96.5,99.5C 96.1667,99.5 95.8333,99.5 95.5,99.5C 95.5,97.5 95.5,95.5 95.5,93.5C 90.8093,92.8093 88.1426,90.1426 87.5,85.5C 87.5,84.8333 87.5,84.1667 87.5,83.5C 87.5,82.8333 87.5,82.1667 87.5,81.5C 89.1628,79.5615 89.8294,77.2282 89.5,74.5C 89.5,74.1667 89.5,73.8333 89.5,73.5C 91.0739,71.8984 91.7406,69.8984 91.5,67.5C 91.2322,65.901 91.5655,64.5676 92.5,63.5C 93.4878,60.9239 94.4878,58.2572 95.5,55.5 Z"/></g>
<g><path style="opacity:1" fill="#ffaca9" d="M 197.5,67.5 C 200.802,72.0089 201.135,76.6755 198.5,81.5C 198.563,76.7971 198.229,72.1304 197.5,67.5 Z"/></g>
<g><path style="opacity:0.384" fill="#b6d0f4" d="M 254.5,75.5 C 251.877,77.2655 248.877,77.9321 245.5,77.5C 248.123,75.7345 251.123,75.0679 254.5,75.5 Z"/></g>
<g><path style="opacity:0.016" fill="#dce4f8" d="M 325.5,75.5 C 325.027,76.9063 324.027,77.573 322.5,77.5C 322.973,76.0937 323.973,75.427 325.5,75.5 Z"/></g>
<g><path style="opacity:0.016" fill="#f4fff3" d="M 327.5,76.5 C 326.833,77.1667 326.833,77.1667 327.5,76.5 Z"/></g>
<g><path style="opacity:0.016" fill="#f3fff9" d="M 334.5,76.5 C 335.833,77.1667 335.833,77.1667 334.5,76.5 Z"/></g>
<g><path style="opacity:0.51" fill="#c9d7f5" d="M 413.5,71.5 C 413.721,72.7348 414.388,73.7348 415.5,74.5C 414.675,75.3857 413.675,75.719 412.5,75.5C 412.768,77.099 412.434,78.4324 411.5,79.5C 411.111,76.4467 411.777,73.78 413.5,71.5 Z"/></g>
<g><path style="opacity:0.016" fill="#fefff3" d="M 209.5,77.5 C 211.337,77.6395 211.67,78.3061 210.5,79.5C 209.702,79.0431 209.369,78.3764 209.5,77.5 Z"/></g>
<g><path style="opacity:0.016" fill="#f7f9f3" d="M 219.5,77.5 C 218.833,78.1667 218.833,78.1667 219.5,77.5 Z"/></g>
<g><path style="opacity:0.016" fill="#fefef2" d="M 331.5,77.5 C 333.337,77.6395 333.67,78.3061 332.5,79.5C 331.702,79.0431 331.369,78.3764 331.5,77.5 Z"/></g>
<g><path style="opacity:0.298" fill="#bccaf3" d="M 337.5,75.5 C 341.065,78.5386 345.065,79.2053 349.5,77.5C 349.389,78.1174 349.056,78.6174 348.5,79C 345.833,79.6667 343.167,79.6667 340.5,79C 338.574,78.5776 337.574,77.4109 337.5,75.5 Z"/></g>
<g><path style="opacity:0.016" fill="#fefcf2" d="M 360.5,78.5 C 359.833,77.1667 359.833,77.1667 360.5,78.5 Z"/></g>
<g><path style="opacity:0.035" fill="#fafdf1" d="M 532.5,77.5 C 533.833,78.1667 533.833,78.1667 532.5,77.5 Z"/></g>
<g><path style="opacity:1" fill="#f2a3aa" d="M 89.5,74.5 C 89.8294,77.2282 89.1628,79.5615 87.5,81.5C 87.4095,78.8478 88.0762,76.5145 89.5,74.5 Z"/></g>
<g><path style="opacity:0.176" fill="#bbcff3" d="M 218.5,75.5 C 220.858,76.8739 223.192,78.2072 225.5,79.5C 223.142,79.7475 221.142,79.0808 219.5,77.5C 219.167,76.8333 218.833,76.1667 218.5,75.5 Z"/></g>
<g><path style="opacity:0.071" fill="#d2e3f2" d="M 322.5,77.5 C 323.66,79.2027 322.993,79.8693 320.5,79.5C 320.5,78.1667 321.167,77.5 322.5,77.5 Z"/></g>
<g><path style="opacity:0.016" fill="#f3fffa" d="M 335.5,78.5 C 336.833,79.1667 336.833,79.1667 335.5,78.5 Z"/></g>
<g><path style="opacity:0.035" fill="#fcfaf0" d="M 360.5,78.5 C 361.167,78.5 361.5,78.8333 361.5,79.5C 361.167,79.1667 360.833,78.8333 360.5,78.5 Z"/></g>
<g><path style="opacity:0.035" fill="#cddef0" d="M 457.5,77.5 C 457.5,78.8333 456.833,79.5 455.5,79.5C 455.5,78.1667 456.167,77.5 457.5,77.5 Z"/></g>
<g><path style="opacity:0.016" fill="#f3fefc" d="M 144.5,79.5 C 145.833,80.1667 145.833,80.1667 144.5,79.5 Z"/></g>
<g><path style="opacity:1" fill="#f71119" d="M 190.5,63.5 C 190.5,64.8333 190.5,66.1667 190.5,67.5C 189.5,67.5 188.5,67.5 187.5,67.5C 187.325,70.3289 188.658,71.9955 191.5,72.5C 192.684,74.0461 193.684,75.7127 194.5,77.5C 196.675,72.6367 197.675,73.3034 197.5,79.5C 195.738,79.3573 194.071,79.6906 192.5,80.5C 190.578,79.04 189.911,77.3733 190.5,75.5C 189.686,77.7662 189.186,80.0995 189,82.5C 187.506,83.7472 186.006,83.7472 184.5,82.5C 186.26,79.7877 186.927,76.7877 186.5,73.5C 185.5,73.5 184.5,73.5 183.5,73.5C 179.574,73.2318 175.907,74.0651 172.5,76C 168.265,79.3995 164.598,83.2328 161.5,87.5C 161.261,85.5328 161.594,83.6995 162.5,82C 158.564,81.3989 155.564,82.8989 153.5,86.5C 155.005,87.8415 155.672,89.5082 155.5,91.5C 153.027,91.264 151.36,89.9307 150.5,87.5C 148.889,88.3202 148.222,89.6536 148.5,91.5C 147.5,91.5 146.5,91.5 145.5,91.5C 146.6,90.3951 147.267,89.0618 147.5,87.5C 149.822,86.1979 151.155,84.1979 151.5,81.5C 153.026,80.8953 154.026,79.7286 154.5,78C 155.448,77.5172 156.448,77.3505 157.5,77.5C 157.433,76.0413 157.766,74.7079 158.5,73.5C 161.387,72.2901 163.72,70.2901 165.5,67.5C 167.027,67.573 168.027,66.9063 168.5,65.5C 170.38,65.7709 171.713,65.1042 172.5,63.5C 172.833,63.5 173.167,63.5 173.5,63.5C 179.175,62.2317 184.842,62.2317 190.5,63.5 Z"/></g>
<g><path style="opacity:0.016" fill="#fefdf3" d="M 465.5,79.5 C 467.337,79.6395 467.67,80.3061 466.5,81.5C 465.702,81.0431 465.369,80.3764 465.5,79.5 Z"/></g>
<g><path style="opacity:0.122" fill="#c8d7f7" d="M 528.5,75.5 C 525.968,77.8424 525.301,80.5091 526.5,83.5C 525.12,83.0377 524.453,82.0377 524.5,80.5C 525.046,78.8653 525.38,77.1986 525.5,75.5C 526.5,75.5 527.5,75.5 528.5,75.5 Z"/></g>
<g><path style="opacity:1" fill="#f39c94" d="M 158.5,73.5 C 157.766,74.7079 157.433,76.0413 157.5,77.5C 156.448,77.3505 155.448,77.5172 154.5,78C 154.026,79.7286 153.026,80.8953 151.5,81.5C 152.431,77.5713 154.764,74.9047 158.5,73.5 Z"/></g>
<g><path style="opacity:0.016" fill="#dbe9f3" d="M 245.5,77.5 C 243.833,78.5 242.5,79.8333 241.5,81.5C 241.5,80.1667 241.5,78.8333 241.5,77.5C 242.833,77.5 244.167,77.5 245.5,77.5 Z"/></g>
<g><path style="opacity:0.824" fill="#a2b4fc" d="M 363.5,78.5 C 363.573,80.0269 362.906,81.0269 361.5,81.5C 361.5,80.8333 361.5,80.1667 361.5,79.5C 362.167,79.1667 362.833,78.8333 363.5,78.5 Z"/></g>
<g><path style="opacity:0.247" fill="#bacef3" d="M 455.5,79.5 C 455.027,80.9063 454.027,81.573 452.5,81.5C 452.973,80.0937 453.973,79.427 455.5,79.5 Z"/></g>
<g><path style="opacity:1" fill="#c9d5ec" d="M 479.5,77.5 C 479.741,79.8984 479.074,81.8984 477.5,83.5C 476.086,80.8837 476.752,78.8837 479.5,77.5 Z"/></g>
<g><path style="opacity:0.051" fill="#eef9f9" d="M 147.5,81.5 C 148.833,82.1667 148.833,82.1667 147.5,81.5 Z"/></g>
<g><path style="opacity:0.016" fill="#fefff2" d="M 259.5,81.5 C 261.337,81.6395 261.67,82.3061 260.5,83.5C 259.702,83.0431 259.369,82.3764 259.5,81.5 Z"/></g>
<g><path style="opacity:0.016" fill="#fdfef3" d="M 473.5,81.5 C 474.833,82.1667 474.833,82.1667 473.5,81.5 Z"/></g>
<g><path style="opacity:0.016" fill="#fef3fc" d="M 144.5,82.5 C 145.833,83.1667 145.833,83.1667 144.5,82.5 Z"/></g>
<g><path style="opacity:0.086" fill="#d4e5f7" d="M 318.5,81.5 C 318.5,82.1667 318.5,82.8333 318.5,83.5C 317.5,84.1667 316.5,84.8333 315.5,85.5C 315.738,83.5956 316.738,82.2623 318.5,81.5 Z"/></g>
<g><path style="opacity:0.086" fill="#cde0ec" d="M 452.5,81.5 C 452.5,82.8333 451.833,83.5 450.5,83.5C 450.833,82.5 451.5,81.8333 452.5,81.5 Z"/></g>
<g><path style="opacity:0.369" fill="#bbd2f6" d="M 493.5,77.5 C 493.741,79.8984 493.074,81.8984 491.5,83.5C 491.259,81.1016 491.926,79.1016 493.5,77.5 Z"/></g>
<g><path style="opacity:0.016" fill="#f9fff3" d="M 537.5,83.5 C 537.897,82.475 538.563,82.3083 539.5,83C 538.906,83.4643 538.239,83.631 537.5,83.5 Z"/></g>
<g><path style="opacity:0.016" fill="#fcfaf2" d="M 318.5,83.5 C 319.833,84.1667 319.833,84.1667 318.5,83.5 Z"/></g>
<g><path style="opacity:1" fill="#1c47f6" d="M 375.5,65.5 C 375.833,65.5 376.167,65.5 376.5,65.5C 376.833,65.5 377.167,65.5 377.5,65.5C 378.801,66.8816 379.634,68.5483 380,70.5C 380.333,70.1667 380.667,69.8333 381,69.5C 382.789,71.229 384.956,71.8957 387.5,71.5C 381.584,75.7451 376.251,80.7451 371.5,86.5C 366.109,94.0035 363.775,102.337 364.5,111.5C 363.378,107.334 362.378,103.001 361.5,98.5C 361.833,96.8333 362.167,95.1667 362.5,93.5C 365.511,91.8226 367.844,89.4892 369.5,86.5C 368.311,85.5713 366.978,85.238 365.5,85.5C 365.5,86.8333 365.5,88.1667 365.5,89.5C 363.5,89.5 361.5,89.5 359.5,89.5C 359.82,92.8984 359.487,96.2317 358.5,99.5C 357.095,96.9292 355.762,96.9292 354.5,99.5C 354.5,98.1667 354.5,96.8333 354.5,95.5C 355.744,93.3366 356.744,91.0033 357.5,88.5C 357.5,88.1667 357.5,87.8333 357.5,87.5C 358.906,87.0269 359.573,86.0269 359.5,84.5C 360.598,83.603 360.598,82.7697 359.5,82C 360.094,81.5357 360.761,81.369 361.5,81.5C 362.906,81.0269 363.573,80.0269 363.5,78.5C 364.906,78.0269 365.573,77.0269 365.5,75.5C 366.5,75.1667 367.167,74.5 367.5,73.5C 369.167,72.5 370.5,71.1667 371.5,69.5C 372.833,69.5 373.5,68.8333 373.5,67.5C 374.5,67.1667 375.167,66.5 375.5,65.5 Z"/></g>
<g><path style="opacity:0.016" fill="#fdfff3" d="M 461.5,83.5 C 463.337,83.6395 463.67,84.3061 462.5,85.5C 461.702,85.0431 461.369,84.3764 461.5,83.5 Z"/></g>
<g><path style="opacity:0.016" fill="#fefaf3" d="M 531.5,83.5 C 532.833,84.1667 532.833,84.1667 531.5,83.5 Z"/></g>
<g><path style="opacity:0.016" fill="#fefff3" d="M 555.5,83.5 C 557.337,83.6395 557.67,84.3061 556.5,85.5C 555.702,85.0431 555.369,84.3764 555.5,83.5 Z"/></g>
<g><path style="opacity:0.016" fill="#f3fffe" d="M 143.5,84.5 C 144.833,85.1667 144.833,85.1667 143.5,84.5 Z"/></g>
<g><path style="opacity:0.051" fill="#fbdcd4" d="M 198.5,81.5 C 198.843,83.4832 198.176,84.8166 196.5,85.5C 196.989,84.0048 197.655,82.6715 198.5,81.5 Z"/></g>
<g><path style="opacity:0.035" fill="#dce8f9" d="M 241.5,81.5 C 241.721,82.7348 242.388,83.7348 243.5,84.5C 241.993,85.3886 240.66,86.3886 239.5,87.5C 239.5,86.1667 239.5,84.8333 239.5,83.5C 240.167,82.8333 240.833,82.1667 241.5,81.5 Z"/></g>
<g><path style="opacity:0.071" fill="#dbeff6" d="M 450.5,83.5 C 450.368,86.0069 449.368,86.6736 447.5,85.5C 448.29,84.5987 449.29,83.9321 450.5,83.5 Z"/></g>
<g><path style="opacity:0.369" fill="#cddef2" d="M 527.5,83.5 C 528.959,83.4326 530.292,83.7659 531.5,84.5C 531.5,84.8333 531.5,85.1667 531.5,85.5C 529.62,85.7709 528.287,85.1042 527.5,83.5 Z"/></g>
<g><path style="opacity:1" fill="#f9a29e" d="M 151.5,81.5 C 151.155,84.1979 149.822,86.1979 147.5,87.5C 148.298,85.0337 149.631,83.0337 151.5,81.5 Z"/></g>
<g><path style="opacity:0.016" fill="#fefff3" d="M 261.5,85.5 C 263.337,85.6395 263.67,86.3061 262.5,87.5C 261.702,87.0431 261.369,86.3764 261.5,85.5 Z"/></g>
<g><path style="opacity:0.035" fill="#f1fef9" d="M 454.5,86.5 C 453.833,85.1667 453.833,85.1667 454.5,86.5 Z"/></g>
<g><path style="opacity:0.282" fill="#c8e0f2" d="M 531.5,85.5 C 533.38,85.2291 534.713,85.8958 535.5,87.5C 534.833,87.5 534.167,87.5 533.5,87.5C 532.833,86.8333 532.167,86.1667 531.5,85.5 Z"/></g>
<g><path style="opacity:0.016" fill="#fefff3" d="M 551.5,85.5 C 553.337,85.6395 553.67,86.3061 552.5,87.5C 551.702,87.0431 551.369,86.3764 551.5,85.5 Z"/></g>
<g><path style="opacity:1" fill="#f8171c" d="M 190.5,63.5 C 190.833,63.5 191.167,63.5 191.5,63.5C 193.199,63.5271 194.533,64.1938 195.5,65.5C 195.5,66.8333 196.167,67.5 197.5,67.5C 198.229,72.1304 198.563,76.7971 198.5,81.5C 197.655,82.6715 196.989,84.0048 196.5,85.5C 196.672,86.4916 196.338,87.1583 195.5,87.5C 192.545,89.1223 189.878,91.1223 187.5,93.5C 185.847,93.6596 184.514,94.3263 183.5,95.5C 181.302,95.1201 179.635,95.7868 178.5,97.5C 176.214,97.595 174.214,98.2616 172.5,99.5C 171.833,99.5 171.167,99.5 170.5,99.5C 169.833,99.5 169.167,99.5 168.5,99.5C 168.48,96.3939 167.48,93.3939 165.5,90.5C 163.901,90.7678 162.568,90.4345 161.5,89.5C 162.833,89.5 164.167,89.5 165.5,89.5C 168.01,89.9465 170.01,89.2798 171.5,87.5C 177.241,86.9709 181.741,84.3042 185,79.5C 185.393,77.2837 184.893,75.2837 183.5,73.5C 184.5,73.5 185.5,73.5 186.5,73.5C 186.927,76.7877 186.26,79.7877 184.5,82.5C 186.006,83.7472 187.506,83.7472 189,82.5C 189.186,80.0995 189.686,77.7662 190.5,75.5C 189.911,77.3733 190.578,79.04 192.5,80.5C 194.071,79.6906 195.738,79.3573 197.5,79.5C 197.675,73.3034 196.675,72.6367 194.5,77.5C 193.684,75.7127 192.684,74.0461 191.5,72.5C 188.658,71.9955 187.325,70.3289 187.5,67.5C 188.5,67.5 189.5,67.5 190.5,67.5C 190.5,66.1667 190.5,64.8333 190.5,63.5 Z"/></g>
<g><path style="opacity:0.49" fill="#b8cbf5" d="M 227.5,81.5 C 227.59,84.1522 226.924,86.4855 225.5,88.5C 225.171,85.7718 225.837,83.4385 227.5,81.5 Z"/></g>
<g><path style="opacity:0.016" fill="#d2dff4" d="M 315.5,85.5 C 315.5,86.8333 314.833,87.5 313.5,87.5C 313.5,86.1667 314.167,85.5 315.5,85.5 Z"/></g>
<g><path style="opacity:0.282" fill="#ced4fc" d="M 359.5,84.5 C 359.573,86.0269 358.906,87.0269 357.5,87.5C 357.427,85.9731 358.094,84.9731 359.5,84.5 Z"/></g>
<g><path style="opacity:0.035" fill="#f1fefd" d="M 454.5,86.5 C 455.167,86.5 455.5,86.8333 455.5,87.5C 455.167,87.1667 454.833,86.8333 454.5,86.5 Z"/></g>
<g><path style="opacity:0.027" fill="#d6e1f3" d="M 447.5,85.5 C 447.5,86.8333 447.5,88.1667 447.5,89.5C 445.57,89.7706 444.236,90.7706 443.5,92.5C 443.584,89.3183 444.917,86.985 447.5,85.5 Z"/></g>
<g><path style="opacity:0.016" fill="#fefff3" d="M 455.5,87.5 C 457.337,87.6395 457.67,88.3061 456.5,89.5C 455.702,89.0431 455.369,88.3764 455.5,87.5 Z"/></g>
<g><path style="opacity:0.016" fill="#fefff2" d="M 465.5,87.5 C 467.337,87.6395 467.67,88.3061 466.5,89.5C 465.702,89.0431 465.369,88.3764 465.5,87.5 Z"/></g>
<g><path style="opacity:0.263" fill="#ccddf9" d="M 477.5,84.5 C 477.598,86.5529 476.931,88.2196 475.5,89.5C 475.402,87.4471 476.069,85.7804 477.5,84.5 Z"/></g>
<g><path style="opacity:0.086" fill="#f9ffec" d="M 549.5,89.5 C 547.663,89.3605 547.33,88.6939 548.5,87.5C 549.298,87.9569 549.631,88.6236 549.5,89.5 Z"/></g>
<g><path style="opacity:1" fill="#f3a2a1" d="M 87.5,83.5 C 87.5,84.1667 87.5,84.8333 87.5,85.5C 86.4597,89.0419 85.1263,92.3752 83.5,95.5C 83.8606,91.0845 85.1939,87.0845 87.5,83.5 Z"/></g>
<g><path style="opacity:1" fill="#d3736f" d="M 171.5,87.5 C 170.01,89.2798 168.01,89.9465 165.5,89.5C 167.214,88.2616 169.214,87.595 171.5,87.5 Z"/></g>
<g><path style="opacity:0.631" fill="#b0c5f6" d="M 410.5,83.5 C 410.41,87.2142 409.41,90.5475 407.5,93.5C 407.59,89.7858 408.59,86.4525 410.5,83.5 Z"/></g>
<g><path style="opacity:1" fill="#94a8df" d="M 535.5,87.5 C 537.698,87.1201 539.365,87.7868 540.5,89.5C 538.302,89.8799 536.635,89.2132 535.5,87.5 Z"/></g>
<g><path style="opacity:0.016" fill="#f6d1d2" d="M 195.5,87.5 C 194.833,88.8333 194.167,90.1667 193.5,91.5C 191.685,92.6298 189.685,93.2964 187.5,93.5C 189.878,91.1223 192.545,89.1223 195.5,87.5 Z"/></g>
<g><path style="opacity:0.076" fill="#fefeec" d="M 277.5,91.5 C 277.639,89.663 278.306,89.3296 279.5,90.5C 279.043,91.2975 278.376,91.6309 277.5,91.5 Z"/></g>
<g><path style="opacity:0.016" fill="#f2fff5" d="M 315.5,89.5 C 316.833,90.1667 316.833,90.1667 315.5,89.5 Z"/></g>
<g><path style="opacity:0.508" fill="#e3e6f0" d="M 357.5,88.5 C 356.744,91.0033 355.744,93.3366 354.5,95.5C 353.85,93.5648 353.517,91.5648 353.5,89.5C 354.959,89.5674 356.292,89.2341 357.5,88.5 Z"/></g>
<g><path style="opacity:0.035" fill="#fbfff0" d="M 447.5,89.5 C 449.337,89.6395 449.67,90.3061 448.5,91.5C 447.702,91.0431 447.369,90.3764 447.5,89.5 Z"/></g>
<g><path style="opacity:0.016" fill="#f8f4fa" d="M 549.5,89.5 C 550.833,90.1667 550.833,90.1667 549.5,89.5 Z"/></g>
<g><path style="opacity:0.616" fill="#adc1f6" d="M 299.5,85.5 C 299.59,88.1522 298.924,90.4855 297.5,92.5C 297.171,89.7718 297.837,87.4385 299.5,85.5 Z"/></g>
<g><path style="opacity:0.122" fill="#dfe9f5" d="M 312.5,89.5 C 314.031,90.9245 313.698,91.5912 311.5,91.5C 311.328,90.5084 311.662,89.8417 312.5,89.5 Z"/></g>
<g><path style="opacity:1" fill="#a8bceb" d="M 431.5,87.5 C 431.741,89.8984 431.074,91.8984 429.5,93.5C 429.259,91.1016 429.926,89.1016 431.5,87.5 Z"/></g>
<g><path style="opacity:0.965" fill="#aec0f8" d="M 490.5,87.5 C 490.405,89.7857 489.738,91.7857 488.5,93.5C 488.259,91.1016 488.926,89.1016 490.5,87.5 Z"/></g>
<g><path style="opacity:0.106" fill="#e1eaf0" d="M 512.5,87.5 C 513.878,88.5451 514.878,89.8784 515.5,91.5C 511.814,91.87 510.814,90.5367 512.5,87.5 Z"/></g>
<g><path style="opacity:0.682" fill="#aec1e3" d="M 540.5,89.5 C 542.38,89.2291 543.713,89.8958 544.5,91.5C 542.62,91.7709 541.287,91.1042 540.5,89.5 Z"/></g>
<g><path style="opacity:0.071" fill="#f9d6d1" d="M 147.5,87.5 C 147.267,89.0618 146.6,90.3951 145.5,91.5C 143.167,91.8333 141.833,93.1667 141.5,95.5C 141.04,98.9371 141.04,102.27 141.5,105.5C 140.431,102.74 139.431,99.9067 138.5,97C 139.525,94.9285 140.358,92.7619 141,90.5C 141.333,90.8333 141.667,91.1667 142,91.5C 143.73,89.9236 145.563,88.5903 147.5,87.5 Z"/></g>
<g><path style="opacity:0.041" fill="#f1fffc" d="M 193.5,91.5 C 195.337,91.6395 195.67,92.3061 194.5,93.5C 193.702,93.0431 193.369,92.3764 193.5,91.5 Z"/></g>
<g><path style="opacity:0.035" fill="#fbfff0" d="M 453.5,91.5 C 455.337,91.6395 455.67,92.3061 454.5,93.5C 453.702,93.0431 453.369,92.3764 453.5,91.5 Z"/></g>
<g><path style="opacity:0.016" fill="#f2fcf6" d="M 197.5,92.5 C 198.833,93.1667 198.833,93.1667 197.5,92.5 Z"/></g>
<g><path style="opacity:1" fill="#a5b6ed" d="M 274.5,89.5 C 275.778,89.7822 276.778,90.4489 277.5,91.5C 277.741,93.8984 277.074,95.8984 275.5,97.5C 275.721,94.7212 275.388,92.0545 274.5,89.5 Z"/></g>
<g><path style="opacity:0.247" fill="#bbc9f5" d="M 475.5,90.5 C 475.5,90.8333 475.5,91.1667 475.5,91.5C 475.573,93.0269 474.906,94.0269 473.5,94.5C 473.229,92.6203 473.896,91.287 475.5,90.5 Z"/></g>
<g><path style="opacity:0.016" fill="#f4fff3" d="M 511.5,92.5 C 512.833,93.1667 512.833,93.1667 511.5,92.5 Z"/></g>
<g><path style="opacity:0.035" fill="#c4d3e9" d="M 515.5,91.5 C 516.833,91.5 517.5,92.1667 517.5,93.5C 516.167,93.5 515.5,92.8333 515.5,91.5 Z"/></g>
<g><path style="opacity:0.282" fill="#ddecf4" d="M 544.5,91.5 C 547.01,91.9907 549.344,92.9907 551.5,94.5C 550.873,95.4168 550.539,96.4168 550.5,97.5C 548.833,95.1667 546.833,93.1667 544.5,91.5 Z"/></g>
<g><path style="opacity:1" fill="#1444fa" d="M 533.5,87.5 C 534.167,87.5 534.833,87.5 535.5,87.5C 536.635,89.2132 538.302,89.8799 540.5,89.5C 541.287,91.1042 542.62,91.7709 544.5,91.5C 546.833,93.1667 548.833,95.1667 550.5,97.5C 550.384,100.86 550.051,104.193 549.5,107.5C 549.672,108.492 549.338,109.158 548.5,109.5C 548.167,109.5 547.833,109.5 547.5,109.5C 544.856,109.16 542.523,109.827 540.5,111.5C 539.744,109.293 538.744,107.96 537.5,107.5C 537.5,105.5 537.5,103.5 537.5,101.5C 536.5,101.5 535.5,101.5 534.5,101.5C 534.027,100.094 533.027,99.427 531.5,99.5C 531.167,99.5 530.833,99.5 530.5,99.5C 529.71,98.5987 528.71,97.9321 527.5,97.5C 528.234,96.2921 528.567,94.9587 528.5,93.5C 523.56,94.3653 519.893,92.6986 517.5,88.5C 518,88.1667 518.5,87.8333 519,87.5C 520.394,89.3875 522.227,90.7209 524.5,91.5C 525.167,90.1667 525.833,88.8333 526.5,87.5C 527.167,88.1667 527.833,88.8333 528.5,89.5C 529.842,87.9951 531.508,87.3285 533.5,87.5 Z"/></g>
<g><path style="opacity:0.596" fill="#f7abaf" d="M 187.5,93.5 C 186.713,95.1042 185.38,95.7709 183.5,95.5C 184.514,94.3263 185.847,93.6596 187.5,93.5 Z"/></g>
<g><path style="opacity:0.718" fill="#aec0f2" d="M 239.5,88.5 C 239.58,91.7814 238.913,94.7814 237.5,97.5C 237.215,94.1709 237.882,91.1709 239.5,88.5 Z"/></g>
<g><path style="opacity:1" fill="#2146f9" d="M 304.5,57.5 C 306.833,57.5 309.167,57.5 311.5,57.5C 313.048,57.8212 313.715,58.8212 313.5,60.5C 313.177,64.226 313.511,67.8927 314.5,71.5C 315.298,71.0431 315.631,70.3764 315.5,69.5C 317.035,70.8439 318.368,72.5106 319.5,74.5C 317.097,76.305 315.43,78.6384 314.5,81.5C 313.833,80.8333 313.167,80.1667 312.5,79.5C 311.881,82.0318 310.881,84.3651 309.5,86.5C 307.602,87.7345 305.935,87.4011 304.5,85.5C 303.752,88.4973 303.085,91.4973 302.5,94.5C 304.167,95.8333 305.833,95.8333 307.5,94.5C 306.5,93.8333 305.5,93.1667 304.5,92.5C 305.787,89.7188 307.787,89.0521 310.5,90.5C 309.873,91.4168 309.539,92.4168 309.5,93.5C 308.58,100.589 307.247,107.589 305.5,114.5C 305.5,114.833 305.5,115.167 305.5,115.5C 305.5,116.167 305.5,116.833 305.5,117.5C 305.5,118.833 305.5,120.167 305.5,121.5C 304.877,123.711 303.877,125.711 302.5,127.5C 300.167,128.833 297.833,128.833 295.5,127.5C 294.4,126.395 293.733,125.062 293.5,123.5C 293.524,118.077 294.19,112.743 295.5,107.5C 295.5,106.167 295.5,104.833 295.5,103.5C 295.43,99.5752 296.097,95.9085 297.5,92.5C 298.924,90.4855 299.59,88.1522 299.5,85.5C 299.5,84.1667 299.5,82.8333 299.5,81.5C 301.068,79.1891 301.902,76.5224 302,73.5C 302.499,69.5138 302.666,65.5138 302.5,61.5C 303.674,60.4863 304.34,59.153 304.5,57.5 Z"/></g>
<g><path style="opacity:0.016" fill="#dbe8f7" d="M 443.5,92.5 C 444.091,93.1515 444.757,93.8182 445.5,94.5C 443.784,95.5487 442.451,96.882 441.5,98.5C 441.595,96.2143 442.262,94.2143 443.5,92.5 Z"/></g>
<g><path style="opacity:0.016" fill="#f2fffa" d="M 489.5,95.5 C 491.337,95.6395 491.67,96.3061 490.5,97.5C 489.702,97.0431 489.369,96.3764 489.5,95.5 Z"/></g>
<g><path style="opacity:0.034" fill="#e7f2f5" d="M 517.5,93.5 C 520.298,94.6497 522.965,95.983 525.5,97.5C 523.669,96.9478 522.003,96.9478 520.5,97.5C 519.476,96.1482 518.476,94.8149 517.5,93.5 Z"/></g>
<g><path style="opacity:0.043" fill="#f9c9cd" d="M 183.5,95.5 C 182.994,98.734 181.328,99.4007 178.5,97.5C 179.635,95.7868 181.302,95.1201 183.5,95.5 Z"/></g>
<g><path style="opacity:1" fill="#b0c3f4" d="M 429.5,93.5 C 429.59,96.1522 428.924,98.4855 427.5,100.5C 427.171,97.7718 427.837,95.4385 429.5,93.5 Z"/></g>
<g><path style="opacity:0.016" fill="#fafff2" d="M 191.5,97.5 C 193.337,97.6395 193.67,98.3061 192.5,99.5C 191.702,99.0431 191.369,98.3764 191.5,97.5 Z"/></g>
<g><path style="opacity:0.212" fill="#b6c6f9" d="M 407.5,94.5 C 407.706,97.4951 407.04,100.162 405.5,102.5C 405.294,99.5049 405.96,96.8383 407.5,94.5 Z"/></g>
<g><path style="opacity:0.016" fill="#fcfff3" d="M 425.5,97.5 C 426.833,98.1667 426.833,98.1667 425.5,97.5 Z"/></g>
<g><path style="opacity:0.404" fill="#bbcff5" d="M 473.5,95.5 C 473.34,97.153 472.674,98.4863 471.5,99.5C 471.229,97.6203 471.896,96.287 473.5,95.5 Z"/></g>
<g><path style="opacity:0.071" fill="#fdd4d6" d="M 99.5,87.5 C 99.0833,91.8346 98.5833,96.1679 98,100.5C 97.6174,99.944 97.1174,99.6107 96.5,99.5C 96.6578,95.1586 97.6578,91.1586 99.5,87.5 Z"/></g>
<g><path style="opacity:0.071" fill="#f9e4e0" d="M 178.5,97.5 C 177.01,99.2798 175.01,99.9465 172.5,99.5C 174.214,98.2616 176.214,97.595 178.5,97.5 Z"/></g>
<g><path style="opacity:1" fill="#9db5f8" d="M 354.5,95.5 C 354.5,96.8333 354.5,98.1667 354.5,99.5C 354.167,99.5 353.833,99.5 353.5,99.5C 351.922,97.6253 352.255,96.2919 354.5,95.5 Z"/></g>
<g><path style="opacity:0.016" fill="#fbfcf3" d="M 470.5,99.5 C 469.833,98.1667 469.833,98.1667 470.5,99.5 Z"/></g>
<g><path style="opacity:0.086" fill="#c3d1fa" d="M 487.5,95.5 C 487.741,97.8984 487.074,99.8984 485.5,101.5C 485.259,99.1016 485.926,97.1016 487.5,95.5 Z"/></g>
<g><path style="opacity:0.033" fill="#d9e8f8" d="M 526.5,97.5 C 526.833,97.5 527.167,97.5 527.5,97.5C 528.71,97.9321 529.71,98.5987 530.5,99.5C 528.517,99.8432 527.183,99.1765 526.5,97.5 Z"/></g>
<g><path style="opacity:0.131" fill="#fcd6d2" d="M 83.5,96.5 C 83.2785,99.0673 82.6118,101.401 81.5,103.5C 81.1706,100.772 81.8372,98.4385 83.5,96.5 Z"/></g>
<g><path style="opacity:0.016" fill="#f5cfd5" d="M 168.5,99.5 C 169.167,99.5 169.833,99.5 170.5,99.5C 170.082,100.222 169.416,100.722 168.5,101C 165.854,101.497 163.187,101.664 160.5,101.5C 162.905,100.232 165.572,99.5651 168.5,99.5 Z"/></g>
<g><path style="opacity:0.42" fill="#bac6f4" d="M 275.5,97.5 C 275.539,100.089 274.539,102.089 272.5,103.5C 272.992,101.181 273.992,99.1815 275.5,97.5 Z"/></g>
<g><path style="opacity:1" fill="#a0abed" d="M 441.5,98.5 C 440.611,103.728 439.278,108.728 437.5,113.5C 437.803,108.751 438.637,104.084 440,99.5C 440.383,98.944 440.883,98.6107 441.5,98.5 Z"/></g>
<g><path style="opacity:0.051" fill="#c7daf0" d="M 531.5,99.5 C 533.027,99.427 534.027,100.094 534.5,101.5C 532.821,101.715 531.821,101.048 531.5,99.5 Z"/></g>
<g><path style="opacity:1" fill="#fa181a" d="M 87.5,85.5 C 88.1426,90.1426 90.8093,92.8093 95.5,93.5C 95.5,95.5 95.5,97.5 95.5,99.5C 93.8534,102.921 93.1868,106.587 93.5,110.5C 93.5,110.833 93.5,111.167 93.5,111.5C 92.4192,114.627 91.7526,117.96 91.5,121.5C 87.0332,123.2 83.0332,122.533 79.5,119.5C 78.2437,117.274 78.2437,114.941 79.5,112.5C 81.0395,110.162 81.7062,107.495 81.5,104.5C 81.5,104.167 81.5,103.833 81.5,103.5C 82.6118,101.401 83.2785,99.0673 83.5,96.5C 83.5,96.1667 83.5,95.8333 83.5,95.5C 85.1263,92.3752 86.4597,89.0419 87.5,85.5 Z"/></g>
<g><path style="opacity:0.051" fill="#eefbfa" d="M 137.5,101.5 C 138.833,102.167 138.833,102.167 137.5,101.5 Z"/></g>
<g><path style="opacity:1" fill="#fa8c80" d="M 95.5,99.5 C 95.8333,99.5 96.1667,99.5 96.5,99.5C 96.2576,103.479 95.2576,107.146 93.5,110.5C 93.1868,106.587 93.8534,102.921 95.5,99.5 Z"/></g>
<g><path style="opacity:0.984" fill="#99acf3" d="M 225.5,90.5 C 223.901,98.9321 224.234,107.265 226.5,115.5C 225.351,115.209 224.684,114.376 224.5,113C 223.946,109.692 223.613,106.359 223.5,103C 223.928,99.7934 223.928,96.7934 223.5,94C 224.085,92.6976 224.751,91.531 225.5,90.5 Z"/></g>
<g><path style="opacity:1" fill="#a6b4eb" d="M 470.5,99.5 C 470.833,99.5 471.167,99.5 471.5,99.5C 471.248,103.327 469.915,106.66 467.5,109.5C 468.492,106.177 469.492,102.844 470.5,99.5 Z"/></g>
<g><path style="opacity:0.157" fill="#f5e0d8" d="M 199.5,114.5 C 200.159,111.545 200.492,108.545 200.5,105.5C 198.5,105.5 196.5,105.5 194.5,105.5C 193.708,104.033 193.708,102.7 194.5,101.5C 196.523,103.173 198.856,103.84 201.5,103.5C 201.665,106.85 201.498,110.183 201,113.5C 200.617,114.056 200.117,114.389 199.5,114.5 Z"/></g>
<g><path style="opacity:0.038" fill="#fbfdf1" d="M 535.5,103.5 C 535.5,104.167 535.5,104.833 535.5,105.5C 531.711,105.263 531.711,104.596 535.5,103.5 Z"/></g>
<g><path style="opacity:0.051" fill="#f9e4dc" d="M 158.5,101.5 C 157.878,103.122 156.878,104.455 155.5,105.5C 155.5,104.833 155.5,104.167 155.5,103.5C 155.821,101.952 156.821,101.285 158.5,101.5 Z"/></g>
<g><path style="opacity:1" fill="#96a3ec" d="M 427.5,100.5 C 427.706,103.495 427.04,106.162 425.5,108.5C 425.294,105.505 425.96,102.838 427.5,100.5 Z"/></g>
<g><path style="opacity:0.651" fill="#bccaed" d="M 483.5,103.5 C 483.833,103.5 484.167,103.5 484.5,103.5C 485.815,104.895 485.481,105.895 483.5,106.5C 483.5,105.5 483.5,104.5 483.5,103.5 Z"/></g>
<g><path style="opacity:0.016" fill="#f5fff3" d="M 205.5,105.5 C 206.833,106.167 206.833,106.167 205.5,105.5 Z"/></g>
<g><path style="opacity:0.333" fill="#b3c2f1" d="M 534.5,101.5 C 535.5,101.5 536.5,101.5 537.5,101.5C 537.5,103.5 537.5,105.5 537.5,107.5C 537.167,107.5 536.833,107.5 536.5,107.5C 536.167,106.833 535.833,106.167 535.5,105.5C 536.833,104.833 536.833,104.167 535.5,103.5C 535.167,102.833 534.833,102.167 534.5,101.5 Z"/></g>
<g><path style="opacity:0.773" fill="#ff8f96" d="M 155.5,103.5 C 155.5,104.167 155.5,104.833 155.5,105.5C 156.38,107.389 156.38,109.389 155.5,111.5C 154.167,108.833 154.167,106.167 155.5,103.5 Z"/></g>
<g><path style="opacity:0.016" fill="#f3fffe" d="M 205.5,106.5 C 204.833,107.167 204.833,107.167 205.5,106.5 Z"/></g>
<g><path style="opacity:0.051" fill="#dce3f2" d="M 550.5,97.5 C 551.865,100.959 551.531,104.292 549.5,107.5C 550.051,104.193 550.384,100.86 550.5,97.5 Z"/></g>
<g><path style="opacity:0.167" fill="#cfe8f9" d="M 295.5,103.5 C 295.5,104.833 295.5,106.167 295.5,107.5C 294.833,108.5 294.167,109.5 293.5,110.5C 293.171,107.772 293.837,105.438 295.5,103.5 Z"/></g>
<g><path style="opacity:1" fill="#1745f7" d="M 364.5,111.5 C 365.399,112.472 366.566,113.138 368,113.5C 374.751,110.929 380.584,106.929 385.5,101.5C 385.5,103.5 385.5,105.5 385.5,107.5C 387.564,107.687 389.564,108.187 391.5,109C 391.043,109.414 390.709,109.914 390.5,110.5C 392.13,113.276 392.797,116.276 392.5,119.5C 393.675,119.281 394.675,119.614 395.5,120.5C 394.833,120.833 394.167,121.167 393.5,121.5C 392.133,120.775 390.8,120.108 389.5,119.5C 389.813,116.753 389.48,114.086 388.5,111.5C 387.702,111.957 387.369,112.624 387.5,113.5C 385.973,113.427 384.973,114.094 384.5,115.5C 381.931,115.738 380.265,117.071 379.5,119.5C 377.973,119.427 376.973,120.094 376.5,121.5C 374.973,121.427 373.973,122.094 373.5,123.5C 373.167,123.5 372.833,123.5 372.5,123.5C 367.131,125.204 362.131,124.538 357.5,121.5C 357.5,120.167 356.833,119.5 355.5,119.5C 354.662,119.158 354.328,118.492 354.5,117.5C 352.184,111.653 351.85,105.653 353.5,99.5C 353.833,99.5 354.167,99.5 354.5,99.5C 355.762,96.9292 357.095,96.9292 358.5,99.5C 359.487,96.2317 359.82,92.8984 359.5,89.5C 361.5,89.5 363.5,89.5 365.5,89.5C 365.5,88.1667 365.5,86.8333 365.5,85.5C 366.978,85.238 368.311,85.5713 369.5,86.5C 367.844,89.4892 365.511,91.8226 362.5,93.5C 362.167,95.1667 361.833,96.8333 361.5,98.5C 362.378,103.001 363.378,107.334 364.5,111.5 Z"/></g>
<g><path style="opacity:0.035" fill="#fafdf1" d="M 485.5,107.5 C 486.833,108.167 486.833,108.167 485.5,107.5 Z"/></g>
<g><path style="opacity:0.051" fill="#fdf5ef" d="M 531.5,108.5 C 530.833,107.167 530.833,107.167 531.5,108.5 Z"/></g>
<g><path style="opacity:0.157" fill="#bbc6ed" d="M 536.5,107.5 C 534.377,109.797 531.71,111.13 528.5,111.5C 528.393,109.621 528.893,109.288 530,110.5C 530.717,109.956 531.217,109.289 531.5,108.5C 533.117,107.962 534.784,107.629 536.5,107.5 Z"/></g>
<g><path style="opacity:1" fill="#e9393a" d="M 141.5,95.5 C 143.148,102.029 143.815,108.695 143.5,115.5C 142.833,114.5 142.167,113.5 141.5,112.5C 141.5,110.167 141.5,107.833 141.5,105.5C 141.04,102.27 141.04,98.9371 141.5,95.5 Z"/></g>
<g><path style="opacity:0.369" fill="#bcccf8" d="M 405.5,103.5 C 405.15,106.722 404.483,109.888 403.5,113C 404.999,115.343 404.666,117.176 402.5,118.5C 402.323,114.766 402.656,111.099 403.5,107.5C 403.66,105.847 404.326,104.514 405.5,103.5 Z"/></g>
<g><path style="opacity:0.035" fill="#f1fffe" d="M 103.5,109.5 C 105.337,109.639 105.67,110.306 104.5,111.5C 103.702,111.043 103.369,110.376 103.5,109.5 Z"/></g>
<g><path style="opacity:0.016" fill="#f7fef5" d="M 274.5,110.5 C 273.475,110.103 273.308,109.437 274,108.5C 274.464,109.094 274.631,109.761 274.5,110.5 Z"/></g>
<g><path style="opacity:0.369" fill="#b0bff3" d="M 311.5,92.5 C 310.879,97.6533 309.546,102.987 307.5,108.5C 307.833,109.167 308.167,109.833 308.5,110.5C 307.306,111.799 306.306,113.132 305.5,114.5C 307.247,107.589 308.58,100.589 309.5,93.5C 310.167,93.1667 310.833,92.8333 311.5,92.5 Z"/></g>
<g><path style="opacity:0.016" fill="#fcfff3" d="M 463.5,109.5 C 464.833,110.167 464.833,110.167 463.5,109.5 Z"/></g>
<g><path style="opacity:1" fill="#1745f9" d="M 475.5,91.5 C 482.625,92.3968 485.291,96.3968 483.5,103.5C 483.5,104.5 483.5,105.5 483.5,106.5C 481.446,109.008 480.446,112.008 480.5,115.5C 480.443,116.609 480.11,117.609 479.5,118.5C 477.759,120.395 476.759,122.728 476.5,125.5C 475.5,125.833 474.833,126.5 474.5,127.5C 471.5,127.5 468.5,127.5 465.5,127.5C 465.5,127.167 465.5,126.833 465.5,126.5C 465.5,123.5 465.5,120.5 465.5,117.5C 465.517,115.435 465.85,113.435 466.5,111.5C 467.338,111.158 467.672,110.492 467.5,109.5C 469.915,106.66 471.248,103.327 471.5,99.5C 472.674,98.4863 473.34,97.153 473.5,95.5C 473.5,95.1667 473.5,94.8333 473.5,94.5C 474.906,94.0269 475.573,93.0269 475.5,91.5 Z"/></g>
<g><path style="opacity:0.737" fill="#faa5a4" d="M 81.5,104.5 C 81.7062,107.495 81.0395,110.162 79.5,112.5C 79.0618,112.565 78.7284,112.399 78.5,112C 79.282,109.328 80.282,106.828 81.5,104.5 Z"/></g>
<g><path style="opacity:0.016" fill="#fbfef2" d="M 274.5,110.5 C 275.833,111.167 275.833,111.167 274.5,110.5 Z"/></g>
<g><path style="opacity:1" fill="#5b72dd" d="M 295.5,107.5 C 294.19,112.743 293.524,118.077 293.5,123.5C 292.539,121.735 292.205,119.735 292.5,117.5C 292.674,115.139 293.007,112.806 293.5,110.5C 294.167,109.5 294.833,108.5 295.5,107.5 Z"/></g>
<g><path style="opacity:0.016" fill="#f9fdf3" d="M 466.5,111.5 C 465.833,110.167 465.833,110.167 466.5,111.5 Z"/></g>
<g><path style="opacity:1" fill="#1846f7" d="M 239.5,83.5 C 239.5,84.8333 239.5,86.1667 239.5,87.5C 239.5,87.8333 239.5,88.1667 239.5,88.5C 237.882,91.1709 237.215,94.1709 237.5,97.5C 237.5,100.167 237.5,102.833 237.5,105.5C 237.12,107.698 237.787,109.365 239.5,110.5C 240.167,110.833 240.833,111.167 241.5,111.5C 243.5,114.167 245.5,114.167 247.5,111.5C 248.167,111.5 248.833,111.5 249.5,111.5C 251.795,110.525 253.795,109.192 255.5,107.5C 256.5,107.167 257.167,106.5 257.5,105.5C 258.833,105.5 259.5,104.833 259.5,103.5C 261.5,102.833 262.833,101.5 263.5,99.5C 265.262,98.7377 266.262,97.4044 266.5,95.5C 268.262,94.7377 269.262,93.4044 269.5,91.5C 270.552,89.744 272.219,89.0773 274.5,89.5C 275.388,92.0545 275.721,94.7212 275.5,97.5C 273.992,99.1815 272.992,101.181 272.5,103.5C 272.34,105.153 271.674,106.486 270.5,107.5C 268.445,109.896 266.779,112.562 265.5,115.5C 264.167,115.5 263.5,116.167 263.5,117.5C 261.973,117.427 260.973,118.094 260.5,119.5C 258.821,119.285 257.821,119.952 257.5,121.5C 255.973,121.427 254.973,122.094 254.5,123.5C 251.848,123.41 249.515,124.076 247.5,125.5C 244.833,125.5 242.167,125.5 239.5,125.5C 237.698,124.542 235.698,123.875 233.5,123.5C 232.833,122.167 232.167,120.833 231.5,119.5C 232.72,117.718 233.386,115.718 233.5,113.5C 239.697,113.675 240.363,112.675 235.5,110.5C 235.987,109.554 236.32,108.554 236.5,107.5C 235.108,100.209 234.108,92.8753 233.5,85.5C 235.718,85.3862 237.718,84.7196 239.5,83.5 Z"/></g>
<g><path style="opacity:0.356" fill="#e3eff6" d="M 254.5,106.5 C 254.5,107.167 254.833,107.5 255.5,107.5C 253.795,109.192 251.795,110.525 249.5,111.5C 249.5,110.167 249.5,108.833 249.5,107.5C 251.292,107.634 252.958,107.301 254.5,106.5 Z"/></g>
<g><path style="opacity:0.035" fill="#fbfff0" d="M 243.5,107.5 C 244.675,107.281 245.675,107.614 246.5,108.5C 244.948,109.798 243.948,109.465 243.5,107.5 Z"/></g>
<g><path style="opacity:0.016" fill="#d5dcf8" d="M 237.5,105.5 C 238.931,106.78 239.598,108.447 239.5,110.5C 237.787,109.365 237.12,107.698 237.5,105.5 Z"/></g>
<g><path style="opacity:0.051" fill="#e3eff6" d="M 254.5,106.5 C 255.209,105.596 256.209,105.263 257.5,105.5C 257.167,106.5 256.5,107.167 255.5,107.5C 254.833,107.5 254.5,107.167 254.5,106.5 Z"/></g>
<g><path style="opacity:0.122" fill="#ccdbf1" d="M 259.5,103.5 C 259.5,104.833 258.833,105.5 257.5,105.5C 257.5,104.167 258.167,103.5 259.5,103.5 Z"/></g>
<g><path style="opacity:0.016" fill="#fdfff3" d="M 241.5,103.5 C 243.337,103.639 243.67,104.306 242.5,105.5C 241.702,105.043 241.369,104.376 241.5,103.5 Z"/></g>
<g><path style="opacity:0.247" fill="#bdcae8" d="M 263.5,99.5 C 262.833,101.5 261.5,102.833 259.5,103.5C 260.167,101.5 261.5,100.167 263.5,99.5 Z"/></g>
<g><path style="opacity:0.029" fill="#fefef1" d="M 257.5,97.5 C 259.337,97.6395 259.67,98.3061 258.5,99.5C 257.702,99.0431 257.369,98.3764 257.5,97.5 Z"/></g>
<g><path style="opacity:0.024" fill="#fefef2" d="M 239.5,97.5 C 240.376,97.3691 241.043,97.7025 241.5,98.5C 239.192,99.8734 238.525,99.5401 239.5,97.5 Z"/></g>
<g><path style="opacity:1" fill="#b2c3f8" d="M 266.5,95.5 C 266.262,97.4044 265.262,98.7377 263.5,99.5C 263.738,97.5956 264.738,96.2623 266.5,95.5 Z"/></g>
<g><path style="opacity:0.141" fill="#cee1ee" d="M 269.5,91.5 C 269.262,93.4044 268.262,94.7377 266.5,95.5C 266.554,93.368 267.554,92.0347 269.5,91.5 Z"/></g>
<g><path style="opacity:0.035" fill="#f4fbf0" d="M 267.5,89.5 C 268.833,90.1667 268.833,90.1667 267.5,89.5 Z"/></g>
<g><path style="opacity:0.071" fill="#fbffed" d="M 263.5,89.5 C 265.337,89.6395 265.67,90.3061 264.5,91.5C 263.702,91.0431 263.369,90.3764 263.5,89.5 Z"/></g>
<g><path style="opacity:0.043" fill="#dbe8f5" d="M 270.5,107.5 C 270.539,108.583 270.873,109.583 271.5,110.5C 270.273,111.59 269.44,112.924 269,114.5C 268.667,114.167 268.333,113.833 268,113.5C 267.292,114.381 266.458,115.047 265.5,115.5C 266.779,112.562 268.445,109.896 270.5,107.5 Z"/></g>
<g><path style="opacity:0.016" fill="#fafff2" d="M 417.5,111.5 C 419.337,111.639 419.67,112.306 418.5,113.5C 417.702,113.043 417.369,112.376 417.5,111.5 Z"/></g>
<g><path style="opacity:0.016" fill="#f3fffe" d="M 485.5,111.5 C 487.337,111.639 487.67,112.306 486.5,113.5C 485.702,113.043 485.369,112.376 485.5,111.5 Z"/></g>
<g><path style="opacity:0.035" fill="#f9fff1" d="M 501.5,113.5 C 501.639,111.663 502.306,111.33 503.5,112.5C 503.043,113.298 502.376,113.631 501.5,113.5 Z"/></g>
<g><path style="opacity:0.192" fill="#d2e4f4" d="M 526.5,111.5 C 524.786,112.738 522.786,113.405 520.5,113.5C 522.102,111.926 524.102,111.259 526.5,111.5 Z"/></g>
<g><path style="opacity:0.046" fill="#fefeef" d="M 549.5,111.5 C 551.337,111.639 551.67,112.306 550.5,113.5C 549.702,113.043 549.369,112.376 549.5,111.5 Z"/></g>
<g><path style="opacity:1" fill="#6a83cf" d="M 241.5,111.5 C 243.5,111.5 245.5,111.5 247.5,111.5C 245.5,114.167 243.5,114.167 241.5,111.5 Z"/></g>
<g><path style="opacity:1" fill="#97a4ed" d="M 425.5,108.5 C 425.706,111.495 425.04,114.162 423.5,116.5C 423.294,113.505 423.96,110.838 425.5,108.5 Z"/></g>
<g><path style="opacity:0.878" fill="#a1b6f3" d="M 483.5,106.5 C 483.072,109.785 482.072,112.785 480.5,115.5C 480.446,112.008 481.446,109.008 483.5,106.5 Z"/></g>
<g><path style="opacity:1" fill="#8fa3f9" d="M 520.5,113.5 C 514.81,113.985 509.144,114.985 503.5,116.5C 504.401,114.611 505.901,113.278 508,112.5C 512.111,113.404 516.278,113.737 520.5,113.5 Z"/></g>
<g><path style="opacity:0.035" fill="#bbccf8" d="M 353.5,99.5 C 351.85,105.653 352.184,111.653 354.5,117.5C 353.25,117.423 352.417,116.756 352,115.5C 351.833,113.333 351.667,111.167 351.5,109C 351.328,105.523 351.994,102.356 353.5,99.5 Z"/></g>
<g><path style="opacity:0.071" fill="#d4e5f8" d="M 387.5,113.5 C 387.5,113.833 387.5,114.167 387.5,114.5C 386.609,115.11 385.609,115.443 384.5,115.5C 384.973,114.094 385.973,113.427 387.5,113.5 Z"/></g>
<g><path style="opacity:0.016" fill="#fefdf3" d="M 501.5,113.5 C 501.5,114.833 500.833,115.5 499.5,115.5C 498.34,113.797 499.007,113.131 501.5,113.5 Z"/></g>
<g><path style="opacity:0.122" fill="#d1e1f3" d="M 547.5,109.5 C 547.833,109.5 548.167,109.5 548.5,109.5C 548.358,112.617 547.024,115.117 544.5,117C 545.711,117.893 545.711,118.726 544.5,119.5C 543.808,118.975 543.308,118.308 543,117.5C 541.89,119.037 540.39,119.703 538.5,119.5C 540.812,117.364 543.312,115.364 546,113.5C 546.791,112.255 547.291,110.922 547.5,109.5 Z"/></g>
<g><path style="opacity:0.035" fill="#fed6d1" d="M 141.5,112.5 C 142.167,113.5 142.833,114.5 143.5,115.5C 143.433,116.959 143.766,118.292 144.5,119.5C 143.25,119.423 142.417,118.756 142,117.5C 141.727,115.899 141.227,114.399 140.5,113C 140.728,112.601 141.062,112.435 141.5,112.5 Z"/></g>
<g><path style="opacity:0.034" fill="#fefdf1" d="M 305.5,115.5 C 308.167,116.167 308.167,116.833 305.5,117.5C 305.5,116.833 305.5,116.167 305.5,115.5 Z"/></g>
<g><path style="opacity:0.016" fill="#fefff2" d="M 421.5,117.5 C 419.663,117.361 419.33,116.694 420.5,115.5C 421.298,115.957 421.631,116.624 421.5,117.5 Z"/></g>
<g><path style="opacity:0.029" fill="#f6fff1" d="M 499.5,115.5 C 499.361,117.337 498.694,117.67 497.5,116.5C 497.957,115.702 498.624,115.369 499.5,115.5 Z"/></g>
<g><path style="opacity:1" fill="#1b46f6" d="M 536.5,107.5 C 536.833,107.5 537.167,107.5 537.5,107.5C 538.744,107.96 539.744,109.293 540.5,111.5C 542.523,109.827 544.856,109.16 547.5,109.5C 547.291,110.922 546.791,112.255 546,113.5C 543.312,115.364 540.812,117.364 538.5,119.5C 536.973,119.427 535.973,120.094 535.5,121.5C 533.62,121.229 532.287,121.896 531.5,123.5C 528.772,123.171 526.438,123.837 524.5,125.5C 524.167,125.5 523.833,125.5 523.5,125.5C 519.152,126.754 514.818,126.754 510.5,125.5C 509.833,125.5 509.167,125.5 508.5,125.5C 508.167,124.5 507.5,123.833 506.5,123.5C 505.488,122.128 504.488,120.795 503.5,119.5C 502.375,118.652 502.375,117.652 503.5,116.5C 509.144,114.985 514.81,113.985 520.5,113.5C 522.786,113.405 524.786,112.738 526.5,111.5C 527.167,111.5 527.833,111.5 528.5,111.5C 531.71,111.13 534.377,109.797 536.5,107.5 Z"/></g>
<g><path style="opacity:0.122" fill="#fad7d2" d="M 199.5,114.5 C 199.5,116.5 198.5,117.5 196.5,117.5C 196.81,115.856 197.81,114.856 199.5,114.5 Z"/></g>
<g><path style="opacity:0.263" fill="#cedaf1" d="M 226.5,115.5 C 227.674,116.514 228.34,117.847 228.5,119.5C 226.896,118.713 226.229,117.38 226.5,115.5 Z"/></g>
<g><path style="opacity:0.298" fill="#c0d3f0" d="M 265.5,115.5 C 265.167,116.5 264.5,117.167 263.5,117.5C 263.5,116.167 264.167,115.5 265.5,115.5 Z"/></g>
<g><path style="opacity:0.737" fill="#aabcea" d="M 384.5,115.5 C 384.611,116.117 384.944,116.617 385.5,117C 383.372,117.655 381.372,118.489 379.5,119.5C 380.265,117.071 381.931,115.738 384.5,115.5 Z"/></g>
<g><path style="opacity:0.021" fill="#fdfff2" d="M 421.5,117.5 C 422.167,117.5 422.833,117.5 423.5,117.5C 423.5,118.167 423.5,118.833 423.5,119.5C 422.167,119.5 421.5,118.833 421.5,117.5 Z"/></g>
<g><path style="opacity:0.035" fill="#fccdc9" d="M 93.5,111.5 C 93.6641,114.187 93.4974,116.854 93,119.5C 92.7216,120.416 92.2216,121.082 91.5,121.5C 91.7526,117.96 92.4192,114.627 93.5,111.5 Z"/></g>
<g><path style="opacity:0.016" fill="#f3fffd" d="M 205.5,118.5 C 206.833,119.167 206.833,119.167 205.5,118.5 Z"/></g>
<g><path style="opacity:0.035" fill="#d3e0f9" d="M 263.5,117.5 C 263.027,118.906 262.027,119.573 260.5,119.5C 260.973,118.094 261.973,117.427 263.5,117.5 Z"/></g>
<g><path style="opacity:1" fill="#f91a1b" d="M 161.5,87.5 C 161.5,88.1667 161.5,88.8333 161.5,89.5C 162.568,90.4345 163.901,90.7678 165.5,90.5C 167.48,93.3939 168.48,96.3939 168.5,99.5C 165.572,99.5651 162.905,100.232 160.5,101.5C 159.833,101.5 159.167,101.5 158.5,101.5C 156.821,101.285 155.821,101.952 155.5,103.5C 154.167,106.167 154.167,108.833 155.5,111.5C 156.539,113.531 158.205,114.864 160.5,115.5C 160.918,116.222 161.584,116.722 162.5,117C 165.482,117.498 168.482,117.665 171.5,117.5C 174.899,117.391 177.566,116.058 179.5,113.5C 179.833,113.5 180.167,113.5 180.5,113.5C 182.027,113.573 183.027,112.906 183.5,111.5C 183.833,111.5 184.167,111.5 184.5,111.5C 185.833,111.5 186.5,110.833 186.5,109.5C 186.833,109.5 187.167,109.5 187.5,109.5C 189.853,108.66 191.853,107.326 193.5,105.5C 193.833,105.5 194.167,105.5 194.5,105.5C 196.5,105.5 198.5,105.5 200.5,105.5C 200.492,108.545 200.159,111.545 199.5,114.5C 197.81,114.856 196.81,115.856 196.5,117.5C 193.964,118.037 191.964,119.37 190.5,121.5C 188.973,121.427 187.973,122.094 187.5,123.5C 187.167,123.5 186.833,123.5 186.5,123.5C 184.302,123.12 182.635,123.787 181.5,125.5C 181.167,125.5 180.833,125.5 180.5,125.5C 177.505,125.294 174.838,125.96 172.5,127.5C 167.5,128.833 162.5,128.833 157.5,127.5C 155.898,125.926 153.898,125.259 151.5,125.5C 151.167,125.5 150.833,125.5 150.5,125.5C 150.027,124.094 149.027,123.427 147.5,123.5C 147.5,122.167 146.833,121.5 145.5,121.5C 144.662,121.158 144.328,120.492 144.5,119.5C 143.766,118.292 143.433,116.959 143.5,115.5C 143.815,108.695 143.148,102.029 141.5,95.5C 141.833,93.1667 143.167,91.8333 145.5,91.5C 146.5,91.5 147.5,91.5 148.5,91.5C 148.222,89.6536 148.889,88.3202 150.5,87.5C 151.36,89.9307 153.027,91.264 155.5,91.5C 155.672,89.5082 155.005,87.8415 153.5,86.5C 155.564,82.8989 158.564,81.3989 162.5,82C 161.594,83.6995 161.261,85.5328 161.5,87.5 Z"/></g>
<g><path style="opacity:1" fill="#e45e56" d="M 179.5,113.5 C 177.566,116.058 174.899,117.391 171.5,117.5C 171.833,116.833 172.167,116.167 172.5,115.5C 174.833,114.833 177.167,114.167 179.5,113.5 Z"/></g>
<g><path style="opacity:1" fill="#dfa4a9" d="M 160.5,115.5 C 164.5,115.5 168.5,115.5 172.5,115.5C 172.167,116.167 171.833,116.833 171.5,117.5C 168.482,117.665 165.482,117.498 162.5,117C 161.584,116.722 160.918,116.222 160.5,115.5 Z"/></g>
<g><path style="opacity:0.071" fill="#f9e2e3" d="M 155.5,111.5 C 157.749,112.08 159.415,113.413 160.5,115.5C 158.205,114.864 156.539,113.531 155.5,111.5 Z"/></g>
<g><path style="opacity:0.843" fill="#eab8bc" d="M 183.5,111.5 C 183.027,112.906 182.027,113.573 180.5,113.5C 180.973,112.094 181.973,111.427 183.5,111.5 Z"/></g>
<g><path style="opacity:0.016" fill="#fff7f3" d="M 175.5,111.5 C 176.525,111.897 176.692,112.563 176,113.5C 175.536,112.906 175.369,112.239 175.5,111.5 Z"/></g>
<g><path style="opacity:1" fill="#e8b2b5" d="M 186.5,109.5 C 186.5,110.833 185.833,111.5 184.5,111.5C 184.987,110.527 185.487,109.527 186,108.5C 186.399,108.728 186.565,109.062 186.5,109.5 Z"/></g>
<g><path style="opacity:0.949" fill="#efc2c3" d="M 193.5,105.5 C 191.853,107.326 189.853,108.66 187.5,109.5C 188.708,106.956 190.708,105.622 193.5,105.5 Z"/></g>
<g><path style="opacity:0.016" fill="#fbfcf3" d="M 183.5,105.5 C 184.833,106.167 184.833,106.167 183.5,105.5 Z"/></g>
<g><path style="opacity:0.016" fill="#f3fffb" d="M 224.5,119.5 C 225.833,120.167 225.833,120.167 224.5,119.5 Z"/></g>
<g><path style="opacity:1" fill="#8da2dc" d="M 260.5,119.5 C 260.027,120.906 259.027,121.573 257.5,121.5C 257.821,119.952 258.821,119.285 260.5,119.5 Z"/></g>
<g><path style="opacity:0.016" fill="#fcfaf2" d="M 289.5,119.5 C 290.833,120.167 290.833,120.167 289.5,119.5 Z"/></g>
<g><path style="opacity:0.035" fill="#fbfdf2" d="M 437.5,119.5 C 439.973,119.947 440.14,120.947 438,122.5C 437.517,121.552 437.351,120.552 437.5,119.5 Z"/></g>
<g><path style="opacity:0.227" fill="#f8cbc3" d="M 196.5,117.5 C 195.522,120.325 193.522,121.658 190.5,121.5C 191.964,119.37 193.964,118.037 196.5,117.5 Z"/></g>
<g><path style="opacity:0.016" fill="#f3fffb" d="M 224.5,120.5 C 223.833,121.167 223.833,121.167 224.5,120.5 Z"/></g>
<g><path style="opacity:0.016" fill="#faf6f2" d="M 228.5,120.5 C 227.833,121.167 227.833,121.167 228.5,120.5 Z"/></g>
<g><path style="opacity:1" fill="#9fb2e7" d="M 228.5,120.5 C 228.5,120.167 228.5,119.833 228.5,119.5C 229.5,119.5 230.5,119.5 231.5,119.5C 232.167,120.833 232.833,122.167 233.5,123.5C 232.833,123.5 232.167,123.5 231.5,123.5C 230.833,122.167 229.833,121.167 228.5,120.5 Z"/></g>
<g><path style="opacity:0.384" fill="#bad5eb" d="M 355.5,119.5 C 356.833,119.5 357.5,120.167 357.5,121.5C 356.167,121.5 355.5,120.833 355.5,119.5 Z"/></g>
<g><path style="opacity:0.122" fill="#cde5f2" d="M 379.5,119.5 C 379.027,120.906 378.027,121.573 376.5,121.5C 376.973,120.094 377.973,119.427 379.5,119.5 Z"/></g>
<g><path style="opacity:0.702" fill="#9ca6f0" d="M 437.5,114.5 C 437.5,116.167 437.5,117.833 437.5,119.5C 436.833,120.5 436.167,121.5 435.5,122.5C 435.294,119.505 435.96,116.838 437.5,114.5 Z"/></g>
<g><path style="opacity:0.106" fill="#d0cff2" d="M 538.5,119.5 C 538.167,120.167 537.833,120.833 537.5,121.5C 536.833,121.5 536.167,121.5 535.5,121.5C 535.973,120.094 536.973,119.427 538.5,119.5 Z"/></g>
<g><path style="opacity:0.016" fill="#f9f9f3" d="M 541.5,120.5 C 542.833,121.167 542.833,121.167 541.5,120.5 Z"/></g>
<g><path style="opacity:0.016" fill="#f7fff2" d="M 195.5,121.5 C 196.833,122.167 196.833,122.167 195.5,121.5 Z"/></g>
<g><path style="opacity:0.035" fill="#d4e1fb" d="M 292.5,117.5 C 292.205,119.735 292.539,121.735 293.5,123.5C 293.733,125.062 294.4,126.395 295.5,127.5C 294.833,127.5 294.167,127.5 293.5,127.5C 293.167,126.5 292.5,125.833 291.5,125.5C 291.082,124.778 290.416,124.278 289.5,124C 290.731,121.834 291.731,119.667 292.5,117.5 Z"/></g>
<g><path style="opacity:0.212" fill="#c2cdf1" d="M 389.5,119.5 C 389.205,121.735 389.539,123.735 390.5,125.5C 390.833,126.167 391.167,126.833 391.5,127.5C 389.938,127.267 388.605,126.6 387.5,125.5C 387.787,121.684 387.787,118.017 387.5,114.5C 388.833,114.167 388.833,113.833 387.5,113.5C 387.369,112.624 387.702,111.957 388.5,111.5C 389.48,114.086 389.813,116.753 389.5,119.5 Z"/></g>
<g><path style="opacity:0.894" fill="#a5b6e6" d="M 503.5,119.5 C 504.488,120.795 505.488,122.128 506.5,123.5C 504.088,123.306 503.088,121.973 503.5,119.5 Z"/></g>
<g><path style="opacity:0.016" fill="#fbfff3" d="M 543.5,121.5 C 545.337,121.639 545.67,122.306 544.5,123.5C 543.702,123.043 543.369,122.376 543.5,121.5 Z"/></g>
<g><path style="opacity:1" fill="#fb6d67" d="M 79.5,119.5 C 83.0332,122.533 87.0332,123.2 91.5,121.5C 91.1788,123.048 90.1788,123.715 88.5,123.5C 86.5,123.5 84.5,123.5 82.5,123.5C 80.5544,122.965 79.5544,121.632 79.5,119.5 Z"/></g>
<g><path style="opacity:0.016" fill="#f3fdf7" d="M 92.5,122.5 C 93.8333,123.167 93.8333,123.167 92.5,122.5 Z"/></g>
<g><path style="opacity:0.333" fill="#f0c1be" d="M 145.5,121.5 C 146.833,121.5 147.5,122.167 147.5,123.5C 146.833,123.5 146.167,123.5 145.5,123.5C 145.5,122.833 145.5,122.167 145.5,121.5 Z"/></g>
<g><path style="opacity:0.035" fill="#f3dddc" d="M 190.5,121.5 C 190.027,122.906 189.027,123.573 187.5,123.5C 187.973,122.094 188.973,121.427 190.5,121.5 Z"/></g>
<g><path style="opacity:0.263" fill="#bfe1f2" d="M 257.5,121.5 C 257.179,123.048 256.179,123.715 254.5,123.5C 254.973,122.094 255.973,121.427 257.5,121.5 Z"/></g>
<g><path style="opacity:0.051" fill="#e0eff8" d="M 376.5,121.5 C 376.027,122.906 375.027,123.573 373.5,123.5C 373.973,122.094 374.973,121.427 376.5,121.5 Z"/></g>
<g><path style="opacity:0.035" fill="#dce6f7" d="M 535.5,121.5 C 534.486,122.674 533.153,123.34 531.5,123.5C 532.287,121.896 533.62,121.229 535.5,121.5 Z"/></g>
<g><path style="opacity:0.016" fill="#fcfef4" d="M 537.5,121.5 C 539.225,121.843 539.725,122.843 539,124.5C 537.961,123.756 537.461,122.756 537.5,121.5 Z"/></g>
<g><path style="opacity:0.318" fill="#f5ebee" d="M 82.5,123.5 C 84.5,123.5 86.5,123.5 88.5,123.5C 87.8627,127.078 86.3627,127.412 84,124.5C 81.8215,125.84 81.3215,125.507 82.5,123.5 Z"/></g>
<g><path style="opacity:0.035" fill="#f1fff6" d="M 145.5,123.5 C 144.833,124.167 144.833,124.167 145.5,123.5 Z"/></g>
<g><path style="opacity:0.035" fill="#fdfdf1" d="M 231.5,123.5 C 231.361,125.337 230.694,125.67 229.5,124.5C 229.957,123.702 230.624,123.369 231.5,123.5 Z"/></g>
<g><path style="opacity:0.035" fill="#daedfa" d="M 233.5,123.5 C 235.698,123.875 237.698,124.542 239.5,125.5C 236.918,125.975 234.918,125.308 233.5,123.5 Z"/></g>
<g><path style="opacity:0.288" fill="#eef6f3" d="M 305.5,121.5 C 306.586,121.62 307.253,122.287 307.5,123.5C 306.421,125.58 304.755,126.913 302.5,127.5C 303.877,125.711 304.877,123.711 305.5,121.5 Z"/></g>
<g><path style="opacity:0.016" fill="#f8f4f7" d="M 355.5,123.5 C 356.833,124.167 356.833,124.167 355.5,123.5 Z"/></g>
<g><path style="opacity:0.071" fill="#d0e3f7" d="M 357.5,121.5 C 362.131,124.538 367.131,125.204 372.5,123.5C 372.389,124.117 372.056,124.617 371.5,125C 369.08,125.29 366.746,125.79 364.5,126.5C 361.273,126.677 358.94,125.01 357.5,121.5 Z"/></g>
<g><path style="opacity:0.016" fill="#f7fef3" d="M 403.5,123.5 C 404.833,124.167 404.833,124.167 403.5,123.5 Z"/></g>
<g><path style="opacity:0.141" fill="#f8d7d3" d="M 147.5,123.5 C 149.027,123.427 150.027,124.094 150.5,125.5C 149.5,125.5 148.5,125.5 147.5,125.5C 147.5,124.833 147.5,124.167 147.5,123.5 Z"/></g>
<g><path style="opacity:0.596" fill="#eea6ad" d="M 186.5,123.5 C 185.22,124.931 183.553,125.598 181.5,125.5C 182.635,123.787 184.302,123.12 186.5,123.5 Z"/></g>
<g><path style="opacity:0.051" fill="#c8d7f6" d="M 254.5,123.5 C 254.389,124.117 254.056,124.617 253.5,125C 251.527,125.495 249.527,125.662 247.5,125.5C 249.515,124.076 251.848,123.41 254.5,123.5 Z"/></g>
<g><path style="opacity:0.016" fill="#f3fefc" d="M 353.5,124.5 C 354.833,125.167 354.833,125.167 353.5,124.5 Z"/></g>
<g><path style="opacity:1" fill="#5963f1" d="M 403.5,107.5 C 402.656,111.099 402.323,114.766 402.5,118.5C 402.829,121.228 402.163,123.562 400.5,125.5C 398.973,125.427 397.973,126.094 397.5,127.5C 395.389,128.742 393.389,128.742 391.5,127.5C 391.167,126.833 390.833,126.167 390.5,125.5C 393.537,125.552 396.204,124.552 398.5,122.5C 398.167,121.833 397.833,121.167 397.5,120.5C 398.934,119.77 400.1,118.77 401,117.5C 400.917,113.689 401.75,110.355 403.5,107.5 Z"/></g>
<g><path style="opacity:1" fill="#8cabf0" d="M 423.5,123.5 C 424.833,123.5 425.5,124.167 425.5,125.5C 424.167,125.5 423.5,124.833 423.5,123.5 Z"/></g>
<g><path style="opacity:0.016" fill="#e9f3f5" d="M 435.5,123.5 C 436.376,123.369 437.043,123.702 437.5,124.5C 436.311,125.429 434.978,125.762 433.5,125.5C 433.833,124.5 434.5,123.833 435.5,123.5 Z"/></g>
<g><path style="opacity:0.894" fill="#b0bdea" d="M 465.5,117.5 C 465.5,120.5 465.5,123.5 465.5,126.5C 463.231,123.579 463.231,120.579 465.5,117.5 Z"/></g>
<g><path style="opacity:0.439" fill="#a8bbf1" d="M 479.5,118.5 C 479.448,121.346 478.448,123.68 476.5,125.5C 476.759,122.728 477.759,120.395 479.5,118.5 Z"/></g>
<g><path style="opacity:0.086" fill="#d2e9f2" d="M 506.5,123.5 C 507.5,123.833 508.167,124.5 508.5,125.5C 507.167,125.5 506.5,124.833 506.5,123.5 Z"/></g>
<g><path style="opacity:0.016" fill="#dae8f1" d="M 531.5,123.5 C 531.389,124.117 531.056,124.617 530.5,125C 528.527,125.495 526.527,125.662 524.5,125.5C 526.438,123.837 528.772,123.171 531.5,123.5 Z"/></g>
<g><path style="opacity:0.033" fill="#f3fefa" d="M 89.5,125.5 C 89.56,124.957 89.8933,124.624 90.5,124.5C 92.9588,127.77 92.6254,128.103 89.5,125.5 Z"/></g>
<g><path style="opacity:0.016" fill="#fcfaf2" d="M 147.5,125.5 C 146.833,126.167 146.833,126.167 147.5,125.5 Z"/></g>
<g><path style="opacity:1" fill="#e68e91" d="M 151.5,125.5 C 153.898,125.259 155.898,125.926 157.5,127.5C 155.102,127.741 153.102,127.074 151.5,125.5 Z"/></g>
<g><path style="opacity:0.034" fill="#fcfef1" d="M 291.5,125.5 C 291.5,126.167 291.5,126.833 291.5,127.5C 288.833,126.833 288.833,126.167 291.5,125.5 Z"/></g>
<g><path style="opacity:0.016" fill="#fefff3" d="M 313.5,125.5 C 315.337,125.639 315.67,126.306 314.5,127.5C 313.702,127.043 313.369,126.376 313.5,125.5 Z"/></g>
<g><path style="opacity:0.016" fill="#fefcf2" d="M 356.5,125.5 C 357.833,126.167 357.833,126.167 356.5,125.5 Z"/></g>
<g><path style="opacity:0.035" fill="#f1fdf8" d="M 387.5,125.5 C 386.833,126.167 386.833,126.167 387.5,125.5 Z"/></g>
<g><path style="opacity:0.016" fill="#fff6f8" d="M 403.5,124.5 C 403.631,125.239 403.464,125.906 403,126.5C 402.308,125.563 402.475,124.897 403.5,124.5 Z"/></g>
<g><path style="opacity:0.016" fill="#fbfff3" d="M 487.5,125.5 C 489.337,125.639 489.67,126.306 488.5,127.5C 487.702,127.043 487.369,126.376 487.5,125.5 Z"/></g>
<g><path style="opacity:0.369" fill="#f5b2b2" d="M 180.5,125.5 C 178.365,127.369 175.698,128.036 172.5,127.5C 174.838,125.96 177.505,125.294 180.5,125.5 Z"/></g>
<g><path style="opacity:0.035" fill="#fafdf1" d="M 356.5,126.5 C 355.833,127.167 355.833,127.167 356.5,126.5 Z"/></g>
<g><path style="opacity:0.016" fill="#f3fefe" d="M 364.5,126.5 C 363.833,127.167 363.833,127.167 364.5,126.5 Z"/></g>
<g><path style="opacity:0.263" fill="#bdd3f5" d="M 400.5,125.5 C 400.027,126.906 399.027,127.573 397.5,127.5C 397.973,126.094 398.973,125.427 400.5,125.5 Z"/></g>
<g><path style="opacity:0.035" fill="#f1fffd" d="M 404.5,126.5 C 405.833,127.167 405.833,127.167 404.5,126.5 Z"/></g>
<g><path style="opacity:0.247" fill="#bfcdeb" d="M 425.5,125.5 C 428.167,125.5 430.833,125.5 433.5,125.5C 432.508,127.026 431.008,127.693 429,127.5C 427.319,127.392 426.152,126.725 425.5,125.5 Z"/></g>
<g><path style="opacity:0.141" fill="#c5dcf3" d="M 476.5,125.5 C 476.5,126.833 475.833,127.5 474.5,127.5C 474.833,126.5 475.5,125.833 476.5,125.5 Z"/></g>
<g><path style="opacity:0.525" fill="#c6dcf8" d="M 510.5,125.5 C 514.818,126.754 519.152,126.754 523.5,125.5C 521.538,127.017 519.205,127.684 516.5,127.5C 514.833,127.333 513.167,127.167 511.5,127C 510.944,126.617 510.611,126.117 510.5,125.5 Z"/></g>
<g><path style="opacity:0.455" fill="#c0c5e4" d="M 465.5,127.5 C 468.5,127.5 471.5,127.5 474.5,127.5C 471.081,129.932 467.414,130.098 463.5,128C 464.094,127.536 464.761,127.369 465.5,127.5 Z"/></g>
<g><path style="opacity:0.016" fill="#fefef3" d="M 291.5,127.5 C 292.167,127.5 292.833,127.5 293.5,127.5C 292.833,130.167 292.167,130.167 291.5,127.5 Z"/></g>
<g><path style="opacity:0.016" fill="#f9fff3" d="M 298.5,131.5 C 299.833,132.167 299.833,132.167 298.5,131.5 Z"/></g>
</svg>
