<?xml version="1.0" encoding="UTF-8"?>
<!DOCTYPE svg PUBLIC "-//W3C//DTD SVG 1.1//EN" "http://www.w3.org/Graphics/SVG/1.1/DTD/svg11.dtd">
<svg xmlns="http://www.w3.org/2000/svg" version="1.1" width="3753px" height="1119px" style="shape-rendering:geometricPrecision; text-rendering:geometricPrecision; image-rendering:optimizeQuality; fill-rule:evenodd; clip-rule:evenodd" xmlns:xlink="http://www.w3.org/1999/xlink">
<g><path style="opacity:0.776" fill="#77c6e5" d="M 835.5,-0.5 C 861.5,-0.5 887.5,-0.5 913.5,-0.5C 919.942,10.4482 926.608,21.2815 933.5,32C 976.991,31.6689 1020.49,31.1689 1064,30.5C 1075.83,30.8333 1087.67,31.1667 1099.5,31.5C 1149.63,115.584 1199.63,199.751 1249.5,284C 1201.63,369.581 1153.63,455.081 1105.5,540.5C 1008.17,542.423 910.832,544.09 813.5,545.5C 812.167,545.167 810.833,544.833 809.5,544.5C 759.232,460.294 709.232,375.961 659.5,291.5C 693.437,229.795 727.77,168.295 762.5,107C 747.822,106.167 733.155,106.334 718.5,107.5C 684.167,168.833 649.833,230.167 615.5,291.5C 617.591,296.02 619.925,300.353 622.5,304.5C 616.69,305.49 610.69,305.823 604.5,305.5C 594.167,305.5 583.833,305.5 573.5,305.5C 549.837,306.04 526.17,306.373 502.5,306.5C 501.833,306.5 501.167,306.5 500.5,306.5C 492.987,292.145 484.82,278.145 476,264.5C 474.699,262.635 474.365,260.635 475,258.5C 522.5,173.5 570,88.5 617.5,3.5C 690.327,2.01167 762.993,0.678335 835.5,-0.5 Z M 1019.5,102.5 C 1032.52,102.168 1045.52,102.501 1058.5,103.5C 1094.37,164.083 1130.37,224.583 1166.5,285C 1131.83,346.667 1097.17,408.333 1062.5,470C 991.834,471.128 921.167,471.795 850.5,472C 815.207,413.249 780.041,354.416 745,295.5C 743.41,293.35 742.743,291.017 743,288.5C 777.167,227.667 811.333,166.833 845.5,106C 903.655,104.634 961.655,103.468 1019.5,102.5 Z M 967.5,243.5 C 971.437,243.207 975.27,243.54 979,244.5C 987.374,258.75 995.874,272.916 1004.5,287C 996.12,300.923 988.12,315.09 980.5,329.5C 963.518,331.285 946.518,331.619 929.5,330.5C 921.667,317.5 913.833,304.5 906,291.5C 904.813,289.956 904.48,288.289 905,286.5C 912.96,272.748 920.793,258.914 928.5,245C 941.673,244.831 954.673,244.331 967.5,243.5 Z"/></g>
<g><path style="opacity:0.856" fill="#77c6e5" d="M 976.5,171.5 C 991.079,171.176 1005.58,171.51 1020,172.5C 1042.63,210.251 1065.13,248.084 1087.5,286C 1065.71,324.419 1044.04,362.919 1022.5,401.5C 977.84,402.858 933.174,403.358 888.5,403C 866.459,365.751 844.293,328.584 822,291.5C 821.333,290.167 821.333,288.833 822,287.5C 843.167,249.833 864.333,212.167 885.5,174.5C 889.796,173.672 894.129,173.172 898.5,173C 924.67,172.832 950.67,172.332 976.5,171.5 Z M 967.5,243.5 C 954.673,244.331 941.673,244.831 928.5,245C 920.793,258.914 912.96,272.748 905,286.5C 904.48,288.289 904.813,289.956 906,291.5C 913.833,304.5 921.667,317.5 929.5,330.5C 946.518,331.619 963.518,331.285 980.5,329.5C 988.12,315.09 996.12,300.923 1004.5,287C 995.874,272.916 987.374,258.75 979,244.5C 975.27,243.54 971.437,243.207 967.5,243.5 Z"/></g>
<g><path style="opacity:0.908" fill="#fd8f32" d="M 500.5,306.5 C 501.167,306.5 501.833,306.5 502.5,306.5C 513.747,327.336 525.747,347.669 538.5,367.5C 539.901,370.634 541.568,373.634 543.5,376.5C 543.5,376.833 543.5,377.167 543.5,377.5C 485.819,377.766 428.152,378.766 370.5,380.5C 336.167,441.833 301.833,503.167 267.5,564.5C 303.102,625.428 339.102,686.094 375.5,746.5C 376.167,746.833 376.833,747.167 377.5,747.5C 429.808,746.209 482.141,745.543 534.5,745.5C 528.925,754.979 523.592,764.645 518.5,774.5C 496.841,775.333 475.174,775.833 453.5,776C 462.155,789.479 470.155,803.313 477.5,817.5C 435.499,818.047 393.499,818.714 351.5,819.5C 345.833,819.167 340.167,818.833 334.5,818.5C 284.667,734.833 234.833,651.167 185,567.5C 185.086,564.298 186.086,561.298 188,558.5C 221.167,499.5 254.333,440.5 287.5,381.5C 272.795,380.146 258.129,380.479 243.5,382.5C 209.167,443.833 174.833,505.167 140.5,566.5C 184.085,639.335 227.419,712.335 270.5,785.5C 264.862,786.33 259.196,786.83 253.5,787C 218.828,787.544 184.162,787.878 149.5,788C 99.6367,703.996 49.6367,620.163 -0.5,536.5C -0.5,535.167 -0.5,533.833 -0.5,532.5C 47.1392,447.896 94.8059,363.229 142.5,278.5C 145.107,277.682 147.774,277.182 150.5,277C 246.499,275.553 342.499,274.553 438.5,274C 444.959,284.417 451.292,294.917 457.5,305.5C 471.818,306.499 486.151,306.833 500.5,306.5 Z"/></g>
<g><path style="opacity:0.866" fill="#c4a77f" d="M 573.5,305.5 C 583.833,305.5 594.167,305.5 604.5,305.5C 589.24,328.342 575.24,352.009 562.5,376.5C 556.167,376.5 549.833,376.5 543.5,376.5C 541.568,373.634 539.901,370.634 538.5,367.5C 550.67,347.165 562.336,326.499 573.5,305.5 Z"/></g>
<g><path style="opacity:0.876" fill="#caa579" d="M 622.5,304.5 C 623.376,304.369 624.043,304.702 624.5,305.5C 626.225,308.867 627.892,312.2 629.5,315.5C 629.66,317.199 629.494,318.866 629,320.5C 616.155,342.861 603.322,365.194 590.5,387.5C 588.03,384.177 585.696,380.677 583.5,377C 576.508,376.5 569.508,376.334 562.5,376.5C 575.24,352.009 589.24,328.342 604.5,305.5C 610.69,305.823 616.69,305.49 622.5,304.5 Z"/></g>
<g><path style="opacity:0.86" fill="#bfaa87" d="M 573.5,305.5 C 562.336,326.499 550.67,347.165 538.5,367.5C 525.747,347.669 513.747,327.336 502.5,306.5C 526.17,306.373 549.837,306.04 573.5,305.5 Z"/></g>
<g><path style="opacity:0.62" fill="#f19239" d="M 632.5,320.5 C 638.586,328.997 643.919,337.997 648.5,347.5C 648.167,347.5 647.833,347.5 647.5,347.5C 642.234,338.634 637.234,329.634 632.5,320.5 Z"/></g>
<g><path style="opacity:0.881" fill="#cea372" d="M 629.5,315.5 C 631.25,316.659 632.25,318.326 632.5,320.5C 637.234,329.634 642.234,338.634 647.5,347.5C 634.944,370.274 622.11,392.941 609,415.5C 608.517,416.448 608.351,417.448 608.5,418.5C 602.251,408.338 596.251,398.005 590.5,387.5C 603.322,365.194 616.155,342.861 629,320.5C 629.494,318.866 629.66,317.199 629.5,315.5 Z"/></g>
<g><path style="opacity:0.888" fill="#d3a16c" d="M 647.5,347.5 C 647.833,347.5 648.167,347.5 648.5,347.5C 653,353.827 657,360.494 660.5,367.5C 661.227,369.954 662.227,372.287 663.5,374.5C 659.633,381.214 655.133,387.547 650,393.5C 642.067,408.424 633.733,423.09 625,437.5C 623.872,439.345 623.372,441.345 623.5,443.5C 618.263,435.368 613.263,427.035 608.5,418.5C 608.351,417.448 608.517,416.448 609,415.5C 622.11,392.941 634.944,370.274 647.5,347.5 Z"/></g>
<g><path style="opacity:0.753" fill="#fd8e31" d="M 2759.5,382.5 C 2729.26,377.875 2698.93,376.542 2668.5,378.5C 2664.07,378.231 2659.74,378.564 2655.5,379.5C 2600.03,375.303 2547.03,385.137 2496.5,409C 2433.9,442.82 2400.9,495.487 2397.5,567C 2397.82,588.618 2401.99,609.451 2410,629.5C 2414.83,639.502 2419.83,649.168 2425,658.5C 2389.85,622.396 2374.52,579.063 2379,528.5C 2389.83,451.348 2431.99,399.848 2505.5,374C 2563.96,354.649 2623.63,349.982 2684.5,360C 2710.69,363.959 2735.69,371.459 2759.5,382.5 Z"/></g>
<g><path style="opacity:0.873" fill="#fd8e31" d="M 2170.5,388.5 C 2164.31,388.177 2158.31,388.51 2152.5,389.5C 2134.17,389.5 2115.83,389.5 2097.5,389.5C 2097.5,610.5 2097.5,831.5 2097.5,1052.5C 2091.17,1052.5 2084.83,1052.5 2078.5,1052.5C 2078.5,823.833 2078.5,595.167 2078.5,366.5C 2109.17,366.5 2139.83,366.5 2170.5,366.5C 2170.5,373.833 2170.5,381.167 2170.5,388.5 Z"/></g>
<g><path style="opacity:0.918" fill="#fd8f31" d="M 3501.5,393.5 C 3465.6,390.015 3429.6,388.682 3393.5,389.5C 3311.5,389.5 3229.5,389.5 3147.5,389.5C 3129.17,389.5 3110.83,389.5 3092.5,389.5C 3092.5,610.5 3092.5,831.5 3092.5,1052.5C 3086.17,1052.5 3079.83,1052.5 3073.5,1052.5C 3073.5,823.833 3073.5,595.167 3073.5,366.5C 3178.18,366.058 3282.84,366.558 3387.5,368C 3421.13,368.86 3453.8,374.86 3485.5,386C 3491.04,388.275 3496.38,390.775 3501.5,393.5 Z"/></g>
<g><path style="opacity:0.895" fill="#d79f66" d="M 663.5,374.5 C 665.341,378.183 667.674,381.516 670.5,384.5C 673,387.494 675,390.827 676.5,394.5C 678.007,398.845 680.173,402.845 683,406.5C 683.667,407.5 683.667,408.5 683,409.5C 672.732,428.092 662.066,446.426 651,464.5C 648.526,469.11 646.359,473.777 644.5,478.5C 637.137,467.118 630.137,455.451 623.5,443.5C 623.372,441.345 623.872,439.345 625,437.5C 633.733,423.09 642.067,408.424 650,393.5C 655.133,387.547 659.633,381.214 663.5,374.5 Z"/></g>
<g><path style="opacity:0.722" fill="#f19139" d="M 660.5,367.5 C 664.586,372.665 667.92,378.332 670.5,384.5C 667.674,381.516 665.341,378.183 663.5,374.5C 662.227,372.287 661.227,369.954 660.5,367.5 Z"/></g>
<g><path style="opacity:0.856" fill="#a2cc4b" d="M 2759.5,382.5 C 2761.41,382.216 2763.08,382.549 2764.5,383.5C 2763.76,383.369 2763.09,383.536 2762.5,384C 2771.71,388.101 2780.38,392.934 2788.5,398.5C 2779.5,398.5 2770.5,398.5 2761.5,398.5C 2747.04,392.63 2732.04,388.13 2716.5,385C 2700.41,382.391 2684.41,380.224 2668.5,378.5C 2698.93,376.542 2729.26,377.875 2759.5,382.5 Z"/></g>
<g><path style="opacity:0.662" fill="#89dc52" d="M 2764.5,383.5 C 2786.54,387.01 2807.88,393.01 2828.5,401.5C 2828.26,402.097 2827.76,402.43 2827,402.5C 2814.19,400.556 2801.35,399.223 2788.5,398.5C 2780.38,392.934 2771.71,388.101 2762.5,384C 2763.09,383.536 2763.76,383.369 2764.5,383.5 Z"/></g>
<g><path style="opacity:0.76" fill="#89dc51" d="M 2170.5,388.5 C 2195.17,388.5 2219.83,388.5 2244.5,388.5C 2244.5,395.5 2244.5,402.5 2244.5,409.5C 2243.83,409.5 2243.5,409.833 2243.5,410.5C 2236.5,410.5 2229.5,410.5 2222.5,410.5C 2222.5,412.5 2222.5,414.5 2222.5,416.5C 2222.17,416.5 2221.83,416.5 2221.5,416.5C 2205.17,416.5 2188.83,416.5 2172.5,416.5C 2172.5,635.833 2172.5,855.167 2172.5,1074.5C 2165.83,1074.5 2159.17,1074.5 2152.5,1074.5C 2152.5,846.167 2152.5,617.833 2152.5,389.5C 2158.31,388.51 2164.31,388.177 2170.5,388.5 Z"/></g>
<g><path style="opacity:0.777" fill="#b2cb59" d="M 3393.5,389.5 C 3429.6,388.682 3465.6,390.015 3501.5,393.5C 3502.61,393.557 3503.61,393.89 3504.5,394.5C 3512.69,399.094 3520.36,404.427 3527.5,410.5C 3424.17,410.5 3320.83,410.5 3217.5,410.5C 3313,409.667 3408.67,409.167 3504.5,409C 3481.92,400.458 3458.59,395.125 3434.5,393C 3420.69,391.683 3407.02,390.517 3393.5,389.5 Z"/></g>
<g><path style="opacity:0.713" fill="#88dc51" d="M 2668.5,378.5 C 2684.41,380.224 2700.41,382.391 2716.5,385C 2732.04,388.13 2747.04,392.63 2761.5,398.5C 2741.81,398.416 2722.48,400.416 2703.5,404.5C 2699.82,404.724 2696.15,405.058 2692.5,405.5C 2644.85,407.552 2600.19,420.052 2558.5,443C 2494.45,485.286 2466.61,544.786 2475,621.5C 2478,639.826 2484.16,656.992 2493.5,673C 2492.83,673.667 2492.17,673.667 2491.5,673C 2457.88,632.712 2445.72,586.545 2455,534.5C 2468.95,470.554 2506.12,426.054 2566.5,401C 2595.07,389.274 2624.74,382.108 2655.5,379.5C 2659.74,378.564 2664.07,378.231 2668.5,378.5 Z"/></g>
<g><path style="opacity:0.504" fill="#89db53" d="M 3504.5,394.5 C 3527.69,397.126 3549.69,403.459 3570.5,413.5C 3556.08,413.057 3541.74,412.057 3527.5,410.5C 3520.36,404.427 3512.69,399.094 3504.5,394.5 Z"/></g>
<g><path style="opacity:0.908" fill="#e3f5d7" d="M 2761.5,398.5 C 2770.5,398.5 2779.5,398.5 2788.5,398.5C 2801.35,399.223 2814.19,400.556 2827,402.5C 2827.76,402.43 2828.26,402.097 2828.5,401.5C 2829.17,401.833 2829.83,402.167 2830.5,402.5C 2842.16,408.326 2853.49,414.66 2864.5,421.5C 2840.85,415.711 2816.85,412.377 2792.5,411.5C 2788.14,411.414 2783.81,411.08 2779.5,410.5C 2776.37,409.368 2773.04,408.535 2769.5,408C 2747.57,405.505 2725.57,404.339 2703.5,404.5C 2722.48,400.416 2741.81,398.416 2761.5,398.5 Z"/></g>
<g><path style="opacity:0.62" fill="#77c5e4" d="M 543.5,376.5 C 549.833,376.5 556.167,376.5 562.5,376.5C 569.508,376.334 576.508,376.5 583.5,377C 585.696,380.677 588.03,384.177 590.5,387.5C 596.251,398.005 602.251,408.338 608.5,418.5C 613.263,427.035 618.263,435.368 623.5,443.5C 630.137,455.451 637.137,467.118 644.5,478.5C 650.666,490.17 657.332,501.504 664.5,512.5C 664.5,512.833 664.5,513.167 664.5,513.5C 650.817,513.833 637.15,513.499 623.5,512.5C 596.806,467.483 570.139,422.483 543.5,377.5C 543.5,377.167 543.5,376.833 543.5,376.5 Z"/></g>
<g><path style="opacity:0.69" fill="#fbfcfc" d="M 2830.5,402.5 C 2873.27,408.03 2912.6,422.53 2948.5,446C 2991.85,477.812 3018.68,520.312 3029,573.5C 3031.49,587.402 3032.99,601.402 3033.5,615.5C 3000.17,617.833 2966.83,620.167 2933.5,622.5C 2928.23,547.733 2888.56,504.9 2814.5,494C 2774.03,488.835 2734.03,491.168 2694.5,501C 2663.33,510.181 2640.83,529.347 2627,558.5C 2613.51,601.818 2626.35,634.484 2665.5,656.5C 2656.38,654.443 2647.22,652.443 2638,650.5C 2637.24,650.57 2636.74,650.903 2636.5,651.5C 2635.5,650.833 2634.5,650.167 2633.5,649.5C 2610.47,622.506 2603.97,591.84 2614,557.5C 2629.79,521.667 2656.63,498.5 2694.5,488C 2719.26,481.688 2744.42,478.855 2770,479.5C 2808.46,477.713 2844.96,485.213 2879.5,502C 2908.3,519.818 2927.8,544.984 2938,577.5C 2940.8,588.051 2942.97,598.717 2944.5,609.5C 2969.8,607.323 2995.13,605.656 3020.5,604.5C 3013.88,521.37 2972.21,463.87 2895.5,432C 2886.67,428.584 2877.67,425.751 2868.5,423.5C 2867.17,422.833 2865.83,422.167 2864.5,421.5C 2853.49,414.66 2842.16,408.326 2830.5,402.5 Z"/></g>
<g><path style="opacity:0.698" fill="#fbfcfc" d="M 2703.5,404.5 C 2725.57,404.339 2747.57,405.505 2769.5,408C 2773.04,408.535 2776.37,409.368 2779.5,410.5C 2722.88,407.724 2669.54,419.557 2619.5,446C 2554.85,487.151 2527.18,545.984 2536.5,622.5C 2537.42,628.267 2538.76,633.934 2540.5,639.5C 2550.36,670.366 2568.02,695.866 2593.5,716C 2622.77,737.464 2655.1,752.798 2690.5,762C 2741.74,775.644 2793.08,788.977 2844.5,802C 2868.24,807.912 2890.91,816.579 2912.5,828C 2958.52,856.047 2974.36,896.213 2960,948.5C 2949.7,977.47 2930.86,998.97 2903.5,1013C 2879.47,1024.9 2854.14,1032.56 2827.5,1036C 2805.85,1037.47 2784.19,1037.8 2762.5,1037C 2752.24,1036.3 2742.24,1034.8 2732.5,1032.5C 2752.16,1032.33 2771.5,1030.33 2790.5,1026.5C 2794.15,1026.06 2797.82,1025.72 2801.5,1025.5C 2839.05,1025.2 2874.05,1015.7 2906.5,997C 2947.62,968.63 2961.12,930.464 2947,882.5C 2939.06,863.89 2926.22,849.724 2908.5,840C 2884.22,826.794 2858.55,817.127 2831.5,811C 2780.25,798.552 2729.25,785.218 2678.5,771C 2639.97,760.571 2605.63,742.571 2575.5,717C 2529.22,671.75 2512.72,617.25 2526,553.5C 2543.35,488.819 2583.18,444.319 2645.5,420C 2660.95,414.06 2676.62,409.227 2692.5,405.5C 2696.15,405.058 2699.82,404.724 2703.5,404.5 Z"/></g>
<g><path style="opacity:0.856" fill="#fbfcfc" d="M 1742.5,409.5 C 1766.18,409.167 1789.84,409.5 1813.5,410.5C 1908.31,642.625 2002.98,874.792 2097.5,1107C 2058.17,1107.5 2018.83,1107.67 1979.5,1107.5C 1953.91,1038.31 1927.74,969.311 1901,900.5C 1884.91,899.509 1868.74,899.175 1852.5,899.5C 1849.17,899.5 1845.83,899.5 1842.5,899.5C 1824.5,899.5 1806.5,899.5 1788.5,899.5C 1784.5,899.5 1780.5,899.5 1776.5,899.5C 1724.83,899.167 1673.16,899.5 1621.5,900.5C 1596.64,969.091 1571.97,1037.76 1547.5,1106.5C 1510.83,1107.83 1474.17,1107.83 1437.5,1106.5C 1525.71,876.543 1613.71,646.543 1701.5,416.5C 1703.04,415.264 1704.04,413.598 1704.5,411.5C 1717.33,410.833 1729.99,410.167 1742.5,409.5 Z M 1819.5,813.5 C 1791.3,738.911 1763.3,664.244 1735.5,589.5C 1743.76,564.456 1751.1,539.123 1757.5,513.5C 1792.59,613.772 1829.26,713.439 1867.5,812.5C 1851.51,813.499 1835.51,813.833 1819.5,813.5 Z M 1730.5,606.5 C 1754.06,667.968 1777.39,729.635 1800.5,791.5C 1782.51,792.5 1764.51,792.833 1746.5,792.5C 1732.54,754.269 1718.2,716.269 1703.5,678.5C 1712.13,654.27 1721.13,630.27 1730.5,606.5 Z M 1697.5,693.5 C 1707.53,718.578 1717.2,743.911 1726.5,769.5C 1707.51,770.5 1688.51,770.833 1669.5,770.5C 1678.55,744.736 1687.88,719.069 1697.5,693.5 Z"/></g>
<g><path style="opacity:0.775" fill="#fdfdfd" d="M 2244.5,409.5 C 2271.5,409.5 2298.5,409.5 2325.5,409.5C 2325.5,642.167 2325.5,874.833 2325.5,1107.5C 2290.83,1107.5 2256.17,1107.5 2221.5,1107.5C 2221.5,877.167 2221.5,646.833 2221.5,416.5C 2221.83,416.5 2222.17,416.5 2222.5,416.5C 2229.5,416.5 2236.5,416.5 2243.5,416.5C 2243.5,414.5 2243.5,412.5 2243.5,410.5C 2243.5,409.833 2243.83,409.5 2244.5,409.5 Z"/></g>
<g><path style="opacity:0.965" fill="#eff9e7" d="M 2243.5,410.5 C 2243.5,412.5 2243.5,414.5 2243.5,416.5C 2236.5,416.5 2229.5,416.5 2222.5,416.5C 2222.5,414.5 2222.5,412.5 2222.5,410.5C 2229.5,410.5 2236.5,410.5 2243.5,410.5 Z"/></g>
<g><path style="opacity:0.725" fill="#04a2e8" d="M 2779.5,410.5 C 2783.81,411.08 2788.14,411.414 2792.5,411.5C 2793.21,412.404 2794.21,412.737 2795.5,412.5C 2809.64,421.29 2822.97,431.29 2835.5,442.5C 2830.48,433.924 2823.81,426.091 2815.5,419C 2815.73,418.601 2816.06,418.435 2816.5,418.5C 2855.28,428.503 2888.78,447.503 2917,475.5C 2909.22,462.014 2899.39,449.847 2887.5,439C 2880.98,433.969 2874.64,428.803 2868.5,423.5C 2877.67,425.751 2886.67,428.584 2895.5,432C 2972.21,463.87 3013.88,521.37 3020.5,604.5C 2995.13,605.656 2969.8,607.323 2944.5,609.5C 2942.97,598.717 2940.8,588.051 2938,577.5C 2927.8,544.984 2908.3,519.818 2879.5,502C 2844.96,485.213 2808.46,477.713 2770,479.5C 2744.42,478.855 2719.26,481.688 2694.5,488C 2656.63,498.5 2629.79,521.667 2614,557.5C 2603.97,591.84 2610.47,622.506 2633.5,649.5C 2614.38,646.627 2596.38,640.461 2579.5,631C 2574.88,628.44 2570.72,625.273 2567,621.5C 2567.98,625.802 2569.81,629.802 2572.5,633.5C 2560.22,630.763 2548.22,627.096 2536.5,622.5C 2527.18,545.984 2554.85,487.151 2619.5,446C 2669.54,419.557 2722.88,407.724 2779.5,410.5 Z"/></g>
<g><path style="opacity:0.824" fill="#e1f5d2" d="M 3217.5,410.5 C 3320.83,410.5 3424.17,410.5 3527.5,410.5C 3541.74,412.057 3556.08,413.057 3570.5,413.5C 3571.83,413.833 3573.17,414.167 3574.5,414.5C 3582.84,419.337 3590.84,424.67 3598.5,430.5C 3578.31,426.924 3557.98,424.59 3537.5,423.5C 3536.5,423.5 3535.5,423.5 3534.5,423.5C 3531.54,422.841 3528.54,422.508 3525.5,422.5C 3510.74,419.914 3495.74,418.08 3480.5,417C 3392.83,416.5 3305.17,416.333 3217.5,416.5C 3217.5,414.5 3217.5,412.5 3217.5,410.5 Z"/></g>
<g><path style="opacity:0.903" fill="#dd9d5f" d="M 676.5,394.5 C 684.585,406.33 691.919,418.663 698.5,431.5C 701.781,439.258 705.781,445.925 710.5,451.5C 712.588,453.336 713.921,455.669 714.5,458.5C 718.943,467.816 723.943,476.149 729.5,483.5C 732.623,486.976 734.957,490.976 736.5,495.5C 738.887,500.605 741.554,505.605 744.5,510.5C 717.866,512.247 691.199,512.913 664.5,512.5C 657.332,501.504 650.666,490.17 644.5,478.5C 646.359,473.777 648.526,469.11 651,464.5C 662.066,446.426 672.732,428.092 683,409.5C 683.667,408.5 683.667,407.5 683,406.5C 680.173,402.845 678.007,398.845 676.5,394.5 Z"/></g>
<g><path style="opacity:0.854" fill="#259fce" d="M 2795.5,412.5 C 2802.63,414.363 2809.63,416.363 2816.5,418.5C 2816.06,418.435 2815.73,418.601 2815.5,419C 2823.81,426.091 2830.48,433.924 2835.5,442.5C 2822.97,431.29 2809.64,421.29 2795.5,412.5 Z"/></g>
<g><path style="opacity:0.582" fill="#fbfcfc" d="M 3574.5,414.5 C 3679.75,427.418 3739.08,486.418 3752.5,591.5C 3752.5,606.5 3752.5,621.5 3752.5,636.5C 3747.48,691.374 3725.15,737.874 3685.5,776C 3661.43,795.7 3634.1,809.033 3603.5,816C 3569.63,823.875 3535.29,827.875 3500.5,828C 3440.5,828.5 3380.5,828.667 3320.5,828.5C 3320.5,921.5 3320.5,1014.5 3320.5,1107.5C 3285.83,1107.5 3251.17,1107.5 3216.5,1107.5C 3216.5,877.167 3216.5,646.833 3216.5,416.5C 3216.83,416.5 3217.17,416.5 3217.5,416.5C 3305.17,416.333 3392.83,416.5 3480.5,417C 3495.74,418.08 3510.74,419.914 3525.5,422.5C 3522.5,422.5 3519.5,422.5 3516.5,422.5C 3420.67,421.501 3324.67,421.167 3228.5,421.5C 3228.17,646.334 3228.5,871.001 3229.5,1095.5C 3255.83,1095.5 3282.17,1095.5 3308.5,1095.5C 3308.5,1002.17 3308.5,908.833 3308.5,815.5C 3378.5,815.667 3448.5,815.5 3518.5,815C 3560.02,814.304 3600.02,806.304 3638.5,791C 3667.59,777.572 3690.76,757.406 3708,730.5C 3741.04,675.46 3749.38,616.794 3733,554.5C 3713.64,488.968 3670.8,448.301 3604.5,432.5C 3602.7,431.542 3600.7,430.875 3598.5,430.5C 3590.84,424.67 3582.84,419.337 3574.5,414.5 Z M 3509.5,734.5 C 3568.55,717.906 3597.89,678.74 3597.5,617C 3598.43,582.731 3587.26,553.231 3564,528.5C 3566.83,535.97 3569.49,543.636 3572,551.5C 3579.07,581.896 3577.74,611.896 3568,641.5C 3554.56,673.607 3531.06,694.441 3497.5,704C 3465.69,712.241 3433.35,715.407 3400.5,713.5C 3488.94,704.878 3529.11,656.212 3521,567.5C 3519.13,553.354 3514.8,540.02 3508,527.5C 3503.6,523.06 3498.77,519.56 3493.5,517C 3497.97,527.726 3500.81,538.892 3502,550.5C 3507.37,636.145 3467.2,682.645 3381.5,690C 3361.19,691.353 3340.86,691.853 3320.5,691.5C 3320.5,628.5 3320.5,565.5 3320.5,502.5C 3384.17,502.333 3447.83,502.5 3511.5,503C 3527.22,503.255 3542.88,504.255 3558.5,506C 3605.39,514.885 3633.89,542.719 3644,589.5C 3649.98,621.368 3645.65,651.701 3631,680.5C 3620.17,698.66 3605.01,711.827 3585.5,720C 3560.99,729.03 3535.66,733.864 3509.5,734.5 Z"/></g>
<g><path style="opacity:0.9" fill="#20aeca" d="M 2792.5,411.5 C 2816.85,412.377 2840.85,415.711 2864.5,421.5C 2865.83,422.167 2867.17,422.833 2868.5,423.5C 2874.64,428.803 2880.98,433.969 2887.5,439C 2899.39,449.847 2909.22,462.014 2917,475.5C 2888.78,447.503 2855.28,428.503 2816.5,418.5C 2809.63,416.363 2802.63,414.363 2795.5,412.5C 2794.21,412.737 2793.21,412.404 2792.5,411.5 Z"/></g>
<g><path style="opacity:0.879" fill="#03a2e8" d="M 1538.5,1094.5 C 1510.81,1095.16 1483.48,1094.49 1456.5,1092.5C 1493.94,992.952 1531.94,893.618 1570.5,794.5C 1579.42,793.529 1588.42,793.196 1597.5,793.5C 1594.1,802.028 1591.1,810.695 1588.5,819.5C 1604.68,819.17 1620.68,819.504 1636.5,820.5C 1636.57,821.959 1636.23,823.292 1635.5,824.5C 1634.96,824.56 1634.62,824.893 1634.5,825.5C 1718.33,826.832 1802,826.832 1885.5,825.5C 1855.74,746.968 1826.24,668.302 1797,589.5C 1782.26,548.112 1768.43,506.445 1755.5,464.5C 1748.07,499.557 1739.4,534.224 1729.5,568.5C 1728.88,568.611 1728.38,568.944 1728,569.5C 1718.79,542.213 1709.79,514.88 1701,487.5C 1698.88,494.777 1697.54,502.11 1697,509.5C 1705.34,534.695 1714.18,559.695 1723.5,584.5C 1715.82,609.537 1707.15,634.204 1697.5,658.5C 1696.25,658.423 1695.42,657.756 1695,656.5C 1683.45,625.354 1671.62,594.354 1659.5,563.5C 1676.81,516.079 1694.81,468.912 1713.5,422C 1744.17,421.167 1774.84,421.333 1805.5,422.5C 1896.8,646.752 1987.8,871.085 2078.5,1095.5C 2048.49,1095.83 2018.49,1095.5 1988.5,1094.5C 1962.06,1025.69 1935.73,956.856 1909.5,888C 1810.5,887.167 1711.5,887.333 1612.5,888.5C 1588.02,957.271 1563.35,1025.94 1538.5,1094.5 Z"/></g>
<g><path style="opacity:0.787" fill="#6bc7f1" d="M 2233.5,421.5 C 2260.17,421.5 2286.83,421.5 2313.5,421.5C 2313.5,646.167 2313.5,870.833 2313.5,1095.5C 2286.83,1095.5 2260.17,1095.5 2233.5,1095.5C 2233.5,870.833 2233.5,646.167 2233.5,421.5 Z"/></g>
<g><path style="opacity:0.794" fill="#00a1e8" d="M 2234.5,422.5 C 2260.5,422.5 2286.5,422.5 2312.5,422.5C 2312.5,646.5 2312.5,870.5 2312.5,1094.5C 2286.5,1094.5 2260.5,1094.5 2234.5,1094.5C 2234.5,870.5 2234.5,646.5 2234.5,422.5 Z"/></g>
<g><path style="opacity:0.592" fill="#01a1e8" d="M 3516.5,422.5 C 3519.5,422.5 3522.5,422.5 3525.5,422.5C 3528.54,422.508 3531.54,422.841 3534.5,423.5C 3542.72,429.215 3550.55,435.548 3558,442.5C 3558.67,441.833 3558.67,441.167 3558,440.5C 3553.62,435.627 3549.46,430.627 3545.5,425.5C 3582.95,432.803 3614.78,450.136 3641,477.5C 3633.52,463.477 3623.68,450.977 3611.5,440C 3608.5,437.667 3605.5,435.333 3602.5,433C 3603.09,432.536 3603.76,432.369 3604.5,432.5C 3670.8,448.301 3713.64,488.968 3733,554.5C 3749.38,616.794 3741.04,675.46 3708,730.5C 3690.76,757.406 3667.59,777.572 3638.5,791C 3600.02,806.304 3560.02,814.304 3518.5,815C 3448.5,815.5 3378.5,815.667 3308.5,815.5C 3307.5,908.332 3307.17,1001.33 3307.5,1094.5C 3281.5,1094.5 3255.5,1094.5 3229.5,1094.5C 3229.5,967.833 3229.5,841.167 3229.5,714.5C 3239.17,714.5 3248.83,714.5 3258.5,714.5C 3258.5,723.5 3258.5,732.5 3258.5,741.5C 3275.17,741.5 3291.83,741.5 3308.5,741.5C 3308.5,743.5 3308.5,745.5 3308.5,747.5C 3373.17,747.667 3437.83,747.5 3502.5,747C 3532.07,747.02 3560.73,742.02 3588.5,732C 3631.8,712.303 3654.97,678.47 3658,630.5C 3662.71,585.959 3648.88,548.459 3616.5,518C 3597.87,503.026 3576.53,494.693 3552.5,493C 3541.18,492.134 3529.85,491.467 3518.5,491C 3448.5,490.5 3378.5,490.333 3308.5,490.5C 3308.5,557.833 3308.5,625.167 3308.5,692.5C 3282.17,692.5 3255.83,692.5 3229.5,692.5C 3229.5,602.5 3229.5,512.5 3229.5,422.5C 3325.17,422.5 3420.83,422.5 3516.5,422.5 Z"/></g>
<g><path style="opacity:0.781" fill="#3a9dc0" d="M 3534.5,423.5 C 3535.5,423.5 3536.5,423.5 3537.5,423.5C 3539.96,424.531 3542.63,425.198 3545.5,425.5C 3549.46,430.627 3553.62,435.627 3558,440.5C 3558.67,441.167 3558.67,441.833 3558,442.5C 3550.55,435.548 3542.72,429.215 3534.5,423.5 Z"/></g>
<g><path style="opacity:0.782" fill="#26b1c3" d="M 3537.5,423.5 C 3557.98,424.59 3578.31,426.924 3598.5,430.5C 3600.7,430.875 3602.7,431.542 3604.5,432.5C 3603.76,432.369 3603.09,432.536 3602.5,433C 3605.5,435.333 3608.5,437.667 3611.5,440C 3623.68,450.977 3633.52,463.477 3641,477.5C 3614.78,450.136 3582.95,432.803 3545.5,425.5C 3542.63,425.198 3539.96,424.531 3537.5,423.5 Z"/></g>
<g><path style="opacity:0.549" fill="#f49034" d="M 698.5,431.5 C 703,437.827 707,444.494 710.5,451.5C 705.781,445.925 701.781,439.258 698.5,431.5 Z"/></g>
<g><path style="opacity:0.552" fill="#88dc51" d="M 3147.5,389.5 C 3229.5,389.5 3311.5,389.5 3393.5,389.5C 3407.02,390.517 3420.69,391.683 3434.5,393C 3458.59,395.125 3481.92,400.458 3504.5,409C 3408.67,409.167 3313,409.667 3217.5,410.5C 3217.5,412.5 3217.5,414.5 3217.5,416.5C 3217.17,416.5 3216.83,416.5 3216.5,416.5C 3200.17,416.5 3183.83,416.5 3167.5,416.5C 3167.5,635.833 3167.5,855.167 3167.5,1074.5C 3160.83,1074.5 3154.17,1074.5 3147.5,1074.5C 3147.5,846.167 3147.5,617.833 3147.5,389.5 Z"/></g>
<g><path style="opacity:0.165" fill="#f69035" d="M 714.5,458.5 C 720.251,466.328 725.251,474.661 729.5,483.5C 723.943,476.149 718.943,467.816 714.5,458.5 Z"/></g>
<g><path style="opacity:0.868" fill="#fbfcfc" d="M 1885.5,825.5 C 1802,825.833 1718.66,825.499 1635.5,824.5C 1636.23,823.292 1636.57,821.959 1636.5,820.5C 1637.17,820.5 1637.5,820.167 1637.5,819.5C 1698.5,819.5 1759.5,819.5 1820.5,819.5C 1820.17,817.5 1819.83,815.5 1819.5,813.5C 1835.51,813.833 1851.51,813.499 1867.5,812.5C 1829.26,713.439 1792.59,613.772 1757.5,513.5C 1751.1,539.123 1743.76,564.456 1735.5,589.5C 1732.85,594.79 1731.18,600.457 1730.5,606.5C 1721.13,630.27 1712.13,654.27 1703.5,678.5C 1700.74,683.105 1698.74,688.105 1697.5,693.5C 1687.88,719.069 1678.55,744.736 1669.5,770.5C 1665.75,777.401 1662.75,784.735 1660.5,792.5C 1660.17,792.5 1659.83,792.5 1659.5,792.5C 1655.63,792.815 1651.96,792.482 1648.5,791.5C 1650.63,784.438 1652.97,777.438 1655.5,770.5C 1667.89,738.326 1679.89,705.993 1691.5,673.5C 1693.74,668.676 1695.74,663.676 1697.5,658.5C 1707.15,634.204 1715.82,609.537 1723.5,584.5C 1725.67,579.319 1727.67,573.986 1729.5,568.5C 1739.4,534.224 1748.07,499.557 1755.5,464.5C 1768.43,506.445 1782.26,548.112 1797,589.5C 1826.24,668.302 1855.74,746.968 1885.5,825.5 Z M 1730.5,606.5 C 1754.06,667.968 1777.39,729.635 1800.5,791.5C 1782.51,792.5 1764.51,792.833 1746.5,792.5C 1732.54,754.269 1718.2,716.269 1703.5,678.5C 1712.13,654.27 1721.13,630.27 1730.5,606.5 Z M 1697.5,693.5 C 1707.53,718.578 1717.2,743.911 1726.5,769.5C 1707.51,770.5 1688.51,770.833 1669.5,770.5C 1678.55,744.736 1687.88,719.069 1697.5,693.5 Z"/></g>
<g><path style="opacity:0.992" fill="#0da7dd" d="M 1729.5,568.5 C 1727.67,573.986 1725.67,579.319 1723.5,584.5C 1714.18,559.695 1705.34,534.695 1697,509.5C 1697.54,502.11 1698.88,494.777 1701,487.5C 1709.79,514.88 1718.79,542.213 1728,569.5C 1728.38,568.944 1728.88,568.611 1729.5,568.5 Z"/></g>
<g><path style="opacity:0.577" fill="#fbfcfd" d="M 3308.5,741.5 C 3358.5,741.667 3408.5,741.5 3458.5,741C 3472.08,739.881 3485.41,738.048 3498.5,735.5C 3502.18,735.276 3505.85,734.942 3509.5,734.5C 3535.66,733.864 3560.99,729.03 3585.5,720C 3605.01,711.827 3620.17,698.66 3631,680.5C 3645.65,651.701 3649.98,621.368 3644,589.5C 3633.89,542.719 3605.39,514.885 3558.5,506C 3542.88,504.255 3527.22,503.255 3511.5,503C 3447.83,502.5 3384.17,502.333 3320.5,502.5C 3320.5,565.5 3320.5,628.5 3320.5,691.5C 3320.5,691.833 3320.5,692.167 3320.5,692.5C 3316.5,692.5 3312.5,692.5 3308.5,692.5C 3308.5,625.167 3308.5,557.833 3308.5,490.5C 3378.5,490.333 3448.5,490.5 3518.5,491C 3529.85,491.467 3541.18,492.134 3552.5,493C 3576.53,494.693 3597.87,503.026 3616.5,518C 3648.88,548.459 3662.71,585.959 3658,630.5C 3654.97,678.47 3631.8,712.303 3588.5,732C 3560.73,742.02 3532.07,747.02 3502.5,747C 3437.83,747.5 3373.17,747.667 3308.5,747.5C 3308.5,745.5 3308.5,743.5 3308.5,741.5 Z"/></g>
<g><path style="opacity:0.773" fill="#fd8f32" d="M 736.5,495.5 C 748.251,513.328 759.251,531.661 769.5,550.5C 769.5,550.833 769.5,551.167 769.5,551.5C 760.5,551.5 751.5,551.5 742.5,551.5C 724.167,551.5 705.833,551.5 687.5,551.5C 687.167,551.5 686.833,551.5 686.5,551.5C 679.155,538.806 671.822,526.139 664.5,513.5C 664.5,513.167 664.5,512.833 664.5,512.5C 691.199,512.913 717.866,512.247 744.5,510.5C 741.554,505.605 738.887,500.605 736.5,495.5 Z"/></g>
<g><path style="opacity:0.664" fill="#fb8d30" d="M 2776.5,514.5 C 2782.02,517.51 2786.86,521.51 2791,526.5C 2797.92,539.088 2802.75,552.422 2805.5,566.5C 2800.18,566.98 2794.84,567.313 2789.5,567.5C 2787.83,549.153 2783.5,531.486 2776.5,514.5 Z"/></g>
<g><path style="opacity:0.61" fill="#86d84f" d="M 2845.5,526.5 C 2854.34,534.503 2861.51,543.836 2867,554.5C 2872.25,565.083 2876.42,576.083 2879.5,587.5C 2874.27,588.97 2868.94,589.637 2863.5,589.5C 2861.38,567.363 2855.38,546.363 2845.5,526.5 Z"/></g>
<g><path style="opacity:0.892" fill="#88dc51" d="M 1668.5,388.5 C 1690.5,388.5 1712.5,388.5 1734.5,388.5C 1736.77,395.649 1739.44,402.649 1742.5,409.5C 1729.99,410.167 1717.33,410.833 1704.5,411.5C 1704.04,413.598 1703.04,415.264 1701.5,416.5C 1685.49,416.167 1669.49,416.501 1653.5,417.5C 1569.57,636.128 1485.74,854.794 1402,1073.5C 1391.56,1074.82 1381.06,1074.82 1370.5,1073.5C 1458.41,845.69 1545.74,617.69 1632.5,389.5C 1644.42,388.521 1656.42,388.188 1668.5,388.5 Z"/></g>
<g><path style="opacity:0.459" fill="#fb8d30" d="M 3400.5,713.5 C 3373.85,714.394 3347.18,714.727 3320.5,714.5C 3320.5,707.167 3320.5,699.833 3320.5,692.5C 3320.5,692.167 3320.5,691.833 3320.5,691.5C 3340.86,691.853 3361.19,691.353 3381.5,690C 3467.2,682.645 3507.37,636.145 3502,550.5C 3500.81,538.892 3497.97,527.726 3493.5,517C 3498.77,519.56 3503.6,523.06 3508,527.5C 3514.8,540.02 3519.13,553.354 3521,567.5C 3529.11,656.212 3488.94,704.878 3400.5,713.5 Z"/></g>
<g><path style="opacity:0.898" fill="#e79f38" d="M 687.5,551.5 C 705.833,551.5 724.167,551.5 742.5,551.5C 739.56,556.947 736.393,562.28 733,567.5C 710.667,594.833 688.333,622.167 666,649.5C 643.414,688.337 621.08,727.337 599,766.5C 591.333,775.833 583.667,785.167 576,794.5C 572.142,801.554 568.309,808.554 564.5,815.5C 553.828,815.667 543.161,815.5 532.5,815C 544.64,799.226 557.14,783.726 570,768.5C 573.914,761.004 578.08,753.671 582.5,746.5C 584.291,745.83 585.958,745.163 587.5,744.5C 622.526,682.956 657.193,621.122 691.5,559C 690.034,556.568 688.701,554.068 687.5,551.5 Z"/></g>
<g><path style="opacity:0.899" fill="#ea9d38" d="M 742.5,551.5 C 751.5,551.5 760.5,551.5 769.5,551.5C 771.382,553.239 772.715,555.406 773.5,558C 770.386,564.914 766.72,571.414 762.5,577.5C 760.629,577.859 759.129,578.859 758,580.5C 753,586.833 748,593.167 743,599.5C 702.293,671.081 661.46,742.581 620.5,814C 623.365,814.183 626.031,814.683 628.5,815.5C 611.167,815.5 593.833,815.5 576.5,815.5C 572.5,815.5 568.5,815.5 564.5,815.5C 568.309,808.554 572.142,801.554 576,794.5C 583.667,785.167 591.333,775.833 599,766.5C 621.08,727.337 643.414,688.337 666,649.5C 688.333,622.167 710.667,594.833 733,567.5C 736.393,562.28 739.56,556.947 742.5,551.5 Z"/></g>
<g><path style="opacity:0.881" fill="#e0a43a" d="M 607.5,552.5 C 609.023,554.867 610.356,557.367 611.5,560C 610.86,562.12 609.86,563.954 608.5,565.5C 605.5,561.813 602.834,557.813 600.5,553.5C 602.743,552.526 605.076,552.192 607.5,552.5 Z"/></g>
<g><path style="opacity:0.97" fill="#12a1de" d="M 1659.5,563.5 C 1671.62,594.354 1683.45,625.354 1695,656.5C 1695.42,657.756 1696.25,658.423 1697.5,658.5C 1695.74,663.676 1693.74,668.676 1691.5,673.5C 1679.26,642.305 1667.26,610.805 1655.5,579C 1655.16,577.97 1654.5,577.47 1653.5,577.5C 1654.99,572.537 1656.99,567.871 1659.5,563.5 Z"/></g>
<g><path style="opacity:0.595" fill="#fd8f32" d="M 607.5,552.5 C 605.076,552.192 602.743,552.526 600.5,553.5C 602.834,557.813 605.5,561.813 608.5,565.5C 608.5,566.5 608.5,567.5 608.5,568.5C 587.814,604.027 567.481,639.861 547.5,676C 504.154,676.774 460.821,677.607 417.5,678.5C 415.626,678.61 414.126,677.944 413,676.5C 390.597,638.94 368.43,601.273 346.5,563.5C 367.563,525.043 388.897,486.709 410.5,448.5C 455.161,446.878 499.827,446.044 544.5,446C 565.901,481.308 586.901,516.808 607.5,552.5 Z M 453.5,518.5 C 470.513,518.167 487.513,518.501 504.5,519.5C 512.708,533.416 521.041,547.25 529.5,561C 521.42,575.829 513.086,590.496 504.5,605C 487.833,605.667 471.167,605.667 454.5,605C 445.788,591.08 437.455,576.913 429.5,562.5C 437.525,547.779 445.525,533.113 453.5,518.5 Z"/></g>
<g><path style="opacity:0.51" fill="#89dc51" d="M 686.5,551.5 C 686.833,551.5 687.167,551.5 687.5,551.5C 688.701,554.068 690.034,556.568 691.5,559C 657.193,621.122 622.526,682.956 587.5,744.5C 569.815,744.269 552.148,744.602 534.5,745.5C 563.095,693.146 592.095,640.979 621.5,589C 617.267,582.018 612.934,575.184 608.5,568.5C 608.5,567.5 608.5,566.5 608.5,565.5C 609.86,563.954 610.86,562.12 611.5,560C 610.356,557.367 609.023,554.867 607.5,552.5C 633.835,552.246 660.168,551.913 686.5,551.5 Z"/></g>
<g><path style="opacity:0.902" fill="#ec9a37" d="M 762.5,577.5 C 748.421,603.993 734.087,630.327 719.5,656.5C 689.738,709.697 659.738,762.697 629.5,815.5C 629.167,815.5 628.833,815.5 628.5,815.5C 626.031,814.683 623.365,814.183 620.5,814C 661.46,742.581 702.293,671.081 743,599.5C 748,593.167 753,586.833 758,580.5C 759.129,578.859 760.629,577.859 762.5,577.5 Z"/></g>
<g><path style="opacity:0.912" fill="#03a2e8" d="M 1653.5,577.5 C 1654.5,577.47 1655.16,577.97 1655.5,579C 1667.26,610.805 1679.26,642.305 1691.5,673.5C 1679.89,705.993 1667.89,738.326 1655.5,770.5C 1630.33,770.831 1605.33,770.498 1580.5,769.5C 1604.44,705.351 1628.77,641.351 1653.5,577.5 Z"/></g>
<g><path style="opacity:0.983" fill="#3c9ebf" d="M 2536.5,622.5 C 2548.22,627.096 2560.22,630.763 2572.5,633.5C 2579.87,643.207 2588.54,651.54 2598.5,658.5C 2578.9,652.965 2559.56,646.632 2540.5,639.5C 2538.76,633.934 2537.42,628.267 2536.5,622.5 Z"/></g>
<g><path style="opacity:0.685" fill="#03a2e8" d="M 2540.5,639.5 C 2559.56,646.632 2578.9,652.965 2598.5,658.5C 2600.83,659.167 2603.17,659.833 2605.5,660.5C 2623.31,669.56 2641.98,676.727 2661.5,682C 2712.26,694.523 2762.93,707.357 2813.5,720.5C 2831.59,730.637 2848.42,742.637 2864,756.5C 2863.25,754.024 2861.92,751.691 2860,749.5C 2853.63,741.969 2846.8,734.969 2839.5,728.5C 2880.98,740.145 2916.81,761.145 2947,791.5C 2937.9,775.367 2926.06,761.201 2911.5,749C 2903.98,743.637 2896.65,738.137 2889.5,732.5C 2935.39,744.95 2974.22,768.617 3006,803.5C 3038.5,847.35 3048.5,896.017 3036,949.5C 3016.8,1015.7 2974.97,1061.2 2910.5,1086C 2861.68,1103.59 2811.35,1110.26 2759.5,1106C 2709.35,1104.3 2662.01,1091.96 2617.5,1069C 2577.74,1046.29 2548.41,1014.13 2529.5,972.5C 2552.96,986.767 2578.3,996.1 2605.5,1000.5C 2606.71,1001.23 2608.04,1001.57 2609.5,1001.5C 2638.14,1018.25 2669.14,1028.09 2702.5,1031C 2711.49,1031.78 2720.49,1032.28 2729.5,1032.5C 2730.5,1032.5 2731.5,1032.5 2732.5,1032.5C 2742.24,1034.8 2752.24,1036.3 2762.5,1037C 2784.19,1037.8 2805.85,1037.47 2827.5,1036C 2854.14,1032.56 2879.47,1024.9 2903.5,1013C 2930.86,998.97 2949.7,977.47 2960,948.5C 2974.36,896.213 2958.52,856.047 2912.5,828C 2890.91,816.579 2868.24,807.912 2844.5,802C 2793.08,788.977 2741.74,775.644 2690.5,762C 2655.1,752.798 2622.77,737.464 2593.5,716C 2568.02,695.866 2550.36,670.366 2540.5,639.5 Z"/></g>
<g><path style="opacity:0.939" fill="#fce5d0" d="M 2665.5,656.5 C 2666.83,656.833 2668.17,657.167 2669.5,657.5C 2676.29,661.212 2683.29,664.545 2690.5,667.5C 2673.77,663.485 2657.11,659.151 2640.5,654.5C 2639.13,653.488 2637.8,652.488 2636.5,651.5C 2636.74,650.903 2637.24,650.57 2638,650.5C 2647.22,652.443 2656.38,654.443 2665.5,656.5 Z"/></g>
<g><path style="opacity:0.984" fill="#2dabc1" d="M 2633.5,649.5 C 2634.5,650.167 2635.5,650.833 2636.5,651.5C 2637.8,652.488 2639.13,653.488 2640.5,654.5C 2648.95,661.234 2658.28,666.734 2668.5,671C 2677.59,674.555 2686.59,678.055 2695.5,681.5C 2665.43,674.815 2635.43,667.815 2605.5,660.5C 2603.17,659.833 2600.83,659.167 2598.5,658.5C 2588.54,651.54 2579.87,643.207 2572.5,633.5C 2569.81,629.802 2567.98,625.802 2567,621.5C 2570.72,625.273 2574.88,628.44 2579.5,631C 2596.38,640.461 2614.38,646.627 2633.5,649.5 Z"/></g>
<g><path style="opacity:0.968" fill="#e5f1d1" d="M 2640.5,654.5 C 2657.11,659.151 2673.77,663.485 2690.5,667.5C 2694.5,668.5 2698.5,669.5 2702.5,670.5C 2714.54,675.011 2726.87,678.844 2739.5,682C 2750.71,685.137 2762.04,687.637 2773.5,689.5C 2786.34,692.929 2799.34,696.263 2812.5,699.5C 2813.42,699.457 2814.08,699.124 2814.5,698.5C 2817.45,699.654 2820.45,700.654 2823.5,701.5C 2841.56,708.037 2859.23,715.87 2876.5,725C 2879.27,726.371 2881.6,728.204 2883.5,730.5C 2831.92,715.773 2779.92,702.606 2727.5,691C 2716.79,687.928 2706.12,684.761 2695.5,681.5C 2686.59,678.055 2677.59,674.555 2668.5,671C 2658.28,666.734 2648.95,661.234 2640.5,654.5 Z"/></g>
<g><path style="opacity:0.719" fill="#f99135" d="M 2669.5,657.5 C 2699.09,664.145 2728.09,672.478 2756.5,682.5C 2738.45,678.704 2720.45,674.704 2702.5,670.5C 2698.5,669.5 2694.5,668.5 2690.5,667.5C 2683.29,664.545 2676.29,661.212 2669.5,657.5 Z"/></g>
<g><path style="opacity:0.869" fill="#b0c751" d="M 2702.5,670.5 C 2720.45,674.704 2738.45,678.704 2756.5,682.5C 2762.3,684.029 2767.97,685.696 2773.5,687.5C 2772.45,687.351 2771.45,687.517 2770.5,688C 2771.74,688.232 2772.74,688.732 2773.5,689.5C 2762.04,687.637 2750.71,685.137 2739.5,682C 2726.87,678.844 2714.54,675.011 2702.5,670.5 Z"/></g>
<g><path style="opacity:0.515" fill="#90dc5b" d="M 2773.5,687.5 C 2787.22,690.964 2800.89,694.63 2814.5,698.5C 2814.08,699.124 2813.42,699.457 2812.5,699.5C 2799.34,696.263 2786.34,692.929 2773.5,689.5C 2772.74,688.732 2771.74,688.232 2770.5,688C 2771.45,687.517 2772.45,687.351 2773.5,687.5 Z"/></g>
<g><path style="opacity:0.927" fill="#579cab" d="M 3229.5,692.5 C 3255.83,692.5 3282.17,692.5 3308.5,692.5C 3308.5,699.833 3308.5,707.167 3308.5,714.5C 3291.83,714.5 3275.17,714.5 3258.5,714.5C 3248.83,714.5 3239.17,714.5 3229.5,714.5C 3229.5,707.167 3229.5,699.833 3229.5,692.5 Z"/></g>
<g><path style="opacity:0.91" fill="#fed8b8" d="M 3308.5,692.5 C 3312.5,692.5 3316.5,692.5 3320.5,692.5C 3320.5,699.833 3320.5,707.167 3320.5,714.5C 3316.5,714.5 3312.5,714.5 3308.5,714.5C 3308.5,707.167 3308.5,699.833 3308.5,692.5 Z"/></g>
<g><path style="opacity:0.67" fill="#fbfcfc" d="M 2823.5,701.5 C 2859.19,709.673 2894.19,720.173 2928.5,733C 2963.09,747.604 2992.59,769.104 3017,797.5C 3049.38,842.7 3060.04,892.7 3049,947.5C 3034.8,1006.33 3001.64,1050.83 2949.5,1081C 2909.46,1102.74 2866.79,1115.24 2821.5,1118.5C 2800.83,1118.5 2780.17,1118.5 2759.5,1118.5C 2713,1116.23 2668.33,1105.73 2625.5,1087C 2552.49,1049.55 2509.99,990.046 2498,908.5C 2496.92,898.182 2496.09,887.848 2495.5,877.5C 2495.61,876.883 2495.94,876.383 2496.5,876C 2503.31,875.117 2509.98,874.283 2516.5,873.5C 2542.14,870.987 2567.81,868.654 2593.5,866.5C 2595.33,900.833 2605.83,932.167 2625,960.5C 2631.7,968.365 2638.87,975.698 2646.5,982.5C 2641.36,983.488 2636.03,983.821 2630.5,983.5C 2629.5,982.833 2628.5,982.167 2627.5,981.5C 2606.97,960.113 2593.47,934.78 2587,905.5C 2585.39,896.839 2583.89,888.173 2582.5,879.5C 2557.86,881.809 2533.19,883.809 2508.5,885.5C 2509.3,910.296 2513.96,934.296 2522.5,957.5C 2524.59,962.685 2526.93,967.685 2529.5,972.5C 2548.41,1014.13 2577.74,1046.29 2617.5,1069C 2662.01,1091.96 2709.35,1104.3 2759.5,1106C 2811.35,1110.26 2861.68,1103.59 2910.5,1086C 2974.97,1061.2 3016.8,1015.7 3036,949.5C 3048.5,896.017 3038.5,847.35 3006,803.5C 2974.22,768.617 2935.39,744.95 2889.5,732.5C 2887.7,731.27 2885.7,730.604 2883.5,730.5C 2881.6,728.204 2879.27,726.371 2876.5,725C 2859.23,715.87 2841.56,708.037 2823.5,701.5 Z"/></g>
<g><path style="opacity:0.88" fill="#22aec8" d="M 2605.5,660.5 C 2635.43,667.815 2665.43,674.815 2695.5,681.5C 2706.12,684.761 2716.79,687.928 2727.5,691C 2779.92,702.606 2831.92,715.773 2883.5,730.5C 2885.7,730.604 2887.7,731.27 2889.5,732.5C 2896.65,738.137 2903.98,743.637 2911.5,749C 2926.06,761.201 2937.9,775.367 2947,791.5C 2916.81,761.145 2880.98,740.145 2839.5,728.5C 2831.09,725.255 2822.43,722.588 2813.5,720.5C 2762.93,707.357 2712.26,694.523 2661.5,682C 2641.98,676.727 2623.31,669.56 2605.5,660.5 Z"/></g>
<g><path style="opacity:0.611" fill="#96d7f4" d="M 3516.5,422.5 C 3420.83,422.5 3325.17,422.5 3229.5,422.5C 3229.5,512.5 3229.5,602.5 3229.5,692.5C 3229.5,699.833 3229.5,707.167 3229.5,714.5C 3229.5,841.167 3229.5,967.833 3229.5,1094.5C 3229.5,1094.83 3229.5,1095.17 3229.5,1095.5C 3228.5,871.001 3228.17,646.334 3228.5,421.5C 3324.67,421.167 3420.67,421.501 3516.5,422.5 Z"/></g>
<g><path style="opacity:0.819" fill="#23b1c4" d="M 3258.5,714.5 C 3275.17,714.5 3291.83,714.5 3308.5,714.5C 3308.5,723.5 3308.5,732.5 3308.5,741.5C 3291.83,741.5 3275.17,741.5 3258.5,741.5C 3258.5,732.5 3258.5,723.5 3258.5,714.5 Z"/></g>
<g><path style="opacity:0.5" fill="#88db51" d="M 3509.5,734.5 C 3505.85,734.942 3502.18,735.276 3498.5,735.5C 3439.17,735.5 3379.83,735.5 3320.5,735.5C 3320.5,728.5 3320.5,721.5 3320.5,714.5C 3347.18,714.727 3373.85,714.394 3400.5,713.5C 3433.35,715.407 3465.69,712.241 3497.5,704C 3531.06,694.441 3554.56,673.607 3568,641.5C 3577.74,611.896 3579.07,581.896 3572,551.5C 3569.49,543.636 3566.83,535.97 3564,528.5C 3587.26,553.231 3598.43,582.731 3597.5,617C 3597.89,678.74 3568.55,717.906 3509.5,734.5 Z"/></g>
<g><path style="opacity:0.83" fill="#289fcc" d="M 2813.5,720.5 C 2822.43,722.588 2831.09,725.255 2839.5,728.5C 2846.8,734.969 2853.63,741.969 2860,749.5C 2861.92,751.691 2863.25,754.024 2864,756.5C 2848.42,742.637 2831.59,730.637 2813.5,720.5 Z"/></g>
<g><path style="opacity:0.793" fill="#e0f5d3" d="M 3308.5,714.5 C 3312.5,714.5 3316.5,714.5 3320.5,714.5C 3320.5,721.5 3320.5,728.5 3320.5,735.5C 3379.83,735.5 3439.17,735.5 3498.5,735.5C 3485.41,738.048 3472.08,739.881 3458.5,741C 3408.5,741.5 3358.5,741.667 3308.5,741.5C 3308.5,732.5 3308.5,723.5 3308.5,714.5 Z"/></g>
<g><path style="opacity:0.888" fill="#e5a139" d="M 587.5,744.5 C 585.958,745.163 584.291,745.83 582.5,746.5C 578.08,753.671 573.914,761.004 570,768.5C 557.14,783.726 544.64,799.226 532.5,815C 543.161,815.5 553.828,815.667 564.5,815.5C 568.5,815.5 572.5,815.5 576.5,815.5C 543.997,816.296 511.33,816.963 478.5,817.5C 478.167,817.5 477.833,817.5 477.5,817.5C 470.155,803.313 462.155,789.479 453.5,776C 475.174,775.833 496.841,775.333 518.5,774.5C 523.592,764.645 528.925,754.979 534.5,745.5C 552.148,744.602 569.815,744.269 587.5,744.5 Z"/></g>
<g><path style="opacity:0.971" fill="#89dd52" d="M 719.5,656.5 C 734.087,630.327 748.421,603.993 762.5,577.5C 766.72,571.414 770.386,564.914 773.5,558C 772.715,555.406 771.382,553.239 769.5,551.5C 769.5,551.167 769.5,550.833 769.5,550.5C 812.669,550.015 855.836,549.348 899,548.5C 903.833,548.833 908.667,549.167 913.5,549.5C 919.635,560.131 925.968,570.631 932.5,581C 984.34,581.302 1036.17,580.802 1088,579.5C 1091.5,579.833 1095,580.167 1098.5,580.5C 1148.33,664.167 1198.17,747.833 1248,831.5C 1248.67,832.833 1248.67,834.167 1248,835.5C 1200.24,920.69 1152.24,1005.69 1104,1090.5C 1015.19,1092.07 926.361,1093.4 837.5,1094.5C 827.833,1094.17 818.167,1093.83 808.5,1093.5C 758.374,1009.42 708.374,925.249 658.5,841C 693.167,779.333 727.833,717.667 762.5,656C 748.187,656.323 733.854,656.489 719.5,656.5 Z M 989.5,652.5 C 1012.41,652.173 1035.24,652.506 1058,653.5C 1093.83,713.833 1129.67,774.167 1165.5,834.5C 1131.17,895.833 1096.83,957.167 1062.5,1018.5C 996.016,1020.38 929.516,1021.71 863,1022.5C 858.5,1022.17 854,1021.83 849.5,1021.5C 813.626,960.917 777.626,900.417 741.5,840C 776.167,778.333 810.833,716.667 845.5,655C 893.668,654.381 941.668,653.547 989.5,652.5 Z M 938.5,793.5 C 951.85,793.167 965.183,793.501 978.5,794.5C 986.833,808.5 995.167,822.5 1003.5,836.5C 995.754,850.995 987.754,865.328 979.5,879.5C 962.5,880.833 945.5,880.833 928.5,879.5C 920.292,865.584 911.959,851.75 903.5,838C 911.373,823.752 919.373,809.586 927.5,795.5C 931.313,794.833 934.979,794.166 938.5,793.5 Z"/></g>
<g><path style="opacity:0.945" fill="#89dd52" d="M 947.5,721.5 C 971.502,721.333 995.502,721.5 1019.5,722C 1041.54,759.249 1063.71,796.416 1086,833.5C 1086.63,835.635 1086.3,837.635 1085,839.5C 1064.17,876.5 1043.33,913.5 1022.5,950.5C 1014.19,951.332 1005.85,951.832 997.5,952C 961.163,952.587 924.83,952.92 888.5,953C 865.456,915.081 842.789,876.914 820.5,838.5C 842.04,799.919 863.707,761.419 885.5,723C 906.337,722.832 927.004,722.332 947.5,721.5 Z M 938.5,793.5 C 934.979,794.166 931.313,794.833 927.5,795.5C 919.373,809.586 911.373,823.752 903.5,838C 911.959,851.75 920.292,865.584 928.5,879.5C 945.5,880.833 962.5,880.833 979.5,879.5C 987.754,865.328 995.754,850.995 1003.5,836.5C 995.167,822.5 986.833,808.5 978.5,794.5C 965.183,793.501 951.85,793.167 938.5,793.5 Z"/></g>
<g><path style="opacity:0.984" fill="#15a1dc" d="M 1580.5,769.5 C 1605.33,770.498 1630.33,770.831 1655.5,770.5C 1652.97,777.438 1650.63,784.438 1648.5,791.5C 1647.83,791.5 1647.5,791.833 1647.5,792.5C 1630.76,792.182 1614.09,792.515 1597.5,793.5C 1588.42,793.196 1579.42,793.529 1570.5,794.5C 1573.46,785.931 1576.8,777.598 1580.5,769.5 Z"/></g>
<g><path style="opacity:0.596" fill="#fc8e31" d="M 1703.5,678.5 C 1718.2,716.269 1732.54,754.269 1746.5,792.5C 1717.83,792.5 1689.17,792.5 1660.5,792.5C 1662.75,784.735 1665.75,777.401 1669.5,770.5C 1688.51,770.833 1707.51,770.5 1726.5,769.5C 1717.2,743.911 1707.53,718.578 1697.5,693.5C 1698.74,688.105 1700.74,683.105 1703.5,678.5 Z"/></g>
<g><path style="opacity:0.989" fill="#0da7dc" d="M 1647.5,792.5 C 1644.17,801.495 1640.83,810.495 1637.5,819.5C 1637.5,820.167 1637.17,820.5 1636.5,820.5C 1620.68,819.504 1604.68,819.17 1588.5,819.5C 1591.1,810.695 1594.1,802.028 1597.5,793.5C 1614.09,792.515 1630.76,792.182 1647.5,792.5 Z"/></g>
<g><path style="opacity:0.858" fill="#89dc51" d="M 1735.5,589.5 C 1763.3,664.244 1791.3,738.911 1819.5,813.5C 1763.83,813.833 1708.16,813.5 1652.5,812.5C 1655.24,805.949 1657.57,799.282 1659.5,792.5C 1659.83,792.5 1660.17,792.5 1660.5,792.5C 1689.17,792.5 1717.83,792.5 1746.5,792.5C 1764.51,792.833 1782.51,792.5 1800.5,791.5C 1777.39,729.635 1754.06,667.968 1730.5,606.5C 1731.18,600.457 1732.85,594.79 1735.5,589.5 Z"/></g>
<g><path style="opacity:0.793" fill="#fc8e31" d="M 1668.5,388.5 C 1656.42,388.188 1644.42,388.521 1632.5,389.5C 1614.5,389.5 1596.5,389.5 1578.5,389.5C 1494.33,610.51 1409.66,831.343 1324.5,1052C 1315.17,1052.67 1305.83,1052.67 1296.5,1052C 1384.19,823.928 1471.69,595.762 1559,367.5C 1592.76,366.504 1626.59,366.171 1660.5,366.5C 1663.16,373.823 1665.83,381.156 1668.5,388.5 Z"/></g>
<g><path style="opacity:0.982" fill="#eef9e7" d="M 1648.5,791.5 C 1651.96,792.482 1655.63,792.815 1659.5,792.5C 1657.57,799.282 1655.24,805.949 1652.5,812.5C 1708.16,813.5 1763.83,813.833 1819.5,813.5C 1819.83,815.5 1820.17,817.5 1820.5,819.5C 1759.5,819.5 1698.5,819.5 1637.5,819.5C 1640.83,810.495 1644.17,801.495 1647.5,792.5C 1647.5,791.833 1647.83,791.5 1648.5,791.5 Z"/></g>
<g><path style="opacity:0.594" fill="#43baef" d="M 3308.5,815.5 C 3308.5,908.833 3308.5,1002.17 3308.5,1095.5C 3282.17,1095.5 3255.83,1095.5 3229.5,1095.5C 3229.5,1095.17 3229.5,1094.83 3229.5,1094.5C 3255.5,1094.5 3281.5,1094.5 3307.5,1094.5C 3307.17,1001.33 3307.5,908.332 3308.5,815.5 Z"/></g>
<g><path style="opacity:0.882" fill="#2eb3ec" d="M 1635.5,824.5 C 1718.66,825.499 1802,825.833 1885.5,825.5C 1802,826.832 1718.33,826.832 1634.5,825.5C 1634.62,824.893 1634.96,824.56 1635.5,824.5 Z"/></g>
<g><path style="opacity:0.861" fill="#fc8e31" d="M 2415.5,986.5 C 2386.44,956.4 2367.28,920.733 2358,879.5C 2354.53,863.685 2352.69,847.685 2352.5,831.5C 2381.15,828.926 2409.81,826.593 2438.5,824.5C 2439.29,832.264 2440.63,839.931 2442.5,847.5C 2419.23,850.433 2395.9,852.767 2372.5,854.5C 2373.25,903.09 2387.59,947.09 2415.5,986.5 Z"/></g>
<g><path style="opacity:0.686" fill="#88db51" d="M 2516.5,873.5 C 2509.98,874.283 2503.31,875.117 2496.5,876C 2495.94,876.383 2495.61,876.883 2495.5,877.5C 2479.47,878.533 2463.47,879.866 2447.5,881.5C 2447.92,923.757 2459.26,962.757 2481.5,998.5C 2481.17,998.833 2480.83,999.167 2480.5,999.5C 2445.35,957.407 2427.35,908.74 2426.5,853.5C 2455.15,850.926 2483.81,848.593 2512.5,846.5C 2513.73,855.518 2515.06,864.518 2516.5,873.5 Z"/></g>
<g><path style="opacity:0.59" fill="#88db51" d="M 2801.5,1025.5 C 2797.82,1025.72 2794.15,1026.06 2790.5,1026.5C 2753.1,1026.82 2717.44,1019.49 2683.5,1004.5C 2686.83,1004.5 2690.17,1004.5 2693.5,1004.5C 2734.2,1007.5 2773.53,1001.66 2811.5,987C 2872.7,959.108 2894.2,912.941 2876,848.5C 2900.97,873.683 2909.47,903.683 2901.5,938.5C 2894.74,963.411 2881.08,983.577 2860.5,999C 2842.23,1011.14 2822.57,1019.97 2801.5,1025.5 Z"/></g>
<g><path style="opacity:0.731" fill="#08a2e8" d="M 2627.5,981.5 C 2619.32,982.639 2610.99,982.639 2602.5,981.5C 2601.17,981.167 2599.83,980.833 2598.5,980.5C 2583.13,972.307 2568.96,962.307 2556,950.5C 2557.41,954.306 2559.41,957.973 2562,961.5C 2565.6,966.381 2569.44,971.048 2573.5,975.5C 2555.8,971.489 2538.8,965.489 2522.5,957.5C 2513.96,934.296 2509.3,910.296 2508.5,885.5C 2533.19,883.809 2557.86,881.809 2582.5,879.5C 2583.89,888.173 2585.39,896.839 2587,905.5C 2593.47,934.78 2606.97,960.113 2627.5,981.5 Z"/></g>
<g><path style="opacity:0.797" fill="#fa8d30" d="M 1776.5,899.5 C 1780.5,899.5 1784.5,899.5 1788.5,899.5C 1807.7,950.423 1826.7,1001.42 1845.5,1052.5C 1841.33,1053.04 1837.49,1052.38 1834,1050.5C 1814.73,1000.18 1795.56,949.849 1776.5,899.5 Z"/></g>
<g><path style="opacity:0.775" fill="#87da50" d="M 1842.5,899.5 C 1845.83,899.5 1849.17,899.5 1852.5,899.5C 1874.54,957.772 1896.87,1015.94 1919.5,1074C 1915.79,1074.83 1912.12,1074.66 1908.5,1073.5C 1885.92,1015.69 1863.92,957.689 1842.5,899.5 Z"/></g>
<g><path style="opacity:0.394" fill="#88dc51" d="M 576.5,815.5 C 593.833,815.5 611.167,815.5 628.5,815.5C 628.833,815.5 629.167,815.5 629.5,815.5C 624.759,823.311 620.259,831.311 616,839.5C 615.333,840.833 615.333,842.167 616,843.5C 659.366,916.036 702.532,988.703 745.5,1061.5C 704.834,1062.93 664.167,1063.27 623.5,1062.5C 574.714,981.06 526.38,899.393 478.5,817.5C 511.33,816.963 543.997,816.296 576.5,815.5 Z"/></g>
<g><path style="opacity:0.905" fill="#1badcb" d="M 2598.5,980.5 C 2590.77,979.349 2583.1,978.016 2575.5,976.5C 2574.83,976.167 2574.17,975.833 2573.5,975.5C 2569.44,971.048 2565.6,966.381 2562,961.5C 2559.41,957.973 2557.41,954.306 2556,950.5C 2568.96,962.307 2583.13,972.307 2598.5,980.5 Z"/></g>
<g><path style="opacity:0.573" fill="#fc8e31" d="M 2693.5,1004.5 C 2690.17,1004.5 2686.83,1004.5 2683.5,1004.5C 2682.17,1004.17 2680.83,1003.83 2679.5,1003.5C 2673.06,999.441 2666.39,995.608 2659.5,992C 2655.03,989.35 2651.03,986.183 2647.5,982.5C 2685.77,982.767 2721.77,973.934 2755.5,956C 2799.79,928.244 2816.79,888.744 2806.5,837.5C 2813.5,841.336 2819,846.669 2823,853.5C 2838.35,914.301 2817.85,958.467 2761.5,986C 2739.56,995.315 2716.9,1001.48 2693.5,1004.5 Z"/></g>
<g><path style="opacity:0.951" fill="#3d9dbd" d="M 2522.5,957.5 C 2538.8,965.489 2555.8,971.489 2573.5,975.5C 2574.17,975.833 2574.83,976.167 2575.5,976.5C 2584.63,985.64 2594.63,993.64 2605.5,1000.5C 2578.3,996.1 2552.96,986.767 2529.5,972.5C 2526.93,967.685 2524.59,962.685 2522.5,957.5 Z"/></g>
<g><path style="opacity:0.977" fill="#2fabbe" d="M 2575.5,976.5 C 2583.1,978.016 2590.77,979.349 2598.5,980.5C 2599.83,980.833 2601.17,981.167 2602.5,981.5C 2615.97,988.043 2629.97,993.376 2644.5,997.5C 2645.11,997.376 2645.44,997.043 2645.5,996.5C 2646.6,997.6 2647.94,998.267 2649.5,998.5C 2652.32,1001.07 2655.32,1003.41 2658.5,1005.5C 2642.03,1005.66 2625.7,1004.32 2609.5,1001.5C 2608.04,1001.57 2606.71,1001.23 2605.5,1000.5C 2594.63,993.64 2584.63,985.64 2575.5,976.5 Z"/></g>
<g><path style="opacity:0.928" fill="#3d9fc0" d="M 2602.5,981.5 C 2610.99,982.639 2619.32,982.639 2627.5,981.5C 2628.5,982.167 2629.5,982.833 2630.5,983.5C 2634.9,988.532 2639.9,992.865 2645.5,996.5C 2645.44,997.043 2645.11,997.376 2644.5,997.5C 2629.97,993.376 2615.97,988.043 2602.5,981.5 Z"/></g>
<g><path style="opacity:0.912" fill="#fce4cf" d="M 2646.5,982.5 C 2646.83,982.5 2647.17,982.5 2647.5,982.5C 2651.03,986.183 2655.03,989.35 2659.5,992C 2666.39,995.608 2673.06,999.441 2679.5,1003.5C 2669.41,1002.35 2659.41,1000.68 2649.5,998.5C 2647.94,998.267 2646.6,997.6 2645.5,996.5C 2639.9,992.865 2634.9,988.532 2630.5,983.5C 2636.03,983.821 2641.36,983.488 2646.5,982.5 Z"/></g>
<g><path style="opacity:0.027" fill="#da6e25" d="M 2415.5,986.5 C 2416.83,987.167 2416.83,987.167 2415.5,986.5 Z"/></g>
<g><path style="opacity:0.892" fill="#1eaeca" d="M 2609.5,1001.5 C 2625.7,1004.32 2642.03,1005.66 2658.5,1005.5C 2680.84,1018.18 2704.51,1027.18 2729.5,1032.5C 2720.49,1032.28 2711.49,1031.78 2702.5,1031C 2669.14,1028.09 2638.14,1018.25 2609.5,1001.5 Z"/></g>
<g><path style="opacity:0.883" fill="#e3f6d7" d="M 2649.5,998.5 C 2659.41,1000.68 2669.41,1002.35 2679.5,1003.5C 2680.83,1003.83 2682.17,1004.17 2683.5,1004.5C 2717.44,1019.49 2753.1,1026.82 2790.5,1026.5C 2771.5,1030.33 2752.16,1032.33 2732.5,1032.5C 2731.5,1032.5 2730.5,1032.5 2729.5,1032.5C 2704.51,1027.18 2680.84,1018.18 2658.5,1005.5C 2655.32,1003.41 2652.32,1001.07 2649.5,998.5 Z"/></g>
<g><path style="opacity:0.909" fill="#4abdef" d="M 1456.5,1092.5 C 1483.48,1094.49 1510.81,1095.16 1538.5,1094.5C 1511.01,1095.5 1483.34,1095.83 1455.5,1095.5C 1455.26,1094.21 1455.6,1093.21 1456.5,1092.5 Z"/></g>
</svg>
