<?xml version="1.0" standalone="no"?><!DOCTYPE svg PUBLIC "-//W3C//DTD SVG 1.1//EN" "http://www.w3.org/Graphics/SVG/1.1/DTD/svg11.dtd"><svg t="1685882780779" class="icon" viewBox="0 0 1024 1024" version="1.1" xmlns="http://www.w3.org/2000/svg" p-id="3785" xmlns:xlink="http://www.w3.org/1999/xlink" width="200" height="200"><path d="M586.043077 691.593846H437.956923C330.830769 691.593846 244.184615 604.947692 244.184615 497.821538V280.418462c0-17.329231 14.178462-31.507692 31.507693-31.507693h472.615384c17.329231 0 31.507692 14.178462 31.507693 31.507693v217.403076c0 107.126154-86.646154 193.772308-193.772308 193.772308zM307.2 311.926154v185.895384c0 72.467692 59.076923 130.756923 130.756923 130.756924h148.086154c72.467692 0 130.756923-59.076923 130.756923-130.756924V311.926154H307.2z" fill="#7F7F7F" p-id="3786"></path><path d="M512 402.510769L118.153846 280.418462 512 157.538462l393.846154 122.88z" fill="#BFBFBF" p-id="3787"></path><path d="M512 434.018462c-3.150769 0-6.301538-0.787692-9.452308-1.575385l-393.846154-122.88c-13.390769-3.938462-22.055385-16.541538-22.055384-29.932308s8.664615-25.993846 22.055384-29.932307l393.846154-122.88c6.301538-1.575385 12.603077-1.575385 18.904616 0l393.846154 122.88c13.390769 3.938462 22.055385 16.541538 22.055384 29.932307s-8.664615 25.993846-22.055384 29.932308L521.452308 433.230769c-3.150769 0.787692-6.301538 0.787692-9.452308 0.787693zM224.492308 280.418462L512 370.215385l287.507692-89.796923L512 190.621538 224.492308 280.418462z" fill="#7F7F7F" p-id="3788"></path><path d="M905.846154 897.969231c-17.329231 0-31.507692-14.178462-31.507692-31.507693V280.418462c0-17.329231 14.178462-31.507692 31.507692-31.507693s31.507692 14.178462 31.507692 31.507693V866.461538c0 17.329231-14.178462 31.507692-31.507692 31.507693z" fill="#7F7F7F" p-id="3789"></path><path d="M827.076923 782.966154h78.769231V866.461538h-78.769231z" fill="#808080" p-id="3790"></path><path d="M905.846154 897.969231h-78.769231c-17.329231 0-31.507692-14.178462-31.507692-31.507693V782.966154c0-17.329231 14.178462-31.507692 31.507692-31.507692h78.769231c17.329231 0 31.507692 14.178462 31.507692 31.507692V866.461538c0 17.329231-14.178462 31.507692-31.507692 31.507693z m-47.261539-63.015385h15.753847v-20.48h-15.753847v20.48z" fill="#7F7F7F" p-id="3791"></path></svg>